<svg width="235" height="490" viewBox="0 0 235 490" fill="none" xmlns="http://www.w3.org/2000/svg">
<path fill-rule="evenodd" clip-rule="evenodd" d="M2.27405 24.7491C0.5896 29.9528 0.5896 36.3827 0.5896 49.2424L0.5896 440.758C0.5896 453.617 0.5896 460.047 2.27405 465.251C5.67843 475.768 13.893 484.013 24.3706 487.43C29.5548 489.121 35.9606 489.121 48.7723 489.121H185.864C198.675 489.121 205.081 489.121 210.265 487.43C220.743 484.013 228.957 475.768 232.362 465.251C234.046 460.047 234.046 453.617 234.046 440.758L234.046 49.2424C234.046 36.3827 234.046 29.9528 232.362 24.7491C228.957 14.2322 220.743 5.98672 210.265 2.56956C205.081 0.878784 198.675 0.878784 185.864 0.878784L48.7723 0.878784C35.9606 0.878784 29.5548 0.878784 24.3706 2.56956C13.893 5.98672 5.67843 14.2322 2.27405 24.7491ZM58.5234 12.1061V14.697L58.5643 14.6957L58.5232 14.9848C58.5232 21.8214 64.0446 27.3636 70.8557 27.3636L163.779 27.3636C170.59 27.3636 176.112 21.8214 176.112 14.9848L176.071 14.6957L176.112 14.697V12.1061C176.112 10.3572 177.524 8.93939 179.267 8.93939L186.655 8.93937C198.205 8.93937 203.98 8.93937 208.586 10.6863C215.825 13.4321 221.54 19.1682 224.275 26.4347C226.015 31.0578 226.015 36.8545 226.015 48.4479L226.015 441.552C226.015 453.145 226.015 458.942 224.275 463.565C221.54 470.832 215.825 476.568 208.586 479.314C203.98 481.061 198.205 481.061 186.655 481.061H47.9803C36.4304 481.061 30.6554 481.061 26.0496 479.314C18.8102 476.568 13.0956 470.832 10.36 463.565C8.61966 458.942 8.61966 453.145 8.61966 441.552L8.61966 48.4478C8.61966 36.8545 8.61966 31.0578 10.36 26.4347C13.0956 19.1682 18.8102 13.4321 26.0496 10.6863C30.6554 8.93937 36.4304 8.93937 47.9803 8.93937L55.3685 8.93939C57.1109 8.93939 58.5234 10.3572 58.5234 12.1061Z" fill="#121515"/>
</svg>
