<svg width="240" height="494" viewBox="0 0 240 494" fill="none" xmlns="http://www.w3.org/2000/svg">
<path fill-rule="evenodd" clip-rule="evenodd" d="M2.54487 25.8595C0.720047 31.4968 0.720047 38.4625 0.720047 52.394L0.720047 441.606C0.720047 455.537 0.720047 462.503 2.54487 468.141C6.23294 479.534 15.1321 488.466 26.4828 492.168C32.099 494 39.0387 494 52.918 494H187.715C201.594 494 208.534 494 214.15 492.168C225.501 488.466 234.4 479.534 238.088 468.141C239.913 462.503 239.913 455.537 239.913 441.606L239.913 52.3939C239.913 38.4625 239.913 31.4968 238.088 25.8595C234.4 14.4662 225.501 5.5336 214.15 1.83167C208.534 0 201.594 0 187.715 0L52.918 0C39.0387 0 32.099 0 26.4828 1.83167C15.1321 5.5336 6.23294 14.4662 2.54487 25.8595ZM61.5225 14.1061V16.697L61.5634 16.6957L61.5223 16.9848C61.5223 23.8215 67.0437 29.3636 73.8548 29.3636L166.779 29.3636C173.59 29.3636 179.111 23.8215 179.111 16.9848L179.07 16.6957L179.111 16.697V14.1061C179.111 12.3572 180.523 10.9394 182.266 10.9394L189.654 10.9394C201.204 10.9394 206.979 10.9394 211.585 12.6863C218.824 15.4321 224.539 21.1682 227.274 28.4348C229.015 33.0578 229.015 38.8545 229.015 50.4479L229.015 443.552C229.015 455.146 229.015 460.942 227.274 465.565C224.539 472.832 218.824 478.568 211.585 481.314C206.979 483.061 201.204 483.061 189.654 483.061H50.9795C39.4295 483.061 33.6545 483.061 29.0487 481.314C21.8094 478.568 16.0947 472.832 13.3592 465.565C11.6188 460.942 11.6188 455.146 11.6188 443.552L11.6188 50.4479C11.6188 38.8545 11.6188 33.0578 13.3592 28.4348C16.0947 21.1682 21.8094 15.4321 29.0487 12.6863C33.6545 10.9394 39.4295 10.9394 50.9795 10.9394L58.3677 10.9394C60.11 10.9394 61.5225 12.3572 61.5225 14.1061Z" fill="#333333"/>
</svg>
