<svg width="38" height="38" viewBox="0 0 38 38" fill="none" xmlns="http://www.w3.org/2000/svg">
<g id="Frame" clip-path="url(#clip0_2_232)">
<path id="Vector" d="M26.9167 24.138V35.0186C26.9167 35.1587 26.8796 35.2963 26.8091 35.4173C26.7386 35.5383 26.6372 35.6385 26.5153 35.7075C26.3935 35.7766 26.2555 35.8121 26.1154 35.8104C25.9753 35.8087 25.8382 35.7699 25.7181 35.6979L19 31.6667L12.2819 35.6979C12.1617 35.7699 12.0244 35.8088 11.8842 35.8104C11.744 35.812 11.6059 35.7764 11.484 35.7072C11.3621 35.6379 11.2608 35.5375 11.1904 35.4163C11.12 35.295 11.083 35.1572 11.0833 35.017V24.1395C9.03474 22.4994 7.54616 20.2634 6.82332 17.7406C6.10048 15.2178 6.17906 12.5327 7.0482 10.0565C7.91735 7.58034 9.53415 5.43523 11.6752 3.91765C13.8162 2.40007 16.3757 1.58496 19 1.58496C21.6243 1.58496 24.1838 2.40007 26.3249 3.91765C28.4659 5.43523 30.0827 7.58034 30.9518 10.0565C31.821 12.5327 31.8995 15.2178 31.1767 17.7406C30.4539 20.2634 28.9653 22.4994 26.9167 24.1395V24.138ZM14.25 25.9952V30.8244L19 27.9744L23.75 30.8244V25.9952C22.2408 26.6056 20.6279 26.9185 19 26.9167C17.3721 26.9185 15.7592 26.6056 14.25 25.9952ZM19 23.75C21.5196 23.75 23.9359 22.7492 25.7175 20.9676C27.4991 19.186 28.5 16.7696 28.5 14.25C28.5 11.7305 27.4991 9.31412 25.7175 7.53253C23.9359 5.75093 21.5196 4.75004 19 4.75004C16.4805 4.75004 14.0641 5.75093 12.2825 7.53253C10.5009 9.31412 9.50001 11.7305 9.50001 14.25C9.50001 16.7696 10.5009 19.186 12.2825 20.9676C14.0641 22.7492 16.4805 23.75 19 23.75Z" fill="#6B46FF"/>
</g>
<defs>
<clipPath id="clip0_2_232">
<rect width="38" height="38" fill="white"/>
</clipPath>
</defs>
</svg>
