<svg width="32" height="32" viewBox="0 0 32 32" fill="none" xmlns="http://www.w3.org/2000/svg">
<g clip-path="url(#clip0_10_946)">
<path d="M24 10.6666H26.6667C27.0203 10.6666 27.3594 10.8071 27.6095 11.0571C27.8595 11.3072 28 11.6463 28 11.9999V27.9999C28 28.3535 27.8595 28.6927 27.6095 28.9427C27.3594 29.1928 27.0203 29.3333 26.6667 29.3333H5.33333C4.97971 29.3333 4.64057 29.1928 4.39052 28.9427C4.14048 28.6927 4 28.3535 4 27.9999V11.9999C4 11.6463 4.14048 11.3072 4.39052 11.0571C4.64057 10.8071 4.97971 10.6666 5.33333 10.6666H8V9.33325C8 7.21152 8.84285 5.17669 10.3431 3.6764C11.8434 2.17611 13.8783 1.33325 16 1.33325C18.1217 1.33325 20.1566 2.17611 21.6569 3.6764C23.1571 5.17669 24 7.21152 24 9.33325V10.6666ZM21.3333 10.6666V9.33325C21.3333 7.91876 20.7714 6.56221 19.7712 5.56202C18.771 4.56182 17.4145 3.99992 16 3.99992C14.5855 3.99992 13.229 4.56182 12.2288 5.56202C11.2286 6.56221 10.6667 7.91876 10.6667 9.33325V10.6666H21.3333ZM9.33333 14.6666V17.3333H12V14.6666H9.33333ZM9.33333 18.6666V21.3333H12V18.6666H9.33333ZM9.33333 22.6666V25.3333H12V22.6666H9.33333Z" fill="white"/>
</g>
<defs>
<clipPath id="clip0_10_946">
<rect width="32" height="32" fill="white"/>
</clipPath>
</defs>
</svg>
