<svg width="32" height="32" viewBox="0 0 32 32" fill="none" xmlns="http://www.w3.org/2000/svg">
<g clip-path="url(#clip0_10_981)">
<path d="M3.99996 4H28C28.3536 4 28.6927 4.14048 28.9428 4.39052C29.1928 4.64057 29.3333 4.97971 29.3333 5.33333V26.6667C29.3333 27.0203 29.1928 27.3594 28.9428 27.6095C28.6927 27.8595 28.3536 28 28 28H3.99996C3.64634 28 3.3072 27.8595 3.05715 27.6095C2.8071 27.3594 2.66663 27.0203 2.66663 26.6667V5.33333C2.66663 4.97971 2.8071 4.64057 3.05715 4.39052C3.3072 4.14048 3.64634 4 3.99996 4ZM21.952 20.7147L26.6666 16L21.952 11.2853L20.0666 13.1733L22.896 16L20.0666 18.828L21.952 20.7147ZM9.10396 16L11.9333 13.172L10.048 11.2853L5.33329 16L10.048 20.7147L11.9333 18.8267L9.10396 16ZM14.992 22.6667L19.8453 9.33333H17.008L12.1546 22.6667H14.992Z" fill="white"/>
</g>
<defs>
<clipPath id="clip0_10_981">
<rect width="32" height="32" fill="white"/>
</clipPath>
</defs>
</svg>
