<svg width="32" height="32" viewBox="0 0 32 32" fill="none" xmlns="http://www.w3.org/2000/svg">
<g clip-path="url(#clip0_10_956)">
<path d="M9.47342 20.2799C10.345 20.6254 11.0675 21.2659 11.515 22.0897C11.9625 22.9136 12.1065 23.8684 11.9219 24.7875C11.7373 25.7067 11.2358 26.5318 10.5049 27.119C9.77406 27.7062 8.86022 28.0181 7.92288 28.0002C6.98553 27.9824 6.0842 27.636 5.37617 27.0215C4.66813 26.407 4.19835 25.5634 4.0488 24.6379C3.89925 23.7124 4.07943 22.7638 4.55789 21.9575C5.03636 21.1513 5.78273 20.5387 6.66676 20.2266V11.7732C5.77677 11.4587 5.02663 10.8396 4.54894 10.0255C4.07126 9.21134 3.89678 8.25453 4.05634 7.32418C4.21591 6.39382 4.69925 5.54984 5.42093 4.9414C6.14261 4.33296 7.05615 3.99924 8.00009 3.99924C8.94403 3.99924 9.85757 4.33296 10.5793 4.9414C11.3009 5.54984 11.7843 6.39382 11.9438 7.32418C12.1034 8.25453 11.9289 9.21134 11.4512 10.0255C10.9735 10.8396 10.2234 11.4587 9.33342 11.7732V15.9999C10.4481 15.1626 11.8321 14.6666 13.3334 14.6666H18.6668C19.5442 14.6666 20.3974 14.3782 21.0949 13.8457C21.7924 13.3133 22.2955 12.5663 22.5268 11.7199C21.651 11.3731 20.9256 10.7285 20.4784 9.89948C20.0312 9.0705 19.8907 8.11031 20.0818 7.18797C20.2729 6.26562 20.7832 5.44024 21.5229 4.85715C22.2627 4.27405 23.1844 3.97062 24.1259 4.00028C25.0674 4.02993 25.9682 4.39076 26.6698 5.01925C27.3714 5.64775 27.8288 6.5036 27.9614 7.43614C28.094 8.36869 27.8935 9.31813 27.3949 10.1173C26.8964 10.9165 26.1319 11.5142 25.2361 11.8052C24.9676 13.3528 24.1613 14.7559 22.9595 15.7672C21.7577 16.7785 20.2375 17.3331 18.6668 17.3332H13.3334C12.4559 17.3332 11.6028 17.6216 10.9053 18.154C10.2078 18.6865 9.70471 19.4334 9.47342 20.2799Z" fill="white"/>
</g>
<defs>
<clipPath id="clip0_10_956">
<rect width="32" height="32" fill="white"/>
</clipPath>
</defs>
</svg>
