<svg width="167" height="48" viewBox="0 0 167 48" fill="none" xmlns="http://www.w3.org/2000/svg">
<g id="Group">
<path id="BG" d="M160 48H6.15385C2.77077 48 0 45.2985 0 42V6C0 2.7015 2.77077 -1.90735e-06 6.15385 -1.90735e-06H160C163.383 -1.90735e-06 166.154 2.7015 166.154 6V42C166.154 45.2985 163.383 48 160 48Z" fill="black"/>
<path id="Border" d="M160 0.961497C162.849 0.961497 165.168 3.222 165.168 6V42C165.168 44.778 162.849 47.0385 160 47.0385H6.15385C3.30462 47.0385 0.986153 44.778 0.986153 42V6C0.986153 3.222 3.30462 0.961497 6.15385 0.961497H160ZM160 -1.90735e-06H6.15385C2.77077 -1.90735e-06 0 2.7015 0 6V42C0 45.2985 2.77077 48 6.15385 48H160C163.383 48 166.154 45.2985 166.154 42V6C166.154 2.7015 163.383 -1.90735e-06 160 -1.90735e-06Z" fill="#A6A6A6"/>
<g id="Icon">
<path id="Vector" d="M12.8431 9.04646C12.4815 9.41546 12.2723 9.98996 12.2723 10.734V37.272C12.2723 38.016 12.4815 38.5905 12.8431 38.9595L12.9323 39.0405L28.1846 24.1755V23.8245L12.9323 8.95946L12.8431 9.04646Z" fill="url(#paint0_linear_3014_62)"/>
<path id="Vector_2" d="M33.263 29.1329L28.1846 24.1754V23.8244L33.2692 18.8669L33.383 18.9314L39.4046 22.2719C41.123 23.2199 41.123 24.7799 39.4046 25.7339L33.383 29.0684L33.263 29.1329Z" fill="url(#paint1_linear_3014_62)"/>
<path id="Vector_3" d="M33.383 29.0685L28.1846 24L12.843 38.9595C13.4138 39.5445 14.3446 39.615 15.403 39.03L33.383 29.0685Z" fill="url(#paint2_linear_3014_62)"/>
<path id="Vector_4" d="M33.383 18.9315L15.403 8.97C14.3446 8.391 13.4138 8.4615 12.843 9.0465L28.1846 24L33.383 18.9315Z" fill="url(#paint3_linear_3014_62)"/>
</g>
<g id="GET IT ON">
<path id="G" d="M58.36 12.2925C58.36 13.2945 58.0523 14.097 57.4461 14.6955C56.7492 15.405 55.8415 15.762 54.7292 15.762C53.6661 15.762 52.7584 15.399 52.0138 14.6835C51.2677 13.9575 50.8954 13.0665 50.8954 12C50.8954 10.9335 51.2677 10.0425 52.0138 9.32254C52.7584 8.60104 53.6661 8.23804 54.7292 8.23804C55.2584 8.23804 55.7631 8.34454 56.2446 8.54254C56.7246 8.74204 57.1154 9.01204 57.3984 9.34504L56.7554 9.97804C56.2615 9.40954 55.5892 9.12904 54.7292 9.12904C53.9538 9.12904 53.2815 9.39304 52.7108 9.92554C52.1461 10.4595 51.8631 11.151 51.8631 12C51.8631 12.849 52.1461 13.5465 52.7108 14.0805C53.2815 14.607 53.9538 14.877 54.7292 14.877C55.5523 14.877 56.2446 14.607 56.7908 14.0745C57.1508 13.722 57.3554 13.236 57.4092 12.615H54.7292V11.748H58.3046C58.3477 11.9355 58.36 12.117 58.36 12.2925Z" fill="white" stroke="white" stroke-width="0.16" stroke-miterlimit="10"/>
<path id="E" d="M64.0323 9.28651H60.6738V11.5665H63.7015V12.4335H60.6738V14.7135H64.0323V15.597H59.7231V8.40302H64.0323V9.28651Z" fill="white" stroke="white" stroke-width="0.16" stroke-miterlimit="10"/>
<path id="T" d="M68.0353 15.597H67.0846V9.28651H65.0246V8.40302H70.0969V9.28651H68.0353V15.597Z" fill="white" stroke="white" stroke-width="0.16" stroke-miterlimit="10"/>
<path id="I" d="M73.7677 15.597V8.40302H74.7169V15.597H73.7677Z" fill="white" stroke="white" stroke-width="0.16" stroke-miterlimit="10"/>
<path id="T_2" d="M78.9246 15.597H77.9815V9.28651H75.9138V8.40302H80.9922V9.28651H78.9246V15.597Z" fill="white" stroke="white" stroke-width="0.16" stroke-miterlimit="10"/>
<path id="O" d="M90.5954 14.6715C89.8677 15.399 88.9661 15.762 87.8907 15.762C86.8092 15.762 85.9077 15.399 85.18 14.6715C84.4538 13.9455 84.0923 13.0545 84.0923 12C84.0923 10.9455 84.4538 10.0545 85.18 9.32854C85.9077 8.60104 86.8092 8.23804 87.8907 8.23804C88.96 8.23804 89.8615 8.60104 90.5892 9.33454C91.3215 10.0665 91.6831 10.9515 91.6831 12C91.6831 13.0545 91.3215 13.9455 90.5954 14.6715ZM85.8831 14.0685C86.4307 14.607 87.0969 14.877 87.8907 14.877C88.6784 14.877 89.3507 14.607 89.8923 14.0685C90.4384 13.53 90.7154 12.8385 90.7154 12C90.7154 11.1615 90.4384 10.47 89.8923 9.93154C89.3507 9.39304 88.6784 9.12304 87.8907 9.12304C87.0969 9.12304 86.4307 9.39304 85.8831 9.93154C85.3369 10.47 85.06 11.1615 85.06 12C85.06 12.8385 85.3369 13.53 85.8831 14.0685Z" fill="white" stroke="white" stroke-width="0.16" stroke-miterlimit="10"/>
<path id="N" d="M93.0169 15.597V8.40302H94.1707L97.7584 13.998H97.8L97.7584 12.615V8.40302H98.7077V15.597H97.7169L93.96 9.72601H93.9184L93.96 11.115V15.597H93.0169Z" fill="white" stroke="white" stroke-width="0.16" stroke-miterlimit="10"/>
</g>
<g id="Google Play">
<path id="Google Play_2" d="M83.8584 26.103C80.9677 26.103 78.6061 28.248 78.6061 31.2075C78.6061 34.143 80.9677 36.3105 83.8584 36.3105C86.7554 36.3105 89.1169 34.143 89.1169 31.2075C89.1169 28.248 86.7554 26.103 83.8584 26.103ZM83.8584 34.3005C82.2723 34.3005 80.9077 33.024 80.9077 31.2075C80.9077 29.367 82.2723 28.113 83.8584 28.113C85.4446 28.113 86.8154 29.367 86.8154 31.2075C86.8154 33.024 85.4446 34.3005 83.8584 34.3005ZM72.3984 26.103C69.5015 26.103 67.1461 28.248 67.1461 31.2075C67.1461 34.143 69.5015 36.3105 72.3984 36.3105C75.2938 36.3105 77.6507 34.143 77.6507 31.2075C77.6507 28.248 75.2938 26.103 72.3984 26.103ZM72.3984 34.3005C70.8107 34.3005 69.4415 33.024 69.4415 31.2075C69.4415 29.367 70.8107 28.113 72.3984 28.113C73.9846 28.113 75.3492 29.367 75.3492 31.2075C75.3492 33.024 73.9846 34.3005 72.3984 34.3005ZM58.7615 27.6675V29.8365H64.0738C63.9184 31.0485 63.5031 31.9395 62.8661 32.5605C62.0907 33.3105 60.8831 34.143 58.7615 34.143C55.4923 34.143 52.9323 31.5705 52.9323 28.383C52.9323 25.1955 55.4923 22.623 58.7615 22.623C60.5292 22.623 61.8154 23.2965 62.7646 24.1695L64.3323 22.641C63.0046 21.405 61.2384 20.4555 58.7615 20.4555C54.2784 20.4555 50.5108 24.012 50.5108 28.383C50.5108 32.754 54.2784 36.3105 58.7615 36.3105C61.1846 36.3105 63.0046 35.5365 64.4354 34.0845C65.9015 32.655 66.3584 30.645 66.3584 29.022C66.3584 28.518 66.3154 28.0545 66.2384 27.6675H58.7615ZM114.525 29.349C114.092 28.2075 112.758 26.103 110.041 26.103C107.349 26.103 105.108 28.1715 105.108 31.2075C105.108 34.0665 107.326 36.3105 110.3 36.3105C112.705 36.3105 114.092 34.881 114.663 34.0485L112.878 32.889C112.283 33.738 111.472 34.3005 110.3 34.3005C109.135 34.3005 108.3 33.78 107.765 32.754L114.766 29.9295L114.525 29.349ZM107.386 31.0485C107.326 29.0805 108.954 28.0725 110.12 28.0725C111.034 28.0725 111.809 28.518 112.068 29.1555L107.386 31.0485ZM101.695 36H103.997V21H101.695V36ZM97.9261 27.24H97.8492C97.3323 26.643 96.3461 26.103 95.0969 26.103C92.4754 26.103 90.0784 28.347 90.0784 31.224C90.0784 34.0845 92.4754 36.3105 95.0969 36.3105C96.3461 36.3105 97.3323 35.766 97.8492 35.151H97.9261V35.883C97.9261 37.8345 96.8569 38.883 95.1323 38.883C93.7261 38.883 92.8538 37.893 92.4938 37.0605L90.4923 37.875C91.0692 39.228 92.5969 40.893 95.1323 40.893C97.8307 40.893 100.108 39.345 100.108 35.5785V26.4135H97.9261V27.24ZM95.2938 34.3005C93.7077 34.3005 92.38 33.006 92.38 31.224C92.38 29.4255 93.7077 28.113 95.2938 28.113C96.8569 28.113 98.0892 29.4255 98.0892 31.224C98.0892 33.006 96.8569 34.3005 95.2938 34.3005ZM125.3 21H119.795V36H122.091V30.3165H125.3C127.849 30.3165 130.349 28.518 130.349 25.6575C130.349 22.7985 127.843 21 125.3 21ZM125.36 28.23H122.091V23.0865H125.36C127.074 23.0865 128.052 24.474 128.052 25.6575C128.052 26.8185 127.074 28.23 125.36 28.23ZM139.549 26.0745C137.891 26.0745 136.166 26.7885 135.457 28.371L137.494 29.2035C137.932 28.371 138.738 28.101 139.591 28.101C140.781 28.101 141.989 28.7985 142.008 30.03V30.1875C141.592 29.9535 140.703 29.607 139.609 29.607C137.415 29.607 135.18 30.7845 135.18 32.982C135.18 34.992 136.977 36.2865 138.997 36.2865C140.541 36.2865 141.394 35.607 141.929 34.8165H142.008V35.976H144.225V30.222C144.225 27.5625 142.188 26.0745 139.549 26.0745ZM139.272 34.2945C138.521 34.2945 137.475 33.9315 137.475 33.024C137.475 31.863 138.78 31.4175 139.909 31.4175C140.92 31.4175 141.394 31.635 142.008 31.9215C141.828 33.3105 140.601 34.2945 139.272 34.2945ZM152.301 26.403L149.663 32.9055H149.585L146.857 26.403H144.381L148.48 35.49L146.141 40.5465H148.54L154.855 26.403H152.301ZM131.611 36H133.912V21H131.611V36Z" fill="white"/>
</g>
</g>
<defs>
<linearGradient id="paint0_linear_3014_62" x1="26.8304" y1="37.5483" x2="6.69796" y2="16.8997" gradientUnits="userSpaceOnUse">
<stop stop-color="#00A0FF"/>
<stop offset="0.0066" stop-color="#00A1FF"/>
<stop offset="0.2601" stop-color="#00BEFF"/>
<stop offset="0.5122" stop-color="#00D2FF"/>
<stop offset="0.7604" stop-color="#00DFFF"/>
<stop offset="1" stop-color="#00E3FF"/>
</linearGradient>
<linearGradient id="paint1_linear_3014_62" x1="41.6423" y1="23.9983" x2="11.8615" y2="23.9983" gradientUnits="userSpaceOnUse">
<stop stop-color="#FFE000"/>
<stop offset="0.4087" stop-color="#FFBD00"/>
<stop offset="0.7754" stop-color="#FFA500"/>
<stop offset="1" stop-color="#FF9C00"/>
</linearGradient>
<linearGradient id="paint2_linear_3014_62" x1="30.5563" y1="21.2447" x2="3.25507" y2="-6.75658" gradientUnits="userSpaceOnUse">
<stop stop-color="#FF3A44"/>
<stop offset="1" stop-color="#C31162"/>
</linearGradient>
<linearGradient id="paint3_linear_3014_62" x1="8.98126" y1="47.7886" x2="21.1725" y2="35.2849" gradientUnits="userSpaceOnUse">
<stop stop-color="#32A071"/>
<stop offset="0.0685" stop-color="#2DA771"/>
<stop offset="0.4762" stop-color="#15CF74"/>
<stop offset="0.8009" stop-color="#06E775"/>
<stop offset="1" stop-color="#00F076"/>
</linearGradient>
</defs>
</svg>
