<svg width="535" height="535" viewBox="0 0 535 535" fill="none" xmlns="http://www.w3.org/2000/svg">
<g opacity="0.5">
<circle opacity="0.05" cx="267.5" cy="267.5" r="267.5" fill="#6B46FF"/>
<circle opacity="0.1" cx="267.5" cy="267.5" r="210.5" fill="#6B46FF"/>
<circle opacity="0.2" cx="267.5" cy="267.5" r="135.5" fill="#6B46FF"/>
</g>
<g filter="url(#filter0_d_10_1338)">
<rect x="61" y="47" width="100" height="100" rx="10" fill="white"/>
</g>
<path d="M110.78 71.0146C97.6107 71.0146 98.4329 76.7479 98.4329 76.7479L98.4475 82.6877H111.014V84.471H93.4561C93.4561 84.471 85.0293 83.5116 85.0293 96.8511C85.0293 110.191 92.3845 109.718 92.3845 109.718H96.774V103.528C96.774 103.528 96.5373 96.1437 104.012 96.1437H116.476C116.476 96.1437 123.479 96.2573 123.479 89.3492V77.9272C123.479 77.9272 124.542 71.0146 110.78 71.0146ZM103.85 75.0091C104.147 75.0088 104.441 75.0673 104.716 75.1813C104.99 75.2953 105.239 75.4624 105.449 75.6732C105.659 75.884 105.826 76.1344 105.939 76.4098C106.053 76.6853 106.111 76.9806 106.111 77.2787C106.111 77.5768 106.053 77.8721 105.939 78.1476C105.826 78.4231 105.659 78.6734 105.449 78.8842C105.239 79.095 104.99 79.2622 104.716 79.3761C104.441 79.4901 104.147 79.5486 103.85 79.5484C103.553 79.5486 103.259 79.4901 102.985 79.3761C102.71 79.2622 102.461 79.095 102.251 78.8842C102.041 78.6734 101.875 78.4231 101.761 78.1476C101.647 77.8721 101.589 77.5768 101.589 77.2787C101.589 76.9806 101.647 76.6853 101.761 76.4098C101.875 76.1344 102.041 75.884 102.251 75.6732C102.461 75.4624 102.71 75.2953 102.985 75.1813C103.259 75.0673 103.553 75.0088 103.85 75.0091Z" fill="url(#paint0_linear_10_1338)"/>
<path d="M111.154 122.822C124.323 122.822 123.501 117.089 123.501 117.089L123.486 111.149H110.919V109.366H128.477C128.477 109.366 136.904 110.325 136.904 96.9852C136.904 83.6454 129.549 84.1185 129.549 84.1185H125.159V90.3086C125.159 90.3086 125.396 97.6926 117.921 97.6926H105.457C105.457 97.6926 98.4546 97.579 98.4546 104.487V115.91C98.4546 115.91 97.3912 122.822 111.154 122.822H111.154ZM118.083 118.828C117.786 118.828 117.492 118.77 117.218 118.656C116.943 118.542 116.694 118.374 116.484 118.164C116.274 117.953 116.107 117.703 115.994 117.427C115.88 117.152 115.822 116.856 115.822 116.558C115.822 116.26 115.88 115.965 115.994 115.689C116.107 115.414 116.274 115.163 116.484 114.953C116.694 114.742 116.943 114.575 117.218 114.461C117.492 114.347 117.786 114.288 118.083 114.288C118.38 114.288 118.674 114.347 118.949 114.461C119.223 114.575 119.472 114.742 119.682 114.953C119.892 115.163 120.059 115.414 120.172 115.689C120.286 115.965 120.344 116.26 120.344 116.558C120.344 116.856 120.286 117.151 120.172 117.427C120.059 117.702 119.892 117.953 119.682 118.163C119.472 118.374 119.223 118.541 118.949 118.655C118.674 118.769 118.38 118.828 118.083 118.828V118.828Z" fill="url(#paint1_linear_10_1338)"/>
<g filter="url(#filter1_d_10_1338)">
<rect x="374" y="50" width="100" height="100" rx="10" fill="white"/>
</g>
<path d="M400.976 119.493C400.976 119.901 400.83 120.255 400.536 120.553C400.242 120.85 399.886 121 399.468 121C399.059 121 398.712 120.85 398.427 120.553C398.142 120.255 398 119.901 398 119.493C398 119.073 398.142 118.719 398.427 118.425C398.712 118.131 399.059 117.985 399.468 117.985C399.886 117.985 400.242 118.133 400.536 118.431C400.83 118.729 400.976 119.084 400.976 119.493Z" fill="black"/>
<path d="M419.654 120.693H416.933L407.057 105.441C406.82 105.061 406.619 104.658 406.459 104.24H406.377C406.448 104.648 406.484 105.525 406.484 106.868V120.693H404.241V101.558H407.152L416.733 116.569C417.114 117.165 417.375 117.592 417.507 117.849H417.56C417.471 117.298 417.425 116.36 417.425 115.035V101.558H419.654V120.693H419.654Z" fill="black"/>
<path d="M434.033 120.693H423.891V101.558H433.593V103.585H426.132V109.951H433.046V111.979H426.132V118.664H434.033V120.693H434.033Z" fill="black"/>
<path d="M449.416 103.586H443.904V120.693H441.662V103.586H436.14V101.557H449.416V103.586H449.416Z" fill="black"/>
<path d="M415.918 83.1874C417.773 88.8598 418.476 98.979 423.9 98.979C424.313 98.979 424.73 98.9385 425.149 98.8588C420.218 97.7091 419.634 87.7001 416.625 82.5168C416.385 82.7357 416.149 82.9593 415.918 83.1874" fill="url(#paint2_linear_10_1338)"/>
<path d="M416.625 82.5169C419.634 87.7001 420.218 97.7092 425.149 98.8588C425.536 98.7878 425.925 98.6801 426.314 98.5443C421.888 96.376 420.664 86.6564 417.247 81.9773C417.036 82.1532 416.829 82.3332 416.625 82.5171" fill="url(#paint3_linear_10_1338)"/>
<path d="M420.96 79.4341C420.548 79.4341 420.13 79.4746 419.71 79.5543C418.613 79.7612 417.498 80.2338 416.374 80.9489C416.681 81.2519 416.973 81.5986 417.248 81.9771C418.391 81.0284 419.527 80.3275 420.658 79.9061C421.071 79.7516 421.497 79.6333 421.93 79.5525C421.613 79.4727 421.287 79.4329 420.96 79.4341Z" fill="#14559A"/>
<path d="M429.769 96.5454C430.24 96.1687 430.694 95.7707 431.13 95.3526C429.245 89.7065 428.57 79.4426 423.108 79.4426C422.717 79.4426 422.323 79.4791 421.93 79.5519C426.906 80.7894 427.543 91.6145 429.769 96.5454" fill="url(#paint4_linear_10_1338)"/>
<path d="M421.93 79.5521C421.613 79.4724 421.287 79.4327 420.96 79.4339L423.108 79.4418C422.717 79.4418 422.323 79.4782 421.93 79.5519" fill="#3092C4"/>
<path d="M429.673 97.7448C429.46 97.5412 429.257 97.3178 429.057 97.0793C428.139 97.7299 427.223 98.2233 426.314 98.5443C426.638 98.7038 426.982 98.8209 427.337 98.8928C427.624 98.9509 427.916 98.9798 428.208 98.9791C429.229 98.9791 430.036 98.8582 430.723 98.5287C430.345 98.3243 429.998 98.0592 429.673 97.7448Z" fill="#1969BC"/>
<path d="M420.658 79.907C425.114 82.2378 425.502 92.7934 429.058 97.0794C429.3 96.9084 429.537 96.7304 429.768 96.5454C427.542 91.6146 426.905 80.7887 421.931 79.552C421.497 79.6336 421.071 79.7524 420.658 79.907Z" fill="url(#paint5_linear_10_1338)"/>
<path d="M417.247 81.9773C420.664 86.6564 421.888 96.3758 426.314 98.5443C427.224 98.2233 428.139 97.7298 429.058 97.0793C425.502 92.7933 425.114 82.2378 420.658 79.907C419.526 80.3276 418.391 81.0285 417.247 81.9771" fill="url(#paint6_linear_10_1338)"/>
<path d="M413.732 83.0507C413.196 84.2617 412.649 85.8534 411.988 87.931C413.303 86.0778 414.614 84.4809 415.918 83.1876C415.739 82.6354 415.546 82.1264 415.338 81.6726C414.778 82.1028 414.242 82.5629 413.732 83.0509" fill="url(#paint7_linear_10_1338)"/>
<path d="M415.813 81.3232C415.653 81.4371 415.495 81.5536 415.338 81.6726C415.546 82.1262 415.738 82.6352 415.918 83.1873C416.149 82.9597 416.385 82.7361 416.625 82.5168C416.372 82.083 416.104 81.6825 415.813 81.3232Z" fill="#2B74B1"/>
<path d="M416.374 80.9492C416.184 81.0698 415.997 81.1945 415.813 81.3232C416.104 81.6825 416.372 82.083 416.625 82.5176C416.829 82.3329 417.037 82.1528 417.248 81.9772C416.973 81.5989 416.681 81.252 416.374 80.949" fill="#125A9E"/>
<path d="M446.771 79.0022C444.251 88.7225 438.987 96.5296 434.573 98.4979H434.565C434.484 98.5344 434.405 98.5676 434.326 98.5997C434.315 98.6064 434.305 98.6072 434.297 98.6111C434.274 98.6204 434.253 98.6277 434.229 98.637C434.218 98.6435 434.209 98.6457 434.199 98.6495C434.162 98.6629 434.125 98.674 434.089 98.6886C434.073 98.6953 434.058 98.6993 434.043 98.7046C434.025 98.7115 434.007 98.7174 433.988 98.7224C433.972 98.7289 433.954 98.7337 433.935 98.741C433.92 98.7475 433.903 98.7503 433.888 98.7568C433.856 98.7661 433.826 98.774 433.794 98.7851C433.781 98.7851 433.768 98.7924 433.754 98.7961C433.734 98.8025 433.712 98.8072 433.69 98.8133C433.676 98.8197 433.663 98.822 433.647 98.8252C433.625 98.8317 433.6 98.8378 433.578 98.843L433.493 98.8616C433.696 98.9362 433.909 98.9737 434.125 98.9726C438.31 98.9726 442.53 91.4725 449.512 79H446.77L446.771 79.0022Z" fill="url(#paint8_linear_10_1338)"/>
<path d="M411.079 79.8287C411.082 79.8287 411.085 79.8222 411.087 79.8222C411.09 79.8222 411.095 79.8222 411.097 79.8157H411.102C411.125 79.8077 411.147 79.7985 411.17 79.7898C411.176 79.7898 411.179 79.7898 411.183 79.7834C411.189 79.7834 411.195 79.7767 411.201 79.7759C411.225 79.768 411.25 79.7587 411.273 79.7502H411.277C411.333 79.7336 411.384 79.7129 411.438 79.6937C411.445 79.6937 411.453 79.6872 411.462 79.6872C411.484 79.6799 411.507 79.672 411.531 79.6668C411.541 79.6601 411.552 79.6601 411.562 79.6567C411.586 79.6496 411.609 79.6415 411.631 79.6362C411.642 79.6362 411.65 79.6295 411.658 79.6289C411.735 79.6077 411.811 79.5878 411.888 79.5694C411.899 79.5694 411.908 79.5627 411.919 79.5621C411.942 79.5557 411.963 79.552 411.987 79.5488C411.997 79.5423 412.008 79.5423 412.02 79.5389C412.042 79.5324 412.064 79.5316 412.088 79.5263H412.103C412.15 79.5168 412.197 79.5091 412.243 79.5004H412.271C412.294 79.4939 412.314 79.4931 412.336 79.4891C412.348 79.4891 412.361 79.4826 412.372 79.4826C412.393 79.4826 412.414 79.4759 412.434 79.4733C412.445 79.4733 412.456 79.4733 412.468 79.4666C412.517 79.4601 412.568 79.4575 412.619 79.4535C412.471 79.4386 412.322 79.4308 412.174 79.4302C407.461 79.4302 400.967 88.1752 398.042 99.5003H398.605C399.542 97.8309 400.382 96.2516 401.152 94.769C403.2 86.7473 407.373 81.2769 411.079 79.8275" fill="url(#paint9_linear_10_1338)"/>
<path d="M413.732 83.0509C414.242 82.5628 414.778 82.1027 415.338 81.6725C415.224 81.4193 415.096 81.1725 414.955 80.9333C414.524 81.4566 414.13 82.1469 413.732 83.0509Z" fill="#0D82CA"/>
<path d="M414.119 79.8951C414.427 80.1533 414.703 80.5083 414.955 80.934C415.035 80.8362 415.115 80.746 415.199 80.6616C414.849 80.3347 414.47 80.0665 414.06 79.8645C414.076 79.8736 414.093 79.8811 414.11 79.8884C414.11 79.8884 414.117 79.8949 414.119 79.8949" fill="#0D82CA"/>
<path d="M401.151 94.7698C405.449 86.4883 407.485 81.2469 411.079 79.8281C407.373 81.2785 403.2 86.749 401.151 94.7698" fill="url(#paint10_linear_10_1338)"/>
<path d="M415.198 80.6614C415.115 80.7466 415.035 80.836 414.955 80.9338C415.096 81.173 415.224 81.4197 415.338 81.6728C415.495 81.5538 415.653 81.4374 415.813 81.3236C415.624 81.0888 415.418 80.8675 415.198 80.6614Z" fill="#127BCA"/>
<path d="M403.102 99.4639C403.076 99.4706 403.049 99.4706 403.024 99.4732H403.01C402.987 99.4732 402.964 99.4799 402.943 99.4799H402.932C402.879 99.4864 402.826 99.4864 402.774 99.4904H402.758C407.108 99.3688 409.096 97.1909 410.083 94.0323C410.833 91.6377 411.448 89.6204 411.988 87.9277C410.166 90.4921 408.336 93.549 406.496 96.9734C405.609 98.6237 404.259 99.3131 403.102 99.4609" fill="url(#paint11_linear_10_1338)"/>
<path d="M403.102 99.4624C404.259 99.3151 405.609 98.6265 406.496 96.9749C408.336 93.5516 410.167 90.4939 411.987 87.9295C412.649 85.8509 413.196 84.26 413.732 83.0491C410.104 86.5024 406.462 92.2445 403.102 99.4608" fill="url(#paint12_linear_10_1338)"/>
<path d="M401.151 94.7703C400.382 96.2526 399.541 97.832 398.605 99.5016H400.245C400.452 97.908 400.755 96.3283 401.151 94.7711" fill="#05A1E6"/>
<path d="M412.468 79.4709C412.455 79.4709 412.445 79.4774 412.433 79.4774C412.413 79.484 412.393 79.484 412.372 79.4861C412.36 79.4861 412.348 79.4861 412.336 79.4927C412.313 79.4992 412.293 79.4998 412.271 79.5041C412.261 79.5041 412.251 79.5041 412.243 79.5106C412.196 79.5184 412.149 79.5271 412.103 79.535H412.087C412.063 79.5417 412.042 79.5452 412.019 79.5484C412.008 79.5549 411.996 79.5549 411.985 79.5575C411.963 79.5642 411.941 79.5668 411.919 79.5709C411.908 79.5773 411.899 79.5773 411.888 79.5779C411.811 79.5966 411.735 79.6164 411.658 79.6377C411.65 79.6377 411.641 79.6441 411.631 79.6456C411.608 79.652 411.586 79.6587 411.562 79.666C411.552 79.6727 411.54 79.6727 411.53 79.6753C411.507 79.6817 411.484 79.6885 411.461 79.6957C411.452 79.6957 411.445 79.7022 411.437 79.7022C411.384 79.7221 411.331 79.7421 411.277 79.7585C411.254 79.7658 411.229 79.7751 411.204 79.7838C411.194 79.7903 411.185 79.7919 411.174 79.7963C411.15 79.8036 411.127 79.8129 411.106 79.8214C411.097 79.8281 411.089 79.8287 411.083 79.8322C407.489 81.251 405.453 86.4921 401.155 94.7737C400.758 96.3309 400.456 97.9107 400.249 99.5044H400.479C401.127 99.5044 401.31 99.4977 402.056 99.4977H402.779C402.83 99.4912 402.883 99.4912 402.936 99.4869H402.947C402.969 99.4869 402.991 99.4805 403.013 99.4805H403.029C403.052 99.4805 403.08 99.474 403.106 99.4712C406.466 92.2548 410.108 86.5128 413.736 83.0594C414.135 82.1557 414.528 81.4653 414.959 80.9429C414.707 80.5175 414.431 80.1617 414.124 79.9034C414.124 79.9034 414.115 79.9034 414.115 79.8967C414.097 79.8896 414.081 79.8809 414.063 79.8724C414.046 79.8629 414.031 79.8556 414.013 79.8465C413.996 79.8394 413.979 79.8314 413.963 79.8227C413.942 79.816 413.924 79.8067 413.905 79.7982C413.889 79.7915 413.875 79.7848 413.86 79.7783C413.828 79.7659 413.796 79.7526 413.764 79.7385C413.75 79.732 413.737 79.7283 413.724 79.7233C413.7 79.7145 413.676 79.7051 413.653 79.6949C413.641 79.6883 413.628 79.6868 413.614 79.6822C413.581 79.6709 413.547 79.6589 413.516 79.6484H413.508C413.47 79.6358 413.433 79.6265 413.394 79.616C413.385 79.6093 413.377 79.6093 413.368 79.6079C413.334 79.5988 413.304 79.5897 413.272 79.581C413.264 79.581 413.256 79.5743 413.25 79.5743C413.171 79.554 413.091 79.5366 413.01 79.5221C413.002 79.5221 412.994 79.5154 412.986 79.5154C412.951 79.5086 412.917 79.5031 412.882 79.4988C412.874 79.4923 412.869 79.4923 412.862 79.4923C412.821 79.4861 412.78 79.4808 412.739 79.4763H412.717C412.684 79.4699 412.654 79.4693 412.623 79.4658C412.571 79.4723 412.521 79.4751 412.472 79.4798" fill="url(#paint13_linear_10_1338)"/>
<path d="M436.926 84.3833C436.099 87.0321 435.43 89.2172 434.847 91.0151C437.116 87.8929 439.351 83.9651 441.479 79.4326C438.997 80.2123 437.672 81.997 436.926 84.3833Z" fill="url(#paint14_linear_10_1338)"/>
<path d="M434.919 98.3323C434.803 98.3914 434.687 98.4475 434.573 98.4979C438.987 96.5296 444.251 88.7224 446.771 79.0022H446.261C440.47 89.3464 438.608 96.2713 434.919 98.3323Z" fill="url(#paint15_linear_10_1338)"/>
<path d="M432.037 97.4634C432.997 96.2913 433.779 94.2989 434.847 91.0151C433.615 92.7072 432.376 94.1614 431.135 95.3477C431.135 95.3542 431.135 95.3542 431.128 95.3582C431.399 96.1694 431.696 96.8853 432.035 97.4632" fill="#079AE1"/>
<path d="M432.037 97.4634C431.71 97.8621 431.364 98.1661 430.979 98.3912C430.895 98.4402 430.809 98.4863 430.723 98.5288C431.14 98.755 431.597 98.899 432.069 98.9532C432.142 98.9605 432.214 98.9672 432.289 98.9725H432.303C432.336 98.9725 432.372 98.9725 432.409 98.979H432.768C432.781 98.979 432.795 98.979 432.808 98.9725C432.834 98.9725 432.861 98.9725 432.887 98.9658H432.927C432.954 98.9658 432.984 98.9593 433.013 98.9565H433.019C433.028 98.9565 433.037 98.95 433.046 98.95C433.076 98.9433 433.108 98.9407 433.138 98.936H433.165C433.199 98.9296 433.234 98.9253 433.268 98.9188H433.285C433.354 98.9055 433.422 98.8925 433.491 98.8751C432.921 98.6666 432.445 98.1748 432.034 97.4745" fill="#1969BC"/>
<path d="M423.9 98.979C424.313 98.979 424.73 98.9385 425.149 98.8582C425.537 98.7879 425.925 98.68 426.314 98.5444C426.638 98.7038 426.982 98.8209 427.336 98.893C427.623 98.951 427.915 98.9798 428.208 98.979H423.9Z" fill="#1E5CB3"/>
<path d="M428.209 98.9791C429.229 98.9791 430.036 98.8583 430.722 98.5288C431.14 98.7551 431.597 98.8993 432.069 98.9536C432.142 98.9607 432.214 98.9674 432.289 98.9727H432.303C432.337 98.9727 432.372 98.9727 432.409 98.9793H432.532H428.206H428.209V98.9791Z" fill="#1E5CB3"/>
<path d="M432.535 98.9791H432.771C432.785 98.9791 432.798 98.9791 432.811 98.9727C432.837 98.9727 432.864 98.9727 432.892 98.966H432.931C432.958 98.966 432.988 98.9595 433.016 98.9569H433.023C433.032 98.9569 433.04 98.9504 433.049 98.9504C433.079 98.9437 433.111 98.9411 433.141 98.9362C433.151 98.9362 433.159 98.9362 433.169 98.9297C433.203 98.9233 433.238 98.9198 433.273 98.9133H433.29C433.359 98.9 433.427 98.8868 433.496 98.8696C433.698 98.9441 433.912 98.9817 434.127 98.9805L432.536 98.987L432.535 98.9791Z" fill="#1D60B5"/>
<path d="M431.131 95.3585V95.3518C430.696 95.7699 430.242 96.1678 429.77 96.5445C429.538 96.7292 429.301 96.9073 429.059 97.0785C429.258 97.3169 429.461 97.5403 429.675 97.7442C429.999 98.0585 430.346 98.3234 430.724 98.5279C430.811 98.4854 430.897 98.4392 430.98 98.3904C431.366 98.1654 431.712 97.8616 432.039 97.4626C431.7 96.8848 431.403 96.1689 431.132 95.3577" fill="#175FAB"/>
<path d="M444.643 79.0022H442.072C441.934 79.0089 441.799 79.0135 441.665 79.022C441.602 79.157 441.538 79.292 441.476 79.4278C439.348 83.9604 437.113 87.8881 434.844 91.0103C433.777 94.2939 432.994 96.2863 432.034 97.4584C432.444 98.1587 432.922 98.6511 433.49 98.8598C433.506 98.8531 433.52 98.8531 433.534 98.8497H433.544C433.554 98.8497 433.564 98.8432 433.575 98.8432C433.598 98.8365 433.623 98.8325 433.646 98.8254C433.661 98.8187 433.673 98.8181 433.688 98.8132C433.71 98.8068 433.732 98.8021 433.752 98.7968C433.766 98.7902 433.779 98.7881 433.792 98.7855C433.825 98.7748 433.855 98.7669 433.886 98.757C433.901 98.7505 433.917 98.7448 433.934 98.741C433.952 98.7345 433.97 98.7298 433.987 98.722C434.006 98.7153 434.025 98.7118 434.041 98.7047C434.056 98.6981 434.072 98.694 434.086 98.6882C434.123 98.6748 434.159 98.6637 434.197 98.6491C434.207 98.6491 434.217 98.6398 434.227 98.6378C434.25 98.6284 434.273 98.6212 434.295 98.6112C434.303 98.6046 434.313 98.604 434.324 98.6005C434.402 98.5681 434.482 98.5349 434.563 98.4987H434.571C434.688 98.4468 434.803 98.3916 434.916 98.3331C438.605 96.2721 440.468 89.3472 446.259 79.003H444.641L444.643 79.0022H444.643Z" fill="url(#paint16_linear_10_1338)"/>
<path d="M412.619 79.4569C412.628 79.4569 412.636 79.4569 412.645 79.4634C412.668 79.4634 412.69 79.4634 412.712 79.4706H412.735C412.775 79.4771 412.816 79.4808 412.857 79.4866C412.865 79.4866 412.871 79.4866 412.878 79.4931C412.912 79.4996 412.947 79.5053 412.981 79.5103C412.989 79.5103 412.999 79.517 413.007 79.517C413.087 79.5328 413.168 79.5494 413.246 79.5698C413.253 79.5698 413.261 79.5765 413.267 79.5765C413.3 79.5844 413.33 79.5943 413.363 79.6036C413.373 79.6036 413.381 79.6101 413.389 79.6117C413.428 79.6216 413.465 79.6316 413.503 79.6441C413.505 79.6441 413.507 79.6441 413.511 79.6506C413.544 79.6605 413.577 79.673 413.611 79.6844C413.624 79.6909 413.636 79.6937 413.649 79.6969C413.672 79.707 413.698 79.7168 413.72 79.7261C413.733 79.7261 413.746 79.7354 413.76 79.7402C413.791 79.754 413.823 79.7666 413.855 79.7797C413.871 79.7864 413.885 79.7939 413.901 79.7997C413.92 79.8091 413.938 79.8176 413.958 79.824C413.975 79.8321 413.993 79.8406 414.009 79.8479C414.026 79.8574 414.043 79.8645 414.059 79.8738C414.47 80.0758 414.848 80.3448 415.198 80.6711C415.324 80.5391 415.459 80.4165 415.602 80.3043C414.836 79.7611 413.969 79.4514 412.968 79.4514C412.852 79.4514 412.736 79.4581 412.619 79.4668" fill="#7DCBEC"/>
<path d="M415.198 80.6614C415.418 80.8675 415.624 81.0888 415.813 81.3236C415.997 81.1944 416.184 81.0696 416.374 80.9492C416.135 80.7093 415.877 80.4902 415.601 80.2944C415.458 80.4064 415.323 80.529 415.198 80.6612" fill="#5EC5ED"/>
<path d="M412.619 79.4565C412.736 79.4466 412.852 79.4423 412.968 79.4423C413.969 79.4423 414.836 79.752 415.602 80.2944C416.41 79.6569 417.386 79.4342 418.743 79.4342H412.173C412.325 79.4342 412.473 79.4433 412.619 79.4565Z" fill="url(#paint17_linear_10_1338)"/>
<path d="M418.743 79.4345C417.386 79.4345 416.41 79.6571 415.602 80.2947C415.877 80.4906 416.135 80.7096 416.373 80.9492C417.498 80.2341 418.612 79.7605 419.711 79.5537C420.123 79.4754 420.541 79.4355 420.96 79.4345H418.743Z" fill="url(#paint18_linear_10_1338)"/>
<path d="M434.847 91.0168C435.43 89.2175 436.098 87.033 436.927 84.3834C437.674 81.9961 438.995 80.2115 441.478 79.4327C441.543 79.2993 441.605 79.1619 441.669 79.0271C437.622 79.2696 435.731 81.3282 434.779 84.3767C433.115 89.699 432.106 93.1491 431.135 95.3476C432.375 94.1623 433.615 92.7071 434.847 91.0168Z" fill="url(#paint19_linear_10_1338)"/>
<g filter="url(#filter2_d_10_1338)">
<rect x="374" y="219" width="100" height="100" rx="10" fill="white"/>
</g>
<g clip-path="url(#clip0_10_1338)">
<path d="M416.467 284.836C416.467 284.836 414.314 286.123 417.999 286.558C422.463 287.082 424.745 287.007 429.665 286.05C429.665 286.05 430.959 286.883 432.765 287.605C421.736 292.463 407.804 287.324 416.467 284.836Z" fill="#5382A1"/>
<path d="M415.119 278.498C415.119 278.498 412.704 280.335 416.392 280.727C421.161 281.232 424.927 281.274 431.445 279.984C431.445 279.984 432.346 280.923 433.763 281.437C420.428 285.444 405.576 281.753 415.119 278.498Z" fill="#5382A1"/>
<path d="M426.481 267.745C429.198 270.96 425.767 273.854 425.767 273.854C425.767 273.854 432.667 270.193 429.498 265.609C426.538 261.335 424.268 259.21 436.556 251.887C436.556 251.887 417.268 256.837 426.481 267.745" fill="#E76F00"/>
<path d="M441.068 289.525C441.068 289.525 442.661 290.874 439.313 291.917C432.947 293.899 412.816 294.498 407.224 291.996C405.214 291.098 408.983 289.851 410.169 289.589C411.406 289.313 412.113 289.365 412.113 289.365C409.877 287.746 397.663 292.543 405.908 293.916C428.396 297.663 446.9 292.229 441.068 289.525Z" fill="#5382A1"/>
<path d="M417.502 271.93C417.502 271.93 407.262 274.429 413.876 275.337C416.668 275.721 422.235 275.634 427.42 275.188C431.658 274.821 435.913 274.039 435.913 274.039C435.913 274.039 434.419 274.697 433.338 275.456C422.939 278.266 402.852 276.958 408.635 274.084C413.525 271.654 417.502 271.93 417.502 271.93" fill="#5382A1"/>
<path d="M435.871 282.481C446.441 276.837 441.554 271.413 438.143 272.143C437.306 272.322 436.934 272.477 436.934 272.477C436.934 272.477 437.244 271.977 437.837 271.761C444.585 269.323 449.775 278.952 435.658 282.766C435.658 282.766 435.822 282.616 435.871 282.481Z" fill="#5382A1"/>
<path d="M429.498 240.062C429.498 240.062 435.352 246.08 423.946 255.333C414.799 262.756 421.86 266.989 423.942 271.824C418.603 266.874 414.684 262.517 417.313 258.461C421.171 252.507 431.86 249.621 429.498 240.062" fill="#E76F00"/>
<path d="M418.541 297.776C428.687 298.444 444.267 297.406 444.636 292.472C444.636 292.472 443.927 294.343 436.251 295.828C427.591 297.503 416.91 297.307 410.575 296.234C410.575 296.234 411.872 297.337 418.541 297.776" fill="#5382A1"/>
</g>
<g filter="url(#filter3_d_10_1338)">
<rect x="356" y="369" width="100" height="100" rx="10" fill="white"/>
</g>
<g clip-path="url(#clip1_10_1338)">
<path d="M383.018 403.033L405.535 395.123L428.658 402.893L424.914 432.266L405.535 442.848L386.459 432.407L383.018 403.033Z" fill="#E23237"/>
<path d="M428.658 402.893L405.535 395.123V442.848L424.914 432.284L428.658 402.893Z" fill="#B52E31"/>
<path d="M405.57 400.695L391.54 431.475L396.781 431.387L399.598 424.444H412.185L415.269 431.475L420.278 431.563L405.57 400.695ZM405.606 410.557L410.348 420.33H401.434L405.606 410.557Z" fill="white"/>
</g>
<g filter="url(#filter4_d_10_1338)">
<rect x="61" y="351" width="100" height="100" rx="10" fill="white"/>
</g>
<path d="M112.202 376.263C112.202 376.263 123.471 382.704 126.42 392.938C129.077 402.182 126.949 406.593 126.949 406.593C128.308 408.074 129.379 409.795 130.106 411.668C130.837 412.872 131.267 414.234 131.358 415.639C131.45 417.044 131.201 418.451 130.632 419.739C130.632 419.739 130.451 415.969 124.832 415.188C119.683 414.463 117.81 419.476 107.976 419.234C102.527 419.13 97.1855 417.695 92.4183 415.053C87.651 412.412 83.6023 408.644 80.625 404.079C85.4299 406.7 91.7248 410.769 99.5638 410.144C107.403 409.519 109.04 407.11 109.04 407.11C100.228 400.137 92.4286 391.973 85.8649 382.853C92.0274 388.01 107.292 398.272 106.937 398.011C101.353 392.555 96.2449 386.633 91.6667 380.31C91.6667 380.31 114.569 399.14 116.413 399.021C117.17 397.46 121.087 389.382 112.201 376.261L112.202 376.263Z" fill="url(#paint20_linear_10_1338)"/>
<g filter="url(#filter5_d_10_1338)">
<rect x="209" y="389" width="100" height="100" rx="10" fill="white"/>
</g>
<path d="M259 443.639C261.589 443.639 263.688 441.54 263.688 438.951C263.688 436.362 261.589 434.264 259 434.264C256.411 434.264 254.312 436.362 254.312 438.951C254.312 441.54 256.411 443.639 259 443.639Z" fill="#00D8FF"/>
<path d="M259 449.699C253.366 449.835 247.746 449.075 242.35 447.449C239.857 446.658 237.533 445.414 235.493 443.777C234.715 443.218 234.067 442.498 233.593 441.665C233.12 440.831 232.832 439.906 232.75 438.951C232.75 435.852 236.155 432.814 241.859 430.827C247.399 429.066 253.187 428.212 259 428.299C264.735 428.219 270.446 429.057 275.916 430.782C278.317 431.547 280.563 432.732 282.55 434.281C283.315 434.813 283.953 435.508 284.42 436.315C284.887 437.122 285.17 438.022 285.25 438.951C285.25 442.172 281.444 445.437 275.312 447.466C270.021 449.039 264.52 449.792 259 449.699ZM259 430.542C253.439 430.467 247.902 431.279 242.596 432.946C237.346 434.777 234.993 437.282 234.993 438.946C234.993 440.686 237.522 443.421 243.076 445.321C248.238 446.869 253.612 447.59 259 447.456C264.281 447.551 269.545 446.836 274.609 445.337C280.375 443.427 283 440.687 283 438.951C282.905 438.355 282.688 437.786 282.362 437.278C282.036 436.77 281.609 436.336 281.106 436.002C279.328 434.628 277.322 433.578 275.179 432.901C269.946 431.258 264.484 430.461 259 430.542Z" fill="#00D8FF"/>
<path d="M248.35 462.331C247.475 462.351 246.611 462.138 245.845 461.716C243.16 460.167 242.23 455.701 243.357 449.766C244.599 444.087 246.752 438.646 249.732 433.654C252.527 428.646 256.105 424.118 260.331 420.241C262.193 418.543 264.342 417.189 266.676 416.241C267.521 415.846 268.442 415.64 269.374 415.64C270.307 415.64 271.228 415.846 272.073 416.241C274.864 417.85 275.789 422.778 274.486 429.102C273.205 434.473 271.108 439.616 268.268 444.351C265.571 449.3 262.106 453.789 258.001 457.651C256.071 459.415 253.831 460.806 251.395 461.755C250.42 462.117 249.39 462.312 248.35 462.331ZM251.674 434.768C248.832 439.548 246.769 444.75 245.562 450.179C244.525 455.644 245.521 458.931 246.968 459.768C248.468 460.636 252.109 459.812 256.531 455.95C260.449 452.251 263.757 447.954 266.331 443.219C269.052 438.692 271.063 433.775 272.296 428.639C273.522 422.686 272.463 419.041 270.959 418.174C270.395 417.958 269.793 417.862 269.19 417.89C268.587 417.919 267.997 418.073 267.456 418.341C265.378 419.199 263.468 420.416 261.813 421.938C257.775 425.651 254.357 429.987 251.688 434.779L251.674 434.768Z" fill="#00D8FF"/>
<path d="M269.644 462.355C267.104 462.355 263.877 460.817 260.517 457.928C256.217 454.015 252.578 449.433 249.741 444.359C246.799 439.436 244.663 434.073 243.415 428.476C242.874 426.013 242.773 423.473 243.119 420.976C243.199 420.049 243.481 419.151 243.945 418.345C244.41 417.54 245.046 416.846 245.807 416.312C248.596 414.698 253.326 416.357 258.154 420.644C262.168 424.435 265.576 428.82 268.261 433.645C271.201 438.453 273.359 443.698 274.654 449.183C275.219 451.736 275.306 454.372 274.911 456.957C274.817 457.91 274.518 458.832 274.035 459.659C273.551 460.486 272.895 461.198 272.11 461.747C271.357 462.165 270.506 462.375 269.644 462.355ZM251.682 443.23C254.403 448.08 257.879 452.465 261.979 456.222C266.196 459.85 269.541 460.63 270.979 459.784C272.479 458.912 273.586 455.354 272.446 449.596C271.197 444.359 269.127 439.352 266.312 434.762C263.751 430.145 260.498 425.946 256.666 422.312C252.121 418.277 248.434 417.376 246.932 418.246C246.464 418.626 246.08 419.099 245.804 419.636C245.528 420.172 245.367 420.76 245.329 421.362C245.031 423.589 245.128 425.852 245.616 428.046C246.817 433.4 248.865 438.527 251.684 443.234L251.682 443.23Z" fill="#00D8FF"/>
<g filter="url(#filter6_d_10_1338)">
<rect x="74" y="197" width="100" height="100" rx="10" fill="white"/>
</g>
<g clip-path="url(#clip2_10_1338)">
<path d="M134.342 221.026C134.231 220.903 130.25 221.075 126.785 224.835C123.321 228.592 123.854 232.902 123.932 233.012C124.01 233.123 128.872 233.295 131.976 228.924C135.079 224.552 134.452 221.153 134.342 221.026ZM145.112 259.158C144.956 258.846 137.556 255.148 138.245 248.037C138.934 240.923 143.689 238.973 143.763 238.761C143.838 238.55 141.823 236.194 139.688 235.001C138.12 234.16 136.385 233.678 134.608 233.591C134.257 233.581 133.038 233.282 130.533 233.968C128.882 234.419 125.16 235.882 124.137 235.94C123.11 235.999 120.055 234.244 116.769 233.779C114.666 233.373 112.437 234.205 110.841 234.845C109.248 235.482 106.219 237.296 104.1 242.115C101.981 246.932 103.09 254.563 103.883 256.935C104.676 259.305 105.914 263.188 108.02 266.022C109.892 269.22 112.375 271.44 113.412 272.194C114.448 272.948 117.373 273.449 119.401 272.412C121.033 271.411 123.977 270.836 125.141 270.878C126.301 270.92 128.589 271.378 130.932 272.63C132.788 273.27 134.543 273.003 136.301 272.288C138.06 271.57 140.604 268.847 143.575 263.325C144.703 260.757 145.216 259.37 145.112 259.158Z" fill="black"/>
<path d="M134.342 221.026C134.231 220.903 130.25 221.075 126.785 224.835C123.321 228.592 123.854 232.902 123.932 233.012C124.01 233.123 128.872 233.295 131.976 228.924C135.079 224.552 134.452 221.153 134.342 221.026ZM145.112 259.158C144.956 258.846 137.556 255.148 138.245 248.037C138.934 240.923 143.689 238.973 143.763 238.761C143.838 238.55 141.823 236.194 139.688 235.001C138.12 234.16 136.385 233.678 134.608 233.591C134.257 233.581 133.038 233.282 130.533 233.968C128.882 234.419 125.16 235.882 124.137 235.94C123.11 235.999 120.055 234.244 116.769 233.779C114.666 233.373 112.437 234.205 110.841 234.845C109.248 235.482 106.219 237.296 104.1 242.115C101.981 246.932 103.09 254.563 103.883 256.935C104.676 259.305 105.914 263.188 108.02 266.022C109.892 269.22 112.375 271.44 113.412 272.194C114.448 272.948 117.373 273.449 119.401 272.412C121.033 271.411 123.977 270.836 125.141 270.878C126.301 270.92 128.589 271.378 130.932 272.63C132.788 273.27 134.543 273.003 136.301 272.288C138.06 271.57 140.604 268.847 143.575 263.325C144.703 260.757 145.216 259.37 145.112 259.158Z" fill="black"/>
</g>
<g filter="url(#filter7_d_10_1338)">
<rect x="213" y="240" width="100" height="100" rx="10" fill="white"/>
</g>
<path d="M247.25 297.272C247.25 297.991 246.965 298.679 246.457 299.187C245.949 299.695 245.26 299.981 244.542 299.981C243.823 299.981 243.135 299.695 242.627 299.187C242.119 298.679 241.833 297.991 241.833 297.272V285.085C241.833 284.367 242.119 283.678 242.627 283.17C243.135 282.662 243.823 282.376 244.542 282.376C245.26 282.376 245.949 282.662 246.457 283.17C246.965 283.678 247.25 284.367 247.25 285.085V297.272Z" fill="#3DDB85"/>
<path d="M285.167 297.272C285.167 297.991 284.881 298.679 284.373 299.187C283.866 299.695 283.177 299.981 282.458 299.981C281.74 299.981 281.051 299.695 280.543 299.187C280.035 298.679 279.75 297.991 279.75 297.272V285.085C279.75 284.367 280.035 283.678 280.543 283.17C281.051 282.662 281.74 282.376 282.458 282.376C283.177 282.376 283.866 282.662 284.373 283.17C284.881 283.678 285.167 284.367 285.167 285.085V297.272Z" fill="#3DDB85"/>
<path d="M260.792 312.167C260.792 312.885 260.506 313.574 259.998 314.082C259.491 314.59 258.802 314.875 258.083 314.875C257.365 314.875 256.676 314.59 256.168 314.082C255.66 313.574 255.375 312.885 255.375 312.167V299.979C255.375 299.261 255.66 298.572 256.168 298.064C256.676 297.556 257.365 297.271 258.083 297.271C258.802 297.271 259.491 297.556 259.998 298.064C260.506 298.572 260.792 299.261 260.792 299.979V312.167Z" fill="#3DDB85"/>
<path d="M271.625 312.167C271.625 312.885 271.34 313.574 270.832 314.082C270.324 314.59 269.635 314.875 268.917 314.875C268.198 314.875 267.51 314.59 267.002 314.082C266.494 313.574 266.208 312.885 266.208 312.167V299.979C266.208 299.261 266.494 298.572 267.002 298.064C267.51 297.556 268.198 297.271 268.917 297.271C269.635 297.271 270.324 297.556 270.832 298.064C271.34 298.572 271.625 299.261 271.625 299.979V312.167Z" fill="#3DDB85"/>
<path d="M249.958 282.376V302.688C249.958 303.406 250.244 304.095 250.752 304.603C251.26 305.111 251.948 305.396 252.667 305.396H274.333C275.052 305.396 275.741 305.111 276.248 304.603C276.756 304.095 277.042 303.406 277.042 302.688V282.376H249.958Z" fill="#3DDB85"/>
<path d="M263.5 268.833C255.375 268.833 250.426 273.769 249.958 279.667H277.042C276.573 273.769 271.625 268.833 263.5 268.833ZM258.083 276.414C257.724 276.414 257.38 276.271 257.126 276.017C256.872 275.763 256.729 275.419 256.729 275.06C256.729 274.701 256.872 274.356 257.126 274.102C257.38 273.848 257.724 273.706 258.083 273.706C258.443 273.706 258.787 273.848 259.041 274.102C259.295 274.356 259.438 274.701 259.438 275.06C259.438 275.419 259.295 275.763 259.041 276.017C258.787 276.271 258.443 276.414 258.083 276.414ZM268.917 276.414C268.558 276.414 268.213 276.271 267.959 276.017C267.705 275.763 267.563 275.419 267.563 275.06C267.563 274.701 267.705 274.356 267.959 274.102C268.213 273.848 268.558 273.706 268.917 273.706C269.276 273.706 269.62 273.848 269.874 274.102C270.128 274.356 270.271 274.701 270.271 275.06C270.271 275.419 270.128 275.763 269.874 276.017C269.62 276.271 269.276 276.414 268.917 276.414Z" fill="#3DDB85"/>
<path d="M271.625 267.479L269.369 270.863" stroke="#3DDB85" stroke-width="2" stroke-linecap="round"/>
<path d="M255.375 267.479L257.18 270.299" stroke="#3DDB85" stroke-width="2" stroke-linecap="round"/>
<g filter="url(#filter8_d_10_1338)">
<rect x="223" y="91" width="100" height="100" rx="10" fill="white"/>
</g>
<g clip-path="url(#clip3_10_1338)">
<g clip-path="url(#clip4_10_1338)">
<path d="M283 151H259V127H283L271 139L283 151Z" fill="black"/>
</g>
<path d="M273.099 117L249 142.344V165L273.065 140.893L297 117H273.099Z" fill="url(#paint21_linear_10_1338)"/>
<path d="M249 165L273.065 140.893L297 165H249Z" fill="url(#paint22_linear_10_1338)"/>
<path d="M249 117H273.099L249 142.344V117Z" fill="url(#paint23_linear_10_1338)"/>
</g>
<defs>
<filter id="filter0_d_10_1338" x="36" y="30" width="150" height="150" filterUnits="userSpaceOnUse" color-interpolation-filters="sRGB">
<feFlood flood-opacity="0" result="BackgroundImageFix"/>
<feColorMatrix in="SourceAlpha" type="matrix" values="0 0 0 0 0 0 0 0 0 0 0 0 0 0 0 0 0 0 127 0" result="hardAlpha"/>
<feOffset dy="8"/>
<feGaussianBlur stdDeviation="12.5"/>
<feComposite in2="hardAlpha" operator="out"/>
<feColorMatrix type="matrix" values="0 0 0 0 0.278431 0 0 0 0 0.329412 0 0 0 0 0.403922 0 0 0 0.08 0"/>
<feBlend mode="normal" in2="BackgroundImageFix" result="effect1_dropShadow_10_1338"/>
<feBlend mode="normal" in="SourceGraphic" in2="effect1_dropShadow_10_1338" result="shape"/>
</filter>
<filter id="filter1_d_10_1338" x="349" y="33" width="150" height="150" filterUnits="userSpaceOnUse" color-interpolation-filters="sRGB">
<feFlood flood-opacity="0" result="BackgroundImageFix"/>
<feColorMatrix in="SourceAlpha" type="matrix" values="0 0 0 0 0 0 0 0 0 0 0 0 0 0 0 0 0 0 127 0" result="hardAlpha"/>
<feOffset dy="8"/>
<feGaussianBlur stdDeviation="12.5"/>
<feComposite in2="hardAlpha" operator="out"/>
<feColorMatrix type="matrix" values="0 0 0 0 0.278431 0 0 0 0 0.329412 0 0 0 0 0.403922 0 0 0 0.08 0"/>
<feBlend mode="normal" in2="BackgroundImageFix" result="effect1_dropShadow_10_1338"/>
<feBlend mode="normal" in="SourceGraphic" in2="effect1_dropShadow_10_1338" result="shape"/>
</filter>
<filter id="filter2_d_10_1338" x="349" y="202" width="150" height="150" filterUnits="userSpaceOnUse" color-interpolation-filters="sRGB">
<feFlood flood-opacity="0" result="BackgroundImageFix"/>
<feColorMatrix in="SourceAlpha" type="matrix" values="0 0 0 0 0 0 0 0 0 0 0 0 0 0 0 0 0 0 127 0" result="hardAlpha"/>
<feOffset dy="8"/>
<feGaussianBlur stdDeviation="12.5"/>
<feComposite in2="hardAlpha" operator="out"/>
<feColorMatrix type="matrix" values="0 0 0 0 0.278431 0 0 0 0 0.329412 0 0 0 0 0.403922 0 0 0 0.08 0"/>
<feBlend mode="normal" in2="BackgroundImageFix" result="effect1_dropShadow_10_1338"/>
<feBlend mode="normal" in="SourceGraphic" in2="effect1_dropShadow_10_1338" result="shape"/>
</filter>
<filter id="filter3_d_10_1338" x="331" y="352" width="150" height="150" filterUnits="userSpaceOnUse" color-interpolation-filters="sRGB">
<feFlood flood-opacity="0" result="BackgroundImageFix"/>
<feColorMatrix in="SourceAlpha" type="matrix" values="0 0 0 0 0 0 0 0 0 0 0 0 0 0 0 0 0 0 127 0" result="hardAlpha"/>
<feOffset dy="8"/>
<feGaussianBlur stdDeviation="12.5"/>
<feComposite in2="hardAlpha" operator="out"/>
<feColorMatrix type="matrix" values="0 0 0 0 0.278431 0 0 0 0 0.329412 0 0 0 0 0.403922 0 0 0 0.08 0"/>
<feBlend mode="normal" in2="BackgroundImageFix" result="effect1_dropShadow_10_1338"/>
<feBlend mode="normal" in="SourceGraphic" in2="effect1_dropShadow_10_1338" result="shape"/>
</filter>
<filter id="filter4_d_10_1338" x="36" y="334" width="150" height="150" filterUnits="userSpaceOnUse" color-interpolation-filters="sRGB">
<feFlood flood-opacity="0" result="BackgroundImageFix"/>
<feColorMatrix in="SourceAlpha" type="matrix" values="0 0 0 0 0 0 0 0 0 0 0 0 0 0 0 0 0 0 127 0" result="hardAlpha"/>
<feOffset dy="8"/>
<feGaussianBlur stdDeviation="12.5"/>
<feComposite in2="hardAlpha" operator="out"/>
<feColorMatrix type="matrix" values="0 0 0 0 0.278431 0 0 0 0 0.329412 0 0 0 0 0.403922 0 0 0 0.08 0"/>
<feBlend mode="normal" in2="BackgroundImageFix" result="effect1_dropShadow_10_1338"/>
<feBlend mode="normal" in="SourceGraphic" in2="effect1_dropShadow_10_1338" result="shape"/>
</filter>
<filter id="filter5_d_10_1338" x="184" y="372" width="150" height="150" filterUnits="userSpaceOnUse" color-interpolation-filters="sRGB">
<feFlood flood-opacity="0" result="BackgroundImageFix"/>
<feColorMatrix in="SourceAlpha" type="matrix" values="0 0 0 0 0 0 0 0 0 0 0 0 0 0 0 0 0 0 127 0" result="hardAlpha"/>
<feOffset dy="8"/>
<feGaussianBlur stdDeviation="12.5"/>
<feComposite in2="hardAlpha" operator="out"/>
<feColorMatrix type="matrix" values="0 0 0 0 0.278431 0 0 0 0 0.329412 0 0 0 0 0.403922 0 0 0 0.08 0"/>
<feBlend mode="normal" in2="BackgroundImageFix" result="effect1_dropShadow_10_1338"/>
<feBlend mode="normal" in="SourceGraphic" in2="effect1_dropShadow_10_1338" result="shape"/>
</filter>
<filter id="filter6_d_10_1338" x="49" y="180" width="150" height="150" filterUnits="userSpaceOnUse" color-interpolation-filters="sRGB">
<feFlood flood-opacity="0" result="BackgroundImageFix"/>
<feColorMatrix in="SourceAlpha" type="matrix" values="0 0 0 0 0 0 0 0 0 0 0 0 0 0 0 0 0 0 127 0" result="hardAlpha"/>
<feOffset dy="8"/>
<feGaussianBlur stdDeviation="12.5"/>
<feComposite in2="hardAlpha" operator="out"/>
<feColorMatrix type="matrix" values="0 0 0 0 0.278431 0 0 0 0 0.329412 0 0 0 0 0.403922 0 0 0 0.08 0"/>
<feBlend mode="normal" in2="BackgroundImageFix" result="effect1_dropShadow_10_1338"/>
<feBlend mode="normal" in="SourceGraphic" in2="effect1_dropShadow_10_1338" result="shape"/>
</filter>
<filter id="filter7_d_10_1338" x="188" y="223" width="150" height="150" filterUnits="userSpaceOnUse" color-interpolation-filters="sRGB">
<feFlood flood-opacity="0" result="BackgroundImageFix"/>
<feColorMatrix in="SourceAlpha" type="matrix" values="0 0 0 0 0 0 0 0 0 0 0 0 0 0 0 0 0 0 127 0" result="hardAlpha"/>
<feOffset dy="8"/>
<feGaussianBlur stdDeviation="12.5"/>
<feComposite in2="hardAlpha" operator="out"/>
<feColorMatrix type="matrix" values="0 0 0 0 0.278431 0 0 0 0 0.329412 0 0 0 0 0.403922 0 0 0 0.08 0"/>
<feBlend mode="normal" in2="BackgroundImageFix" result="effect1_dropShadow_10_1338"/>
<feBlend mode="normal" in="SourceGraphic" in2="effect1_dropShadow_10_1338" result="shape"/>
</filter>
<filter id="filter8_d_10_1338" x="198" y="74" width="150" height="150" filterUnits="userSpaceOnUse" color-interpolation-filters="sRGB">
<feFlood flood-opacity="0" result="BackgroundImageFix"/>
<feColorMatrix in="SourceAlpha" type="matrix" values="0 0 0 0 0 0 0 0 0 0 0 0 0 0 0 0 0 0 127 0" result="hardAlpha"/>
<feOffset dy="8"/>
<feGaussianBlur stdDeviation="12.5"/>
<feComposite in2="hardAlpha" operator="out"/>
<feColorMatrix type="matrix" values="0 0 0 0 0.278431 0 0 0 0 0.329412 0 0 0 0 0.403922 0 0 0 0.08 0"/>
<feBlend mode="normal" in2="BackgroundImageFix" result="effect1_dropShadow_10_1338"/>
<feBlend mode="normal" in="SourceGraphic" in2="effect1_dropShadow_10_1338" result="shape"/>
</filter>
<linearGradient id="paint0_linear_10_1338" x1="90.0144" y1="75.6744" x2="115.821" y2="101.124" gradientUnits="userSpaceOnUse">
<stop stop-color="#387EB8"/>
<stop offset="1" stop-color="#366994"/>
</linearGradient>
<linearGradient id="paint1_linear_10_1338" x1="105.794" y1="92.0816" x2="133.503" y2="118.173" gradientUnits="userSpaceOnUse">
<stop stop-color="#FFE052"/>
<stop offset="1" stop-color="#FFC331"/>
</linearGradient>
<linearGradient id="paint2_linear_10_1338" x1="420.533" y1="79.3041" x2="420.533" y2="103.856" gradientUnits="userSpaceOnUse">
<stop stop-color="#0994DC"/>
<stop offset="0.35001" stop-color="#66CEF5"/>
<stop offset="0.84616" stop-color="#127BCA"/>
<stop offset="1" stop-color="#127BCA"/>
</linearGradient>
<linearGradient id="paint3_linear_10_1338" x1="421.469" y1="78.6827" x2="421.469" y2="103.86" gradientUnits="userSpaceOnUse">
<stop stop-color="#0E76BC"/>
<stop offset="0.36" stop-color="#36AEE8"/>
<stop offset="0.84616" stop-color="#00ADEF"/>
<stop offset="1" stop-color="#00ADEF"/>
</linearGradient>
<linearGradient id="paint4_linear_10_1338" x1="426.53" y1="98.4133" x2="426.53" y2="78.3799" gradientUnits="userSpaceOnUse">
<stop stop-color="#1C63B7"/>
<stop offset="0.5" stop-color="#33BDF2"/>
<stop offset="1" stop-color="#33BDF2" stop-opacity="0.42"/>
</linearGradient>
<linearGradient id="paint5_linear_10_1338" x1="425.213" y1="76.1315" x2="425.213" y2="102.272" gradientUnits="userSpaceOnUse">
<stop stop-color="#166AB8"/>
<stop offset="0.39999" stop-color="#36AEE8"/>
<stop offset="0.84616" stop-color="#0798DD"/>
<stop offset="1" stop-color="#0798DD"/>
</linearGradient>
<linearGradient id="paint6_linear_10_1338" x1="423.152" y1="76.2688" x2="423.152" y2="104.066" gradientUnits="userSpaceOnUse">
<stop stop-color="#124379"/>
<stop offset="0.39" stop-color="#1487CB"/>
<stop offset="0.78023" stop-color="#165197"/>
<stop offset="1" stop-color="#165197"/>
</linearGradient>
<linearGradient id="paint7_linear_10_1338" x1="411.988" y1="84.8019" x2="415.918" y2="84.8019" gradientUnits="userSpaceOnUse">
<stop stop-color="#33BDF2" stop-opacity="0.698"/>
<stop offset="1" stop-color="#1DACD8"/>
</linearGradient>
<linearGradient id="paint8_linear_10_1338" x1="441.504" y1="97.9112" x2="441.504" y2="78.3958" gradientUnits="userSpaceOnUse">
<stop stop-color="#136AB4"/>
<stop offset="0.6" stop-color="#59CAF5" stop-opacity="0.549"/>
<stop offset="1" stop-color="#59CAF5" stop-opacity="0.235"/>
</linearGradient>
<linearGradient id="paint9_linear_10_1338" x1="398.042" y1="89.4652" x2="412.619" y2="89.4652" gradientUnits="userSpaceOnUse">
<stop stop-color="#05A1E6" stop-opacity="0.247"/>
<stop offset="1" stop-color="#05A1E6"/>
</linearGradient>
<linearGradient id="paint10_linear_10_1338" x1="406.115" y1="98.4028" x2="406.115" y2="78.4205" gradientUnits="userSpaceOnUse">
<stop stop-color="#318ED5"/>
<stop offset="1" stop-color="#38A7E4"/>
</linearGradient>
<linearGradient id="paint11_linear_10_1338" x1="407.373" y1="98.4729" x2="407.373" y2="79.0493" gradientUnits="userSpaceOnUse">
<stop stop-color="#05A1E6"/>
<stop offset="1" stop-color="#05A1E6" stop-opacity="0.549"/>
</linearGradient>
<linearGradient id="paint12_linear_10_1338" x1="408.417" y1="99.4641" x2="408.417" y2="83.0507" gradientUnits="userSpaceOnUse">
<stop stop-color="#1959A6"/>
<stop offset="0.5" stop-color="#05A1E6"/>
<stop offset="0.91759" stop-color="#7EC5EA"/>
<stop offset="1" stop-color="#7EC5EA"/>
</linearGradient>
<linearGradient id="paint13_linear_10_1338" x1="409.046" y1="98.4159" x2="403.482" y2="81.4128" gradientUnits="userSpaceOnUse">
<stop stop-color="#165096"/>
<stop offset="1" stop-color="#0D82CA"/>
</linearGradient>
<linearGradient id="paint14_linear_10_1338" x1="438.163" y1="88.3509" x2="438.163" y2="79.0505" gradientUnits="userSpaceOnUse">
<stop stop-color="#05A1E6"/>
<stop offset="0.87363" stop-color="#0495D6"/>
<stop offset="1" stop-color="#0495D6"/>
</linearGradient>
<linearGradient id="paint15_linear_10_1338" x1="442.534" y1="78.191" x2="433.866" y2="97.4366" gradientUnits="userSpaceOnUse">
<stop stop-color="#38A7E4" stop-opacity="0.329"/>
<stop offset="0.96153" stop-color="#0E88D3"/>
<stop offset="1" stop-color="#0E88D3"/>
</linearGradient>
<linearGradient id="paint16_linear_10_1338" x1="439.149" y1="78.9434" x2="439.149" y2="99.2335" gradientUnits="userSpaceOnUse">
<stop stop-color="#168CD4"/>
<stop offset="0.5" stop-color="#1C87CC"/>
<stop offset="1" stop-color="#154B8D"/>
</linearGradient>
<linearGradient id="paint17_linear_10_1338" x1="413.269" y1="78.5262" x2="413.357" y2="80.6546" gradientUnits="userSpaceOnUse">
<stop stop-color="#97D6EE"/>
<stop offset="0.70329" stop-color="#55C1EA"/>
<stop offset="1" stop-color="#55C1EA"/>
</linearGradient>
<linearGradient id="paint18_linear_10_1338" x1="415.971" y1="80.8538" x2="416.368" y2="78.5997" gradientUnits="userSpaceOnUse">
<stop stop-color="#7ACCEC"/>
<stop offset="1" stop-color="#3FB7ED"/>
</linearGradient>
<linearGradient id="paint19_linear_10_1338" x1="436.402" y1="80.0656" x2="436.402" y2="99.9109" gradientUnits="userSpaceOnUse">
<stop stop-color="#1DA7E7"/>
<stop offset="1" stop-color="#37ABE7" stop-opacity="0"/>
</linearGradient>
<linearGradient id="paint20_linear_10_1338" x1="106.797" y1="393.663" x2="105.839" y2="419.761" gradientUnits="userSpaceOnUse">
<stop stop-color="#F88535"/>
<stop offset="1" stop-color="#FD2221"/>
</linearGradient>
<linearGradient id="paint21_linear_10_1338" x1="240.919" y1="161.131" x2="285.585" y2="116.464" gradientUnits="userSpaceOnUse">
<stop offset="0.108" stop-color="#C757BC"/>
<stop offset="0.173" stop-color="#CD5CA9"/>
<stop offset="0.492" stop-color="#E8744F"/>
<stop offset="0.716" stop-color="#F88316"/>
<stop offset="0.823" stop-color="#FF8900"/>
</linearGradient>
<linearGradient id="paint22_linear_10_1338" x1="264.319" y1="173.66" x2="286.09" y2="151.889" gradientUnits="userSpaceOnUse">
<stop offset="0.296" stop-color="#00AFFF"/>
<stop offset="0.694" stop-color="#5282FF"/>
<stop offset="1" stop-color="#945DFF"/>
</linearGradient>
<linearGradient id="paint23_linear_10_1338" x1="212.827" y1="991.38" x2="1219.54" y2="34.0621" gradientUnits="userSpaceOnUse">
<stop offset="0.296" stop-color="#00AFFF"/>
<stop offset="0.694" stop-color="#5282FF"/>
<stop offset="1" stop-color="#945DFF"/>
</linearGradient>
<clipPath id="clip0_10_1338">
<rect width="41.76" height="58" fill="white" transform="translate(403 240)"/>
</clipPath>
<clipPath id="clip1_10_1338">
<rect width="45.8182" height="48" fill="white" transform="translate(383 395)"/>
</clipPath>
<clipPath id="clip2_10_1338">
<rect width="52" height="52" fill="white" transform="translate(98 221)"/>
</clipPath>
<clipPath id="clip3_10_1338">
<rect width="47.9999" height="48" fill="white" transform="translate(249 117)"/>
</clipPath>
<clipPath id="clip4_10_1338">
<rect width="24" height="24" fill="white" transform="translate(259 127)"/>
</clipPath>
</defs>
</svg>
