<svg width="351" height="610" viewBox="0 0 351 610" fill="none" xmlns="http://www.w3.org/2000/svg">
<g opacity="0.2" filter="url(#filter0_f_2_658)">
<rect x="53" y="53" width="245" height="504" rx="19" fill="#667085"/>
</g>
<path d="M280.913 165.667H281.773C282.249 165.667 282.634 166.053 282.634 166.53V222.955C282.634 223.431 282.249 223.818 281.773 223.818H280.913V165.667Z" fill="#303030"/>
<path d="M41.72 235.909L40.8596 235.909C40.3844 235.909 39.9992 235.522 39.9992 235.045L39.9992 201.076C39.9992 200.599 40.3845 200.212 40.8596 200.212L41.7201 200.212L41.72 235.909Z" fill="#303030"/>
<path d="M41.72 188.697L40.8596 188.697C40.3844 188.697 39.9992 188.31 39.9992 187.833L39.9992 153.864C39.9992 153.387 40.3845 153 40.8596 153L41.7201 153L41.72 188.697Z" fill="#333333"/>
<path d="M41.72 135.727L40.8596 135.727C40.3844 135.727 39.9992 135.341 39.9992 134.864L39.9992 118.167C39.9992 117.69 40.3844 117.303 40.8596 117.303L41.72 117.303L41.72 135.727Z" fill="#333333"/>
<path fill-rule="evenodd" clip-rule="evenodd" d="M43.5449 64.8595C41.72 70.4968 41.72 77.4625 41.72 91.394L41.72 480.606C41.72 494.537 41.72 501.503 43.5449 507.141C47.2329 518.534 56.1321 527.466 67.4828 531.168C73.099 533 80.0387 533 93.918 533H228.715C242.594 533 249.534 533 255.15 531.168C266.501 527.466 275.4 518.534 279.088 507.141C280.913 501.503 280.913 494.537 280.913 480.606V91.3939C280.913 77.4625 280.913 70.4968 279.088 64.8595C275.4 53.4662 266.501 44.5336 255.15 40.8317C249.534 39 242.594 39 228.715 39L93.918 39C80.0387 39 73.099 39 67.4828 40.8317C56.1321 44.5336 47.2329 53.4662 43.5449 64.8595ZM102.522 53.1061V55.697L102.563 55.6957L102.522 55.9848C102.522 62.8215 108.044 68.3636 114.855 68.3636L207.779 68.3636C214.59 68.3636 220.111 62.8215 220.111 55.9848L220.07 55.6957L220.111 55.697V53.1061C220.111 51.3572 221.523 49.9394 223.266 49.9394L230.654 49.9394C242.204 49.9394 247.979 49.9394 252.585 51.6863C259.824 54.4321 265.539 60.1682 268.274 67.4348C270.015 72.0578 270.015 77.8545 270.015 89.4479V482.552C270.015 494.146 270.015 499.942 268.274 504.565C265.539 511.832 259.824 517.568 252.585 520.314C247.979 522.061 242.204 522.061 230.654 522.061H91.9795C80.4295 522.061 74.6545 522.061 70.0487 520.314C62.8094 517.568 57.0947 511.832 54.3592 504.565C52.6188 499.942 52.6188 494.146 52.6188 482.552L52.6188 89.4479C52.6188 77.8545 52.6188 72.0578 54.3592 67.4348C57.0947 60.1682 62.8094 54.4321 70.0487 51.6863C74.6545 49.9394 80.4295 49.9394 91.9795 49.9394L99.3677 49.9394C101.11 49.9394 102.522 51.3572 102.522 53.1061Z" fill="#333333"/>
<path fill-rule="evenodd" clip-rule="evenodd" d="M228.945 40.1516L93.6888 40.1516C79.9784 40.1516 73.2593 40.1587 67.8376 41.9269C56.8362 45.5149 48.2108 54.1726 44.6362 65.2154C42.8746 70.6574 42.8676 77.4018 42.8676 91.1637L42.8676 480.836C42.8676 494.598 42.8746 501.343 44.6362 506.785C48.2108 517.827 56.8362 526.485 67.8376 530.073C73.2593 531.841 79.9784 531.849 93.6889 531.849H228.945C242.655 531.849 249.374 531.841 254.796 530.073C265.797 526.485 274.423 517.827 277.997 506.785C279.759 501.343 279.766 494.598 279.766 480.836V91.1637C279.766 77.4018 279.759 70.6574 277.997 65.2154C274.423 54.1726 265.797 45.5149 254.796 41.9269C249.374 40.1587 242.655 40.1516 228.945 40.1516ZM44.0907 65.0375C42.294 70.5881 42.294 77.4466 42.294 91.1637L42.294 480.836C42.294 494.553 42.294 501.412 44.0907 506.963C47.722 518.181 56.4843 526.976 67.6604 530.621C73.1902 532.424 80.0231 532.424 93.6889 532.424H228.945C242.61 532.424 249.443 532.424 254.973 530.621C266.149 526.976 274.911 518.181 278.543 506.963C280.339 501.412 280.339 494.553 280.339 480.836V91.1637C280.339 77.4466 280.339 70.5881 278.543 65.0375C274.911 53.8194 266.149 45.0243 254.973 41.3793C249.443 39.5758 242.61 39.5758 228.945 39.5758L93.6888 39.5758C80.0231 39.5758 73.1902 39.5758 67.6604 41.3793C56.4843 45.0243 47.722 53.8194 44.0907 65.0375Z" fill="#303030"/>
<path d="M51 72H271V502C271 513.598 261.598 523 250 523H72C60.402 523 51 513.598 51 502V72Z" fill="#6B46FF"/>
<path d="M75.888 274.816C75.776 274.64 75.672 274.4 75.576 274.096C75.48 273.792 75.432 273.472 75.432 273.136C75.432 272.512 75.568 272.064 75.84 271.792C76.128 271.52 76.496 271.384 76.944 271.384H87.408C87.52 271.56 87.624 271.8 87.72 272.104C87.816 272.408 87.864 272.728 87.864 273.064C87.864 273.688 87.72 274.136 87.432 274.408C87.16 274.68 86.8 274.816 86.352 274.816H83.688V285.904C83.512 285.952 83.232 286 82.848 286.048C82.48 286.096 82.112 286.12 81.744 286.12C81.376 286.12 81.048 286.088 80.76 286.024C80.488 285.976 80.256 285.88 80.064 285.736C79.872 285.592 79.728 285.392 79.632 285.136C79.536 284.88 79.488 284.544 79.488 284.128V274.816H75.888ZM88.9746 274.504C89.1346 274.456 89.3826 274.408 89.7186 274.36C90.0706 274.312 90.4306 274.288 90.7986 274.288C91.1506 274.288 91.4626 274.312 91.7346 274.36C92.0226 274.408 92.2626 274.504 92.4546 274.648C92.6466 274.792 92.7906 274.992 92.8866 275.248C92.9986 275.488 93.0546 275.808 93.0546 276.208V281.368C93.0546 282.024 93.2146 282.496 93.5346 282.784C93.8546 283.056 94.3186 283.192 94.9266 283.192C95.2946 283.192 95.5906 283.16 95.8146 283.096C96.0546 283.032 96.2386 282.968 96.3666 282.904V274.504C96.5266 274.456 96.7746 274.408 97.1106 274.36C97.4626 274.312 97.8226 274.288 98.1906 274.288C98.5426 274.288 98.8546 274.312 99.1266 274.36C99.4146 274.408 99.6546 274.504 99.8466 274.648C100.039 274.792 100.183 274.992 100.279 275.248C100.391 275.488 100.447 275.808 100.447 276.208V283.504C100.447 284.304 100.111 284.904 99.4386 285.304C98.8786 285.656 98.2066 285.92 97.4226 286.096C96.6546 286.288 95.8146 286.384 94.9026 286.384C94.0386 286.384 93.2386 286.288 92.5026 286.096C91.7826 285.904 91.1586 285.608 90.6306 285.208C90.1026 284.808 89.6946 284.296 89.4066 283.672C89.1186 283.032 88.9746 282.264 88.9746 281.368V274.504ZM107.023 281.992C107.023 282.408 107.151 282.704 107.407 282.88C107.679 283.056 108.055 283.144 108.535 283.144C108.775 283.144 109.023 283.128 109.279 283.096C109.535 283.048 109.759 282.992 109.951 282.928C110.095 283.104 110.215 283.304 110.311 283.528C110.423 283.736 110.479 283.992 110.479 284.296C110.479 284.904 110.247 285.4 109.783 285.784C109.335 286.168 108.535 286.36 107.383 286.36C105.975 286.36 104.887 286.04 104.119 285.4C103.367 284.76 102.991 283.72 102.991 282.28V272.008C103.167 271.96 103.415 271.912 103.735 271.864C104.071 271.8 104.423 271.768 104.791 271.768C105.495 271.768 106.039 271.896 106.423 272.152C106.823 272.392 107.023 272.912 107.023 273.712V275.248H110.167C110.263 275.424 110.351 275.648 110.431 275.92C110.527 276.176 110.575 276.464 110.575 276.784C110.575 277.344 110.447 277.752 110.191 278.008C109.951 278.248 109.623 278.368 109.207 278.368H107.023V281.992ZM124.484 280.168C124.484 281.16 124.332 282.048 124.028 282.832C123.724 283.6 123.292 284.248 122.732 284.776C122.188 285.304 121.532 285.704 120.764 285.976C119.996 286.248 119.14 286.384 118.196 286.384C117.252 286.384 116.396 286.24 115.628 285.952C114.86 285.664 114.196 285.256 113.636 284.728C113.092 284.184 112.668 283.528 112.364 282.76C112.06 281.992 111.908 281.128 111.908 280.168C111.908 279.224 112.06 278.368 112.364 277.6C112.668 276.832 113.092 276.184 113.636 275.656C114.196 275.112 114.86 274.696 115.628 274.408C116.396 274.12 117.252 273.976 118.196 273.976C119.14 273.976 119.996 274.128 120.764 274.432C121.532 274.72 122.188 275.136 122.732 275.68C123.292 276.208 123.724 276.856 124.028 277.624C124.332 278.392 124.484 279.24 124.484 280.168ZM116.084 280.168C116.084 281.144 116.268 281.896 116.636 282.424C117.02 282.936 117.548 283.192 118.22 283.192C118.892 283.192 119.404 282.928 119.756 282.4C120.124 281.872 120.308 281.128 120.308 280.168C120.308 279.208 120.124 278.472 119.756 277.96C119.388 277.432 118.868 277.168 118.196 277.168C117.524 277.168 117.004 277.432 116.636 277.96C116.268 278.472 116.084 279.208 116.084 280.168ZM130.555 285.976C130.395 286.024 130.139 286.072 129.787 286.12C129.451 286.168 129.099 286.192 128.731 286.192C128.379 286.192 128.059 286.168 127.771 286.12C127.499 286.072 127.267 285.976 127.075 285.832C126.883 285.688 126.731 285.496 126.619 285.256C126.523 285 126.475 284.672 126.475 284.272V277.072C126.475 276.704 126.539 276.392 126.667 276.136C126.811 275.864 127.011 275.624 127.267 275.416C127.523 275.208 127.835 275.024 128.203 274.864C128.587 274.688 128.995 274.536 129.427 274.408C129.859 274.28 130.307 274.184 130.771 274.12C131.235 274.04 131.699 274 132.163 274C132.931 274 133.539 274.152 133.987 274.456C134.435 274.744 134.659 275.224 134.659 275.896C134.659 276.12 134.627 276.344 134.563 276.568C134.499 276.776 134.419 276.968 134.323 277.144C133.987 277.144 133.643 277.16 133.291 277.192C132.939 277.224 132.595 277.272 132.259 277.336C131.923 277.4 131.603 277.472 131.299 277.552C131.011 277.616 130.763 277.696 130.555 277.792V285.976ZM136.246 271.096C136.246 270.488 136.446 269.976 136.846 269.56C137.262 269.144 137.806 268.936 138.478 268.936C139.15 268.936 139.686 269.144 140.086 269.56C140.502 269.976 140.71 270.488 140.71 271.096C140.71 271.704 140.502 272.216 140.086 272.632C139.686 273.048 139.15 273.256 138.478 273.256C137.806 273.256 137.262 273.048 136.846 272.632C136.446 272.216 136.246 271.704 136.246 271.096ZM140.518 285.976C140.342 286.008 140.078 286.048 139.726 286.096C139.39 286.16 139.046 286.192 138.694 286.192C138.342 286.192 138.022 286.168 137.734 286.12C137.462 286.072 137.23 285.976 137.038 285.832C136.846 285.688 136.694 285.496 136.582 285.256C136.486 285 136.438 284.672 136.438 284.272V274.504C136.614 274.472 136.87 274.432 137.206 274.384C137.558 274.32 137.91 274.288 138.262 274.288C138.614 274.288 138.926 274.312 139.198 274.36C139.486 274.408 139.726 274.504 139.918 274.648C140.11 274.792 140.254 274.992 140.35 275.248C140.462 275.488 140.518 275.808 140.518 276.208V285.976ZM148.107 283.408C148.379 283.408 148.675 283.384 148.995 283.336C149.331 283.272 149.579 283.192 149.739 283.096V281.176L148.011 281.32C147.563 281.352 147.195 281.448 146.907 281.608C146.619 281.768 146.475 282.008 146.475 282.328C146.475 282.648 146.595 282.912 146.835 283.12C147.091 283.312 147.515 283.408 148.107 283.408ZM147.915 273.976C148.779 273.976 149.563 274.064 150.267 274.24C150.987 274.416 151.595 274.688 152.091 275.056C152.603 275.408 152.995 275.864 153.267 276.424C153.539 276.968 153.675 277.616 153.675 278.368V283.744C153.675 284.16 153.555 284.504 153.315 284.776C153.091 285.032 152.819 285.256 152.499 285.448C151.459 286.072 149.995 286.384 148.107 286.384C147.259 286.384 146.491 286.304 145.803 286.144C145.131 285.984 144.547 285.744 144.051 285.424C143.571 285.104 143.195 284.696 142.923 284.2C142.667 283.704 142.539 283.128 142.539 282.472C142.539 281.368 142.867 280.52 143.523 279.928C144.179 279.336 145.195 278.968 146.571 278.824L149.715 278.488V278.32C149.715 277.856 149.507 277.528 149.091 277.336C148.691 277.128 148.107 277.024 147.339 277.024C146.731 277.024 146.139 277.088 145.563 277.216C144.987 277.344 144.467 277.504 144.003 277.696C143.795 277.552 143.619 277.336 143.475 277.048C143.331 276.744 143.259 276.432 143.259 276.112C143.259 275.696 143.355 275.368 143.547 275.128C143.755 274.872 144.067 274.656 144.483 274.48C144.947 274.304 145.491 274.176 146.115 274.096C146.755 274.016 147.355 273.976 147.915 273.976ZM160.322 285.976C160.146 286.008 159.882 286.048 159.53 286.096C159.194 286.16 158.85 286.192 158.498 286.192C158.146 286.192 157.826 286.168 157.538 286.12C157.266 286.072 157.034 285.976 156.842 285.832C156.65 285.688 156.498 285.496 156.386 285.256C156.29 285 156.242 284.672 156.242 284.272V270.352C156.418 270.32 156.674 270.28 157.01 270.232C157.362 270.168 157.714 270.136 158.066 270.136C158.418 270.136 158.73 270.16 159.002 270.208C159.29 270.256 159.53 270.352 159.722 270.496C159.914 270.64 160.058 270.84 160.154 271.096C160.266 271.336 160.322 271.656 160.322 272.056V285.976ZM172.736 282.52C172.736 283.736 172.28 284.688 171.368 285.376C170.456 286.064 169.112 286.408 167.336 286.408C166.664 286.408 166.04 286.36 165.464 286.264C164.888 286.168 164.392 286.024 163.976 285.832C163.576 285.624 163.256 285.368 163.016 285.064C162.792 284.76 162.68 284.4 162.68 283.984C162.68 283.6 162.76 283.28 162.92 283.024C163.08 282.752 163.272 282.528 163.496 282.352C163.96 282.608 164.488 282.84 165.08 283.048C165.688 283.24 166.384 283.336 167.168 283.336C167.664 283.336 168.04 283.264 168.296 283.12C168.568 282.976 168.704 282.784 168.704 282.544C168.704 282.32 168.608 282.144 168.416 282.016C168.224 281.888 167.904 281.784 167.456 281.704L166.736 281.56C165.344 281.288 164.304 280.864 163.616 280.288C162.944 279.696 162.608 278.856 162.608 277.768C162.608 277.176 162.736 276.64 162.992 276.16C163.248 275.68 163.608 275.28 164.072 274.96C164.536 274.64 165.088 274.392 165.728 274.216C166.384 274.04 167.104 273.952 167.888 273.952C168.48 273.952 169.032 274 169.544 274.096C170.072 274.176 170.528 274.304 170.912 274.48C171.296 274.656 171.6 274.888 171.824 275.176C172.048 275.448 172.16 275.776 172.16 276.16C172.16 276.528 172.088 276.848 171.944 277.12C171.816 277.376 171.648 277.592 171.44 277.768C171.312 277.688 171.12 277.608 170.864 277.528C170.608 277.432 170.328 277.352 170.024 277.288C169.72 277.208 169.408 277.144 169.088 277.096C168.784 277.048 168.504 277.024 168.248 277.024C167.72 277.024 167.312 277.088 167.024 277.216C166.736 277.328 166.592 277.512 166.592 277.768C166.592 277.944 166.672 278.088 166.832 278.2C166.992 278.312 167.296 278.416 167.744 278.512L168.488 278.68C170.024 279.032 171.112 279.52 171.752 280.144C172.408 280.752 172.736 281.544 172.736 282.52ZM190.05 271.456C190.162 271.632 190.258 271.872 190.338 272.176C190.434 272.464 190.482 272.768 190.482 273.088C190.482 273.712 190.346 274.16 190.074 274.432C189.818 274.688 189.466 274.816 189.018 274.816H183.978V277.528H189.234C189.362 277.704 189.466 277.936 189.546 278.224C189.642 278.512 189.69 278.816 189.69 279.136C189.69 279.744 189.554 280.184 189.282 280.456C189.026 280.712 188.674 280.84 188.226 280.84H184.026V285.904C183.85 285.952 183.57 286 183.186 286.048C182.818 286.096 182.45 286.12 182.082 286.12C181.714 286.12 181.386 286.088 181.098 286.024C180.826 285.976 180.594 285.88 180.402 285.736C180.21 285.592 180.066 285.392 179.97 285.136C179.874 284.88 179.826 284.544 179.826 284.128V273.688C179.826 273 180.026 272.456 180.426 272.056C180.826 271.656 181.37 271.456 182.058 271.456H190.05ZM195.875 285.976C195.715 286.024 195.459 286.072 195.107 286.12C194.771 286.168 194.419 286.192 194.051 286.192C193.699 286.192 193.379 286.168 193.091 286.12C192.819 286.072 192.587 285.976 192.395 285.832C192.203 285.688 192.051 285.496 191.939 285.256C191.843 285 191.795 284.672 191.795 284.272V277.072C191.795 276.704 191.859 276.392 191.987 276.136C192.131 275.864 192.331 275.624 192.587 275.416C192.843 275.208 193.155 275.024 193.523 274.864C193.907 274.688 194.315 274.536 194.747 274.408C195.179 274.28 195.627 274.184 196.091 274.12C196.555 274.04 197.019 274 197.483 274C198.251 274 198.859 274.152 199.307 274.456C199.755 274.744 199.979 275.224 199.979 275.896C199.979 276.12 199.947 276.344 199.883 276.568C199.819 276.776 199.739 276.968 199.643 277.144C199.307 277.144 198.963 277.16 198.611 277.192C198.259 277.224 197.915 277.272 197.579 277.336C197.243 277.4 196.923 277.472 196.619 277.552C196.331 277.616 196.083 277.696 195.875 277.792V285.976ZM207.385 286.384C206.441 286.384 205.561 286.256 204.745 286C203.945 285.728 203.241 285.328 202.633 284.8C202.041 284.272 201.569 283.608 201.217 282.808C200.881 282.008 200.713 281.072 200.713 280C200.713 278.944 200.881 278.04 201.217 277.288C201.569 276.52 202.025 275.896 202.585 275.416C203.145 274.92 203.785 274.56 204.505 274.336C205.225 274.096 205.961 273.976 206.713 273.976C207.561 273.976 208.329 274.104 209.017 274.36C209.721 274.616 210.321 274.968 210.817 275.416C211.329 275.864 211.721 276.4 211.993 277.024C212.281 277.648 212.425 278.328 212.425 279.064C212.425 279.608 212.273 280.024 211.969 280.312C211.665 280.6 211.241 280.784 210.697 280.864L204.769 281.752C204.945 282.28 205.305 282.68 205.849 282.952C206.393 283.208 207.017 283.336 207.721 283.336C208.377 283.336 208.993 283.256 209.569 283.096C210.161 282.92 210.641 282.72 211.009 282.496C211.265 282.656 211.481 282.88 211.657 283.168C211.833 283.456 211.921 283.76 211.921 284.08C211.921 284.8 211.585 285.336 210.913 285.688C210.401 285.96 209.825 286.144 209.185 286.24C208.545 286.336 207.945 286.384 207.385 286.384ZM206.713 276.952C206.329 276.952 205.993 277.016 205.705 277.144C205.433 277.272 205.209 277.44 205.033 277.648C204.857 277.84 204.721 278.064 204.625 278.32C204.545 278.56 204.497 278.808 204.481 279.064L208.585 278.392C208.537 278.072 208.361 277.752 208.057 277.432C207.753 277.112 207.305 276.952 206.713 276.952ZM219.381 283.408C219.653 283.408 219.949 283.384 220.269 283.336C220.605 283.272 220.853 283.192 221.013 283.096V281.176L219.285 281.32C218.837 281.352 218.469 281.448 218.181 281.608C217.893 281.768 217.749 282.008 217.749 282.328C217.749 282.648 217.869 282.912 218.109 283.12C218.365 283.312 218.789 283.408 219.381 283.408ZM219.189 273.976C220.053 273.976 220.837 274.064 221.541 274.24C222.261 274.416 222.869 274.688 223.365 275.056C223.877 275.408 224.269 275.864 224.541 276.424C224.813 276.968 224.949 277.616 224.949 278.368V283.744C224.949 284.16 224.829 284.504 224.589 284.776C224.365 285.032 224.093 285.256 223.773 285.448C222.733 286.072 221.269 286.384 219.381 286.384C218.533 286.384 217.765 286.304 217.077 286.144C216.405 285.984 215.821 285.744 215.325 285.424C214.845 285.104 214.469 284.696 214.197 284.2C213.941 283.704 213.813 283.128 213.813 282.472C213.813 281.368 214.141 280.52 214.797 279.928C215.453 279.336 216.469 278.968 217.845 278.824L220.989 278.488V278.32C220.989 277.856 220.781 277.528 220.365 277.336C219.965 277.128 219.381 277.024 218.613 277.024C218.005 277.024 217.413 277.088 216.837 277.216C216.261 277.344 215.741 277.504 215.277 277.696C215.069 277.552 214.893 277.336 214.749 277.048C214.605 276.744 214.533 276.432 214.533 276.112C214.533 275.696 214.629 275.368 214.821 275.128C215.029 274.872 215.341 274.656 215.757 274.48C216.221 274.304 216.765 274.176 217.389 274.096C218.029 274.016 218.629 273.976 219.189 273.976ZM238.843 283.888C238.763 284.64 238.539 285.216 238.171 285.616C237.819 286.016 237.299 286.216 236.611 286.216C236.099 286.216 235.643 286.096 235.243 285.856C234.843 285.6 234.411 285.176 233.947 284.584L231.571 281.608V285.976C231.395 286.008 231.131 286.048 230.779 286.096C230.443 286.16 230.099 286.192 229.747 286.192C229.395 286.192 229.075 286.168 228.787 286.12C228.515 286.072 228.283 285.976 228.091 285.832C227.899 285.688 227.747 285.496 227.635 285.256C227.539 285 227.491 284.672 227.491 284.272V270.376C227.667 270.328 227.923 270.28 228.259 270.232C228.611 270.168 228.963 270.136 229.315 270.136C229.667 270.136 229.979 270.16 230.251 270.208C230.539 270.256 230.779 270.352 230.971 270.496C231.163 270.64 231.307 270.84 231.403 271.096C231.515 271.336 231.571 271.656 231.571 272.056V278.392L235.699 274.168C236.531 274.168 237.195 274.352 237.691 274.72C238.203 275.088 238.459 275.552 238.459 276.112C238.459 276.352 238.419 276.576 238.339 276.784C238.259 276.976 238.131 277.176 237.955 277.384C237.795 277.592 237.579 277.816 237.307 278.056C237.051 278.28 236.747 278.544 236.395 278.848L235.003 280.048L238.843 283.888Z" fill="white"/>
<path d="M205.352 299.704C205.352 299.256 205.491 298.883 205.768 298.584C206.045 298.285 206.424 298.136 206.904 298.136C207.384 298.136 207.763 298.285 208.04 298.584C208.317 298.883 208.456 299.256 208.456 299.704C208.456 300.152 208.317 300.525 208.04 300.824C207.763 301.123 207.384 301.272 206.904 301.272C206.424 301.272 206.045 301.123 205.768 300.824C205.491 300.525 205.352 300.152 205.352 299.704ZM213.872 295.128C213.606 295.128 213.35 295.171 213.104 295.256C212.87 295.341 212.662 295.469 212.48 295.64C212.31 295.8 212.171 296.003 212.064 296.248C211.958 296.493 211.904 296.781 211.904 297.112C211.904 297.773 212.091 298.269 212.464 298.6C212.848 298.931 213.312 299.096 213.856 299.096C214.176 299.096 214.454 299.059 214.688 298.984C214.923 298.909 215.131 298.829 215.312 298.744C215.526 298.893 215.686 299.059 215.792 299.24C215.899 299.411 215.952 299.619 215.952 299.864C215.952 300.301 215.744 300.643 215.328 300.888C214.912 301.123 214.336 301.24 213.6 301.24C212.928 301.24 212.32 301.144 211.776 300.952C211.232 300.749 210.763 300.472 210.368 300.12C209.984 299.757 209.686 299.325 209.472 298.824C209.259 298.323 209.152 297.768 209.152 297.16C209.152 296.456 209.264 295.843 209.488 295.32C209.723 294.787 210.038 294.349 210.432 294.008C210.827 293.667 211.28 293.411 211.792 293.24C212.315 293.069 212.864 292.984 213.44 292.984C214.208 292.984 214.8 293.123 215.216 293.4C215.632 293.677 215.84 294.035 215.84 294.472C215.84 294.675 215.792 294.867 215.696 295.048C215.6 295.219 215.488 295.368 215.36 295.496C215.179 295.411 214.96 295.331 214.704 295.256C214.448 295.171 214.171 295.128 213.872 295.128ZM225.13 297.112C225.13 297.773 225.029 298.365 224.826 298.888C224.623 299.4 224.335 299.832 223.962 300.184C223.599 300.536 223.162 300.803 222.65 300.984C222.138 301.165 221.567 301.256 220.938 301.256C220.309 301.256 219.738 301.16 219.226 300.968C218.714 300.776 218.271 300.504 217.898 300.152C217.535 299.789 217.253 299.352 217.05 298.84C216.847 298.328 216.746 297.752 216.746 297.112C216.746 296.483 216.847 295.912 217.05 295.4C217.253 294.888 217.535 294.456 217.898 294.104C218.271 293.741 218.714 293.464 219.226 293.272C219.738 293.08 220.309 292.984 220.938 292.984C221.567 292.984 222.138 293.085 222.65 293.288C223.162 293.48 223.599 293.757 223.962 294.12C224.335 294.472 224.623 294.904 224.826 295.416C225.029 295.928 225.13 296.493 225.13 297.112ZM219.53 297.112C219.53 297.763 219.653 298.264 219.898 298.616C220.154 298.957 220.506 299.128 220.954 299.128C221.402 299.128 221.743 298.952 221.978 298.6C222.223 298.248 222.346 297.752 222.346 297.112C222.346 296.472 222.223 295.981 221.978 295.64C221.733 295.288 221.386 295.112 220.938 295.112C220.49 295.112 220.143 295.288 219.898 295.64C219.653 295.981 219.53 296.472 219.53 297.112ZM230.185 292.984C230.622 292.984 231.049 293.048 231.465 293.176C231.892 293.293 232.26 293.475 232.569 293.72C232.889 293.507 233.246 293.331 233.641 293.192C234.046 293.053 234.532 292.984 235.097 292.984C235.502 292.984 235.897 293.037 236.281 293.144C236.676 293.251 237.022 293.421 237.321 293.656C237.63 293.88 237.876 294.184 238.057 294.568C238.238 294.941 238.329 295.4 238.329 295.944V300.984C238.222 301.016 238.052 301.048 237.817 301.08C237.593 301.112 237.358 301.128 237.113 301.128C236.878 301.128 236.665 301.112 236.473 301.08C236.292 301.048 236.137 300.984 236.009 300.888C235.881 300.792 235.78 300.664 235.705 300.504C235.641 300.333 235.609 300.115 235.609 299.848V296.024C235.609 295.704 235.518 295.475 235.337 295.336C235.156 295.187 234.91 295.112 234.601 295.112C234.452 295.112 234.292 295.149 234.121 295.224C233.95 295.288 233.822 295.357 233.737 295.432C233.748 295.475 233.753 295.517 233.753 295.56C233.753 295.592 233.753 295.624 233.753 295.656V300.984C233.636 301.016 233.46 301.048 233.225 301.08C233.001 301.112 232.772 301.128 232.537 301.128C232.302 301.128 232.089 301.112 231.897 301.08C231.716 301.048 231.561 300.984 231.433 300.888C231.305 300.792 231.204 300.664 231.129 300.504C231.065 300.333 231.033 300.115 231.033 299.848V296.024C231.033 295.704 230.932 295.475 230.729 295.336C230.537 295.187 230.302 295.112 230.025 295.112C229.833 295.112 229.668 295.144 229.529 295.208C229.39 295.261 229.273 295.315 229.177 295.368V300.984C229.07 301.016 228.9 301.048 228.665 301.08C228.441 301.112 228.206 301.128 227.961 301.128C227.726 301.128 227.513 301.112 227.321 301.08C227.14 301.048 226.985 300.984 226.857 300.888C226.729 300.792 226.628 300.664 226.553 300.504C226.489 300.333 226.457 300.115 226.457 299.848V295.016C226.457 294.728 226.516 294.499 226.633 294.328C226.761 294.157 226.932 293.997 227.145 293.848C227.508 293.592 227.956 293.384 228.489 293.224C229.033 293.064 229.598 292.984 230.185 292.984Z" fill="white"/>
<path fill-rule="evenodd" clip-rule="evenodd" d="M46.2741 65.7491C44.5896 70.9528 44.5896 77.3827 44.5896 90.2424L44.5896 481.758C44.5896 494.617 44.5896 501.047 46.2741 506.251C49.6784 516.768 57.893 525.013 68.3706 528.43C73.5548 530.121 79.9607 530.121 92.7723 530.121H229.864C242.675 530.121 249.081 530.121 254.265 528.43C264.743 525.013 272.957 516.768 276.362 506.251C278.046 501.047 278.046 494.617 278.046 481.758V90.2424C278.046 77.3827 278.046 70.9528 276.362 65.7491C272.957 55.2322 264.743 46.9867 254.265 43.5696C249.081 41.8788 242.675 41.8788 229.864 41.8788L92.7723 41.8788C79.9607 41.8788 73.5548 41.8788 68.3706 43.5696C57.893 46.9867 49.6784 55.2322 46.2741 65.7491ZM102.523 53.1061V55.697L102.564 55.6957L102.523 55.9848C102.523 62.8214 108.045 68.3636 114.856 68.3636L207.779 68.3636C214.59 68.3636 220.112 62.8214 220.112 55.9848L220.071 55.6957L220.112 55.697V53.1061C220.112 51.3572 221.524 49.9394 223.267 49.9394L230.655 49.9394C242.205 49.9394 247.98 49.9394 252.586 51.6863C259.825 54.4321 265.54 60.1682 268.275 67.4347C270.015 72.0578 270.015 77.8545 270.015 89.4479V482.552C270.015 494.145 270.015 499.942 268.275 504.565C265.54 511.832 259.825 517.568 252.586 520.314C247.98 522.061 242.205 522.061 230.655 522.061H91.9803C80.4304 522.061 74.6554 522.061 70.0496 520.314C62.8102 517.568 57.0956 511.832 54.3601 504.565C52.6197 499.942 52.6197 494.145 52.6197 482.552L52.6197 89.4478C52.6197 77.8545 52.6197 72.0578 54.3601 67.4347C57.0956 60.1682 62.8102 54.4321 70.0496 51.6863C74.6554 49.9394 80.4304 49.9394 91.9804 49.9394L99.3686 49.9394C101.111 49.9394 102.523 51.3572 102.523 53.1061Z" fill="#121515"/>
<path opacity="0.35" d="M247.724 62.7018C247.724 61.5051 248.694 60.5351 249.891 60.5351H257.405C258.602 60.5351 259.572 61.5051 259.572 62.7018V63.9298C259.572 65.1264 258.602 66.0965 257.405 66.0965H249.891C248.694 66.0965 247.724 65.1264 247.724 63.9298V62.7018Z" stroke="black"/>
<path opacity="0.4" d="M260.656 62.1579V64.4737C261.126 64.2776 261.432 63.8213 261.432 63.3158C261.432 62.8103 261.126 62.354 260.656 62.1579Z" fill="black"/>
<path d="M248.392 62.5263C248.392 61.7899 248.989 61.193 249.725 61.193H257.571C258.307 61.193 258.904 61.7899 258.904 62.5263V64.1053C258.904 64.8417 258.307 65.4386 257.571 65.4386H249.725C248.989 65.4386 248.392 64.8417 248.392 64.1053V62.5263Z" fill="black"/>
<path fill-rule="evenodd" clip-rule="evenodd" d="M239.825 61.352C241.119 61.3521 242.364 61.845 243.302 62.729C243.372 62.7972 243.485 62.7963 243.555 62.727L244.23 62.0516C244.265 62.0164 244.285 61.9688 244.284 61.9193C244.284 61.8697 244.264 61.8223 244.228 61.7876C241.766 59.4489 237.883 59.4489 235.421 61.7876C235.386 61.8223 235.366 61.8697 235.365 61.9192C235.365 61.9688 235.384 62.0164 235.42 62.0516L236.095 62.727C236.164 62.7964 236.277 62.7973 236.348 62.729C237.286 61.845 238.531 61.352 239.825 61.352ZM239.825 63.5495C240.536 63.5495 241.222 63.8115 241.749 64.2846C241.82 64.3517 241.932 64.3503 242.002 64.2813L242.676 63.6059C242.712 63.5704 242.731 63.5224 242.731 63.4724C242.73 63.4225 242.71 63.3748 242.673 63.3401C241.068 61.8601 238.583 61.8601 236.978 63.3401C236.942 63.3748 236.921 63.4225 236.921 63.4725C236.92 63.5224 236.94 63.5705 236.975 63.6059L237.65 64.2813C237.719 64.3503 237.831 64.3517 237.903 64.2846C238.429 63.8118 239.114 63.5498 239.825 63.5495ZM241.176 65.028C241.177 65.0781 241.157 65.1264 241.121 65.1615L239.954 66.3285C239.92 66.3628 239.874 66.3821 239.825 66.3821C239.776 66.3821 239.73 66.3628 239.695 66.3285L238.529 65.1615C238.493 65.1264 238.473 65.0781 238.474 65.028C238.475 64.9779 238.497 64.9305 238.534 64.8969C239.279 64.2723 240.37 64.2723 241.115 64.8969C241.153 64.9305 241.175 64.978 241.176 65.028Z" fill="black"/>
<path fill-rule="evenodd" clip-rule="evenodd" d="M231.845 60.2281H231.261C230.939 60.2281 230.677 60.4873 230.677 60.807V65.8246C230.677 66.1443 230.939 66.4035 231.261 66.4035H231.845C232.168 66.4035 232.429 66.1443 232.429 65.8246V60.807C232.429 60.4873 232.168 60.2281 231.845 60.2281ZM228.536 61.579H229.12C229.443 61.579 229.704 61.8382 229.704 62.1579V65.8246C229.704 66.1443 229.443 66.4035 229.12 66.4035H228.536C228.213 66.4035 227.952 66.1443 227.952 65.8246V62.1579C227.952 61.8382 228.213 61.579 228.536 61.579ZM226.395 62.9298H225.811C225.488 62.9298 225.227 63.189 225.227 63.5088V65.8246C225.227 66.1443 225.488 66.4035 225.811 66.4035H226.395C226.717 66.4035 226.979 66.1443 226.979 65.8246V63.5088C226.979 63.189 226.717 62.9298 226.395 62.9298ZM223.669 64.0877H223.085C222.763 64.0877 222.501 64.3469 222.501 64.6667V65.8246C222.501 66.1443 222.763 66.4035 223.085 66.4035H223.669C223.992 66.4035 224.253 66.1443 224.253 65.8246V64.6667C224.253 64.3469 223.992 64.0877 223.669 64.0877Z" fill="black"/>
<path d="M72.7953 66.359C74.3651 66.359 75.2975 65.142 75.2975 63.0812C75.2975 62.3052 75.1478 61.6522 74.8612 61.1476C74.4463 60.3631 73.732 59.9391 72.8295 59.9391C71.4864 59.9391 70.5368 60.8338 70.5368 62.0889C70.5368 63.2678 71.3923 64.1243 72.5686 64.1243C73.2915 64.1243 73.8775 63.7893 74.1683 63.2084H74.1811C74.1811 63.2084 74.1983 63.2084 74.2025 63.2084C74.2111 63.2084 74.241 63.2084 74.241 63.2084C74.241 64.6077 73.7064 65.443 72.8038 65.443C72.2735 65.443 71.8628 65.1547 71.7217 64.6925H70.6224C70.8063 65.6975 71.6661 66.359 72.7953 66.359ZM72.8338 63.255C72.1237 63.255 71.619 62.7547 71.619 62.055C71.619 61.3723 72.1494 60.8508 72.8381 60.8508C73.5267 60.8508 74.0571 61.3808 74.0571 62.072C74.0571 62.7547 73.5395 63.255 72.8338 63.255Z" fill="black"/>
<path d="M77.1027 66.2996C77.5091 66.2996 77.7871 66.0112 77.7871 65.6296C77.7871 65.2437 77.5091 64.9596 77.1027 64.9596C76.7007 64.9596 76.4184 65.2437 76.4184 65.6296C76.4184 66.0112 76.7007 66.2996 77.1027 66.2996ZM77.1027 63.1193C77.5091 63.1193 77.7871 62.8352 77.7871 62.4536C77.7871 62.0677 77.5091 61.7836 77.1027 61.7836C76.7007 61.7836 76.4184 62.0677 76.4184 62.4536C76.4184 62.8352 76.7007 63.1193 77.1027 63.1193Z" fill="black"/>
<path d="M81.7909 66.2105H82.8474V65.0699H83.6815V64.1455H82.8474V60.0917H81.2904C80.1997 61.72 79.3314 63.0812 78.7754 64.0946V65.0699H81.7909V66.2105ZM79.7976 64.1073C80.5162 62.8522 81.1578 61.8472 81.7481 60.9822H81.808V64.1709H79.7976V64.1073Z" fill="black"/>
<path d="M86.0342 66.2105H87.1377V60.0917H86.0385L84.4259 61.2112V62.2628L85.9615 61.1942H86.0342V66.2105Z" fill="black"/>
<rect x="229.863" y="39" width="3.44159" height="2.87879" fill="#414141"/>
<rect x="278.045" y="88.5151" width="2.86807" height="3.45454" fill="#414141"/>
<rect x="41.7208" y="88.5151" width="2.86802" height="3.45454" fill="#414141"/>
<rect x="41.7208" y="480.03" width="2.86802" height="3.45453" fill="#414141"/>
<rect x="278.045" y="480.03" width="2.86807" height="3.45453" fill="#414141"/>
<rect x="89.3296" y="530.121" width="3.44162" height="2.87878" fill="#414141"/>
<path fill-rule="evenodd" clip-rule="evenodd" d="M185.695 62.0303C188.23 62.0303 190.284 59.9681 190.284 57.4242C190.284 54.8804 188.23 52.8182 185.695 52.8182C183.161 52.8182 181.106 54.8804 181.106 57.4242C181.106 59.9681 183.161 62.0303 185.695 62.0303Z" fill="#262C2D"/>
<path fill-rule="evenodd" clip-rule="evenodd" d="M185.695 60.303C187.279 60.303 188.563 59.0142 188.563 57.4243C188.563 55.8343 187.279 54.5455 185.695 54.5455C184.111 54.5455 182.827 55.8343 182.827 57.4243C182.827 59.0142 184.111 60.303 185.695 60.303Z" fill="#121515"/>
<path opacity="0.4" fill-rule="evenodd" clip-rule="evenodd" d="M185.696 56.849C186.013 56.849 186.269 56.5911 186.269 56.273C186.269 55.9549 186.013 55.697 185.696 55.697C185.379 55.697 185.122 55.9549 185.122 56.273C185.122 56.5911 185.379 56.849 185.696 56.849Z" fill="#636F73"/>
<path fill-rule="evenodd" clip-rule="evenodd" d="M147.264 57.4242C147.264 56.4703 148.037 55.697 148.991 55.697H173.643C174.597 55.697 175.371 56.4703 175.371 57.4242C175.371 58.3782 174.597 59.1515 173.643 59.1515H148.991C148.037 59.1515 147.264 58.3782 147.264 57.4242Z" fill="#262C2D"/>
<rect x="112" y="509" width="100" height="3" rx="1.5" fill="black"/>
<defs>
<filter id="filter0_f_2_658" x="0" y="0" width="351" height="610" filterUnits="userSpaceOnUse" color-interpolation-filters="sRGB">
<feFlood flood-opacity="0" result="BackgroundImageFix"/>
<feBlend mode="normal" in="SourceGraphic" in2="BackgroundImageFix" result="shape"/>
<feGaussianBlur stdDeviation="26.5" result="effect1_foregroundBlur_2_658"/>
</filter>
</defs>
</svg>
