<svg width="167" height="48" viewBox="0 0 167 48" fill="none" xmlns="http://www.w3.org/2000/svg">
<g id="Group">
<path id="BG" d="M165.231 42.4643C165.231 45.0223 163.116 47.0943 160.499 47.0943H5.66069C3.04568 47.0943 0.923065 45.0223 0.923065 42.4643V5.54167C0.923065 2.9849 3.04568 0.90564 5.66069 0.90564H160.498C163.116 0.90564 165.23 2.9849 165.23 5.54167L165.231 42.4643Z" fill="black"/>
<path id="Border" d="M160 0.961502C162.849 0.961502 165.168 3.222 165.168 6V42C165.168 44.778 162.849 47.0385 160 47.0385H6.15385C3.30462 47.0385 0.986153 44.778 0.986153 42V6C0.986153 3.222 3.30462 0.961502 6.15385 0.961502H160ZM160 3.8147e-06H6.15385C2.77077 3.8147e-06 0 2.7015 0 6V42C0 45.2985 2.77077 48 6.15385 48H160C163.383 48 166.154 45.2985 166.154 42V6C166.154 2.7015 163.383 3.8147e-06 160 3.8147e-06Z" fill="#A6A6A6"/>
<g id="Icon">
<g id="Vector">
<path d="M37.0806 23.7408C37.0449 19.8732 40.3286 17.9916 40.4788 17.904C38.6191 15.2604 35.7366 14.8992 34.7237 14.8704C32.3028 14.622 29.9545 16.2828 28.7212 16.2828C27.4634 16.2828 25.5643 14.8944 23.5176 14.9352C20.8837 14.9748 18.4197 16.4616 17.0683 18.7704C14.2794 23.478 16.3594 30.396 19.0314 34.2012C20.368 36.0648 21.9299 38.1456 23.9742 38.0724C25.9742 37.992 26.7212 36.8292 29.1348 36.8292C31.5262 36.8292 32.2277 38.0724 34.3126 38.0256C36.4591 37.992 37.8105 36.1536 39.1003 34.2732C40.6449 32.1372 41.2652 30.0336 41.2899 29.9256C41.2394 29.9088 37.1212 28.3764 37.0806 23.7408Z" fill="white"/>
<path d="M33.1422 12.3672C34.2179 11.0556 34.9539 9.27119 34.7495 7.46039C33.1926 7.52759 31.2456 8.51039 30.1243 9.79319C29.1323 10.9236 28.2462 12.7764 28.4751 14.5188C30.224 14.646 32.0197 13.6584 33.1422 12.3672Z" fill="white"/>
</g>
</g>
<g id="Download on the">
<path id="D" d="M60.3693 12.0108C60.3693 13.4232 59.9348 14.4864 59.0671 15.2004C58.2634 15.8592 57.1213 16.1892 55.6419 16.1892C54.9083 16.1892 54.2806 16.158 53.7551 16.0956V8.37841C54.4406 8.27041 55.1791 8.21521 55.9766 8.21521C57.3859 8.21521 58.448 8.51401 59.1643 9.11161C59.9668 9.78721 60.3693 10.7532 60.3693 12.0108ZM59.0093 12.0456C59.0093 11.13 58.7606 10.428 58.2634 9.93841C57.7662 9.45001 57.04 9.20521 56.0837 9.20521C55.6776 9.20521 55.3317 9.23161 55.0449 9.28681V15.1536C55.2037 15.1776 55.4942 15.1884 55.9163 15.1884C56.9034 15.1884 57.6653 14.9208 58.2019 14.3856C58.7385 13.8504 59.0093 13.0704 59.0093 12.0456Z" fill="white"/>
<path id="o" d="M67.5803 13.2444C67.5803 14.1144 67.3256 14.8272 66.816 15.3864C66.2819 15.9612 65.5742 16.248 64.6905 16.248C63.8388 16.248 63.1606 15.9732 62.6548 15.4212C62.1502 14.8704 61.8979 14.1756 61.8979 13.338C61.8979 12.462 62.1575 11.7432 62.6794 11.1852C63.2012 10.6272 63.9028 10.3476 64.7865 10.3476C65.6382 10.3476 66.3225 10.6224 66.8406 11.1732C67.3329 11.7084 67.5803 12.3996 67.5803 13.2444ZM66.2425 13.2852C66.2425 12.7632 66.1268 12.3156 65.8966 11.9424C65.6259 11.4912 65.2406 11.2656 64.7397 11.2656C64.2216 11.2656 63.8277 11.4912 63.5569 11.9424C63.3256 12.3156 63.2111 12.7704 63.2111 13.308C63.2111 13.83 63.3268 14.2776 63.5569 14.6508C63.8363 15.102 64.2252 15.3276 64.7274 15.3276C65.2197 15.3276 65.6062 15.0984 65.8843 14.6388C66.1231 14.2584 66.2425 13.8072 66.2425 13.2852Z" fill="white"/>
<path id="w" d="M77.2492 10.4628L75.4338 16.1196H74.2523L73.5003 13.6632C73.3095 13.05 73.1545 12.4404 73.0338 11.8356H73.0105C72.8985 12.4572 72.7434 13.0656 72.544 13.6632L71.7452 16.1196H70.5502L68.8431 10.4628H70.1686L70.8246 13.152C70.9834 13.788 71.1138 14.394 71.2185 14.9676H71.2418C71.3378 14.4948 71.4966 13.8924 71.7206 13.164L72.544 10.464H73.5951L74.384 13.1064C74.5748 13.7508 74.7298 14.3712 74.8492 14.9688H74.8849C74.9723 14.3868 75.104 13.7664 75.2788 13.1064L75.9828 10.464H77.2492V10.4628Z" fill="white"/>
<path id="n" d="M83.936 16.1196H82.6462V12.8796C82.6462 11.8812 82.2573 11.382 81.4769 11.382C81.0942 11.382 80.7853 11.5188 80.5453 11.7936C80.3077 12.0684 80.1871 12.3924 80.1871 12.7632V16.1184H78.8973V12.0792C78.8973 11.5824 78.8813 11.0436 78.8505 10.4604H79.984L80.0443 11.3448H80.08C80.2302 11.07 80.4542 10.8432 80.7483 10.662C81.0979 10.4508 81.4893 10.344 81.9176 10.344C82.4591 10.344 82.9096 10.5144 83.2677 10.8564C83.7133 11.2752 83.936 11.9004 83.936 12.7308V16.1196Z" fill="white"/>
<path id="l" d="M87.493 16.1196H86.2043V7.86719H87.493V16.1196Z" fill="white"/>
<path id="o_2" d="M95.0868 13.2444C95.0868 14.1144 94.832 14.8272 94.3225 15.3864C93.7883 15.9612 93.0794 16.248 92.1969 16.248C91.344 16.248 90.6659 15.9732 90.1612 15.4212C89.6566 14.8704 89.4043 14.1756 89.4043 13.338C89.4043 12.462 89.664 11.7432 90.1859 11.1852C90.7077 10.6272 91.4093 10.3476 92.2917 10.3476C93.1446 10.3476 93.8277 10.6224 94.3471 11.1732C94.8394 11.7084 95.0868 12.3996 95.0868 13.2444ZM93.7477 13.2852C93.7477 12.7632 93.632 12.3156 93.4019 11.9424C93.1323 11.4912 92.7459 11.2656 92.2462 11.2656C91.7268 11.2656 91.3329 11.4912 91.0634 11.9424C90.832 12.3156 90.7176 12.7704 90.7176 13.308C90.7176 13.83 90.8332 14.2776 91.0634 14.6508C91.3428 15.102 91.7317 15.3276 92.2339 15.3276C92.7262 15.3276 93.1114 15.0984 93.3896 14.6388C93.6296 14.2584 93.7477 13.8072 93.7477 13.2852Z" fill="white"/>
<path id="a" d="M101.329 16.1196H100.171L100.075 15.468H100.039C99.6431 15.9876 99.0782 16.248 98.3446 16.248C97.7969 16.248 97.3539 16.0764 97.0203 15.7356C96.7176 15.426 96.5662 15.0408 96.5662 14.5836C96.5662 13.8924 96.8615 13.3656 97.456 13.0008C98.0492 12.636 98.8837 12.4572 99.9582 12.4656V12.36C99.9582 11.6148 99.5569 11.2428 98.7532 11.2428C98.1809 11.2428 97.6763 11.3832 97.2406 11.6616L96.9785 10.836C97.5175 10.5108 98.1834 10.3476 98.9686 10.3476C100.485 10.3476 101.246 11.1276 101.246 12.6876V14.7708C101.246 15.336 101.274 15.786 101.329 16.1196ZM99.9902 14.1756V13.3032C98.5674 13.2792 97.856 13.6596 97.856 14.4432C97.856 14.7384 97.9372 14.9592 98.1034 15.1068C98.2695 15.2544 98.4812 15.3276 98.7335 15.3276C99.0166 15.3276 99.2812 15.24 99.5225 15.066C99.7649 14.8908 99.9139 14.6688 99.9692 14.3964C99.9828 14.3352 99.9902 14.2608 99.9902 14.1756Z" fill="white"/>
<path id="d" d="M108.658 16.1196H107.514L107.454 15.2112H107.418C107.052 15.9024 106.43 16.248 105.554 16.248C104.855 16.248 104.273 15.9804 103.812 15.4452C103.35 14.91 103.12 14.2152 103.12 13.362C103.12 12.4464 103.37 11.7048 103.872 11.1384C104.358 10.6104 104.954 10.3464 105.663 10.3464C106.442 10.3464 106.987 10.602 107.297 11.1144H107.322V7.86719H108.613V14.5956C108.613 15.1464 108.628 15.654 108.658 16.1196ZM107.322 13.734V12.7908C107.322 12.6276 107.31 12.4956 107.286 12.3948C107.214 12.0924 107.057 11.838 106.82 11.6328C106.58 11.4276 106.29 11.3244 105.957 11.3244C105.476 11.3244 105.099 11.5104 104.822 11.8836C104.548 12.2568 104.409 12.7332 104.409 13.3152C104.409 13.8744 104.54 14.328 104.805 14.6772C105.084 15.0492 105.461 15.2352 105.932 15.2352C106.356 15.2352 106.694 15.0804 106.951 14.7696C107.2 14.4828 107.322 14.1372 107.322 13.734Z" fill="white"/>
<path id="o_3" d="M119.69 13.2444C119.69 14.1144 119.435 14.8272 118.926 15.3864C118.391 15.9612 117.685 16.248 116.8 16.248C115.95 16.248 115.271 15.9732 114.764 15.4212C114.26 14.8704 114.007 14.1756 114.007 13.338C114.007 12.462 114.267 11.7432 114.789 11.1852C115.311 10.6272 116.012 10.3476 116.897 10.3476C117.748 10.3476 118.433 10.6224 118.95 11.1732C119.442 11.7084 119.69 12.3996 119.69 13.2444ZM118.353 13.2852C118.353 12.7632 118.238 12.3156 118.007 11.9424C117.735 11.4912 117.351 11.2656 116.849 11.2656C116.332 11.2656 115.938 11.4912 115.666 11.9424C115.435 12.3156 115.321 12.7704 115.321 13.308C115.321 13.83 115.436 14.2776 115.666 14.6508C115.946 15.102 116.335 15.3276 116.837 15.3276C117.329 15.3276 117.717 15.0984 117.995 14.6388C118.233 14.2584 118.353 13.8072 118.353 13.2852Z" fill="white"/>
<path id="n_2" d="M126.625 16.1196H125.337V12.8796C125.337 11.8812 124.948 11.382 124.166 11.382C123.783 11.382 123.474 11.5188 123.236 11.7936C122.997 12.0684 122.878 12.3924 122.878 12.7632V16.1184H121.586V12.0792C121.586 11.5824 121.572 11.0436 121.541 10.4604H122.673L122.734 11.3448H122.769C122.921 11.07 123.145 10.8432 123.438 10.662C123.788 10.4508 124.178 10.344 124.608 10.344C125.148 10.344 125.599 10.5144 125.957 10.8564C126.404 11.2752 126.625 11.9004 126.625 12.7308V16.1196Z" fill="white"/>
<path id="t" d="M135.306 11.4048H133.886V14.1528C133.886 14.8512 134.138 15.2004 134.638 15.2004C134.869 15.2004 135.061 15.1812 135.212 15.1416L135.246 16.0956C134.991 16.1892 134.656 16.236 134.244 16.236C133.734 16.236 133.338 16.0848 133.051 15.7824C132.763 15.48 132.62 14.9712 132.62 14.2572V11.4048H131.772V10.4628H132.62V9.42602L133.884 9.05402V10.4616H135.305V11.4048H135.306Z" fill="white"/>
<path id="h" d="M142.134 16.1196H140.843V12.9036C140.843 11.8896 140.454 11.382 139.675 11.382C139.077 11.382 138.668 11.676 138.444 12.264C138.406 12.3876 138.384 12.5388 138.384 12.7164V16.1184H137.095V7.86719H138.384V11.2764H138.409C138.815 10.656 139.397 10.3464 140.151 10.3464C140.686 10.3464 141.127 10.5168 141.478 10.8588C141.915 11.2848 142.134 11.9184 142.134 12.756V16.1196Z" fill="white"/>
<path id="e" d="M149.178 13.0236C149.178 13.2492 149.161 13.4388 149.13 13.5936H145.262C145.279 14.1528 145.463 14.5788 145.822 14.874C146.149 15.138 146.571 15.27 147.088 15.27C147.66 15.27 148.182 15.1812 148.652 15.0024L148.854 15.876C148.304 16.1088 147.657 16.2252 146.907 16.2252C146.009 16.2252 145.301 15.9672 144.789 15.4512C144.274 14.9352 144.02 14.2428 144.02 13.374C144.02 12.5208 144.257 11.8104 144.736 11.244C145.236 10.6392 145.911 10.3368 146.764 10.3368C147.599 10.3368 148.233 10.6392 148.661 11.244C149.007 11.724 149.178 12.318 149.178 13.0236ZM147.947 12.6984C147.957 12.3252 147.872 12.0036 147.697 11.7324C147.473 11.3832 147.132 11.208 146.671 11.208C146.25 11.208 145.906 11.3784 145.644 11.7204C145.43 11.9928 145.303 12.318 145.262 12.6984H147.947Z" fill="white"/>
</g>
<g id="App Store">
<path id="A" d="M66.0246 37.8047H63.2295L61.6984 33.1139H56.3766L54.9181 37.8047H52.1969L57.4695 21.8351H60.7261L66.0246 37.8047ZM61.2369 31.1459L59.8523 26.9759C59.7058 26.5499 59.4314 25.5467 59.0264 23.9675H58.9772C58.816 24.6467 58.5563 25.6499 58.1994 26.9759L56.8394 31.1459H61.2369Z" fill="white"/>
<path id="p" d="M79.584 31.9056C79.584 33.864 79.0412 35.412 77.9557 36.5484C76.9834 37.56 75.776 38.0652 74.3348 38.0652C72.7791 38.0652 71.6615 37.5204 70.9809 36.4308H70.9317V42.4968H68.3077V30.0804C68.3077 28.8492 68.2744 27.5856 68.2104 26.2896H70.5181L70.6646 28.1148H70.7138C71.5889 26.7396 72.9169 26.0532 74.6991 26.0532C76.0923 26.0532 77.2554 26.5896 78.1858 27.6636C79.1188 28.7388 79.584 30.1524 79.584 31.9056ZM76.9108 31.9992C76.9108 30.8784 76.6523 29.9544 76.1329 29.2272C75.5655 28.4688 74.8037 28.0896 73.8486 28.0896C73.2012 28.0896 72.6129 28.3008 72.0874 28.7172C71.5606 29.1372 71.216 29.6856 71.0548 30.3648C70.9735 30.6816 70.9329 30.9408 70.9329 31.1448V33.0648C70.9329 33.9024 71.1963 34.6092 71.7231 35.1864C72.2498 35.7636 72.9341 36.0516 73.776 36.0516C74.7643 36.0516 75.5335 35.6796 76.0837 34.938C76.6351 34.1952 76.9108 33.216 76.9108 31.9992Z" fill="white"/>
<path id="p_2" d="M93.168 31.9056C93.168 33.864 92.6252 35.412 91.5384 36.5484C90.5673 37.56 89.36 38.0652 87.9187 38.0652C86.363 38.0652 85.2455 37.5204 84.5661 36.4308H84.5169V42.4968H81.8929V30.0804C81.8929 28.8492 81.8597 27.5856 81.7957 26.2896H84.1033L84.2498 28.1148H84.299C85.1729 26.7396 86.5009 26.0532 88.2843 26.0532C89.6763 26.0532 90.8394 26.5896 91.7723 27.6636C92.7015 28.7388 93.168 30.1524 93.168 31.9056ZM90.4947 31.9992C90.4947 30.8784 90.235 29.9544 89.7157 29.2272C89.1483 28.4688 88.3889 28.0896 87.4326 28.0896C86.784 28.0896 86.1969 28.3008 85.6701 28.7172C85.1434 29.1372 84.8 29.6856 84.6387 30.3648C84.5587 30.6816 84.5169 30.9408 84.5169 31.1448V33.0648C84.5169 33.9024 84.7803 34.6092 85.3046 35.1864C85.8313 35.7624 86.5157 36.0516 87.36 36.0516C88.3483 36.0516 89.1175 35.6796 89.6677 34.938C90.219 34.1952 90.4947 33.216 90.4947 31.9992Z" fill="white"/>
<path id="S" d="M108.356 33.3264C108.356 34.6848 107.872 35.79 106.901 36.6432C105.834 37.5756 104.348 38.0412 102.439 38.0412C100.677 38.0412 99.264 37.71 98.1944 37.0464L98.8024 34.914C99.9544 35.5932 101.218 35.934 102.596 35.934C103.584 35.934 104.353 35.7156 104.906 35.2812C105.456 34.8468 105.73 34.2636 105.73 33.5364C105.73 32.8884 105.504 32.3424 105.05 31.8996C104.598 31.4568 103.844 31.0452 102.79 30.6648C99.9224 29.622 98.4898 28.0944 98.4898 26.0856C98.4898 24.7728 98.992 23.6964 99.9975 22.8588C100.999 22.02 102.336 21.6012 104.007 21.6012C105.498 21.6012 106.736 21.8544 107.724 22.3596L107.068 24.4452C106.145 23.9556 105.102 23.7108 103.934 23.7108C103.01 23.7108 102.289 23.9328 101.772 24.3744C101.335 24.7692 101.116 25.2504 101.116 25.8204C101.116 26.4516 101.366 26.9736 101.868 27.384C102.305 27.7632 103.099 28.1736 104.251 28.6164C105.66 29.1696 106.695 29.8164 107.361 30.558C108.025 31.2972 108.356 32.2224 108.356 33.3264Z" fill="white"/>
<path id="t_2" d="M117.031 28.2096H114.139V33.8004C114.139 35.2224 114.649 35.9328 115.67 35.9328C116.139 35.9328 116.528 35.8932 116.836 35.814L116.908 37.7568C116.391 37.9452 115.711 38.04 114.868 38.04C113.831 38.04 113.022 37.7316 112.437 37.116C111.855 36.4992 111.562 35.4648 111.562 34.0116V28.2072H109.839V26.2872H111.562V24.1788L114.139 23.4204V26.2872H117.031V28.2096Z" fill="white"/>
<path id="o_4" d="M130.081 31.9524C130.081 33.7224 129.562 35.1756 128.525 36.312C127.439 37.482 125.996 38.0652 124.198 38.0652C122.465 38.0652 121.085 37.5048 120.057 36.384C119.028 35.2632 118.513 33.8484 118.513 32.1432C118.513 30.3588 119.042 28.8972 120.105 27.7608C121.164 26.6232 122.594 26.0544 124.393 26.0544C126.125 26.0544 127.52 26.6148 128.572 27.7368C129.579 28.8252 130.081 30.2304 130.081 31.9524ZM127.359 32.0352C127.359 30.9732 127.126 30.0624 126.655 29.3028C126.105 28.3836 125.318 27.9252 124.299 27.9252C123.244 27.9252 122.443 28.3848 121.893 29.3028C121.421 30.0636 121.189 30.9888 121.189 32.0832C121.189 33.1452 121.421 34.056 121.893 34.8144C122.46 35.7336 123.253 36.192 124.276 36.192C125.277 36.192 126.064 35.724 126.631 34.7904C127.115 34.0164 127.359 33.096 127.359 32.0352Z" fill="white"/>
<path id="r" d="M138.61 28.5396C138.351 28.4928 138.074 28.4688 137.783 28.4688C136.86 28.4688 136.146 28.8084 135.644 29.4888C135.207 30.0888 134.988 30.8472 134.988 31.7628V37.8048H132.365L132.39 29.916C132.39 28.5888 132.357 27.3804 132.292 26.2908H134.577L134.673 28.494H134.746C135.023 27.7368 135.46 27.1272 136.058 26.67C136.642 26.2584 137.274 26.0532 137.954 26.0532C138.197 26.0532 138.416 26.07 138.61 26.1V28.5396Z" fill="white"/>
<path id="e_2" d="M150.346 31.5024C150.346 31.9608 150.315 32.3472 150.25 32.6628H142.378C142.409 33.8004 142.789 34.6704 143.52 35.2704C144.183 35.8068 145.041 36.0756 146.095 36.0756C147.26 36.0756 148.324 35.8944 149.28 35.5308L149.691 37.3068C148.574 37.782 147.254 38.0184 145.732 38.0184C143.9 38.0184 142.463 37.4928 141.417 36.4428C140.373 35.3928 139.85 33.9828 139.85 32.214C139.85 30.4776 140.336 29.0316 141.31 27.8784C142.329 26.6472 143.706 26.0316 145.439 26.0316C147.141 26.0316 148.43 26.6472 149.305 27.8784C149.998 28.8564 150.346 30.066 150.346 31.5024ZM147.844 30.8388C147.861 30.0804 147.69 29.4252 147.334 28.872C146.88 28.1604 146.182 27.8052 145.243 27.8052C144.385 27.8052 143.687 28.152 143.154 28.848C142.718 29.4012 142.458 30.0648 142.378 30.8376H147.844V30.8388Z" fill="white"/>
</g>
</g>
</svg>
