<svg width="227" height="17" viewBox="0 0 227 17" fill="none" xmlns="http://www.w3.org/2000/svg">
<path opacity="0.8" d="M0.627841 4.56108V3.54545H7.71875V4.56108H4.74574V13H3.60085V4.56108H0.627841ZM11.2827 13.1477C10.5994 13.1477 10.0101 12.9969 9.51456 12.6953C9.02214 12.3906 8.64205 11.9659 8.37429 11.4212C8.10961 10.8733 7.97727 10.2363 7.97727 9.50994C7.97727 8.78362 8.10961 8.14347 8.37429 7.58949C8.64205 7.03243 9.01444 6.59848 9.49148 6.28764C9.97159 5.97372 10.5317 5.81676 11.1719 5.81676C11.5412 5.81676 11.9059 5.87831 12.266 6.00142C12.6261 6.12453 12.9538 6.32457 13.2493 6.60156C13.5447 6.87547 13.7802 7.23864 13.9556 7.69105C14.131 8.14347 14.2188 8.70052 14.2188 9.36222V9.82386H8.75284V8.8821H13.1108C13.1108 8.48201 13.0308 8.125 12.8707 7.81108C12.7138 7.49716 12.4891 7.24941 12.1967 7.06783C11.9074 6.88625 11.5658 6.79545 11.1719 6.79545C10.7379 6.79545 10.3625 6.90317 10.0455 7.11861C9.73153 7.33097 9.48994 7.60795 9.32067 7.94957C9.1514 8.29119 9.06676 8.65743 9.06676 9.0483V9.67614C9.06676 10.2116 9.15909 10.6656 9.34375 11.038C9.53149 11.4073 9.79155 11.6889 10.1239 11.8828C10.4563 12.0736 10.8426 12.169 11.2827 12.169C11.5689 12.169 11.8274 12.129 12.0582 12.049C12.2921 11.9659 12.4937 11.8428 12.663 11.6797C12.8323 11.5135 12.9631 11.3073 13.0554 11.0611L14.108 11.3565C13.9972 11.7135 13.811 12.0275 13.5494 12.2983C13.2878 12.5661 12.9646 12.7753 12.5799 12.9261C12.1952 13.0739 11.7628 13.1477 11.2827 13.1477ZM15.8761 13V5.90909H16.9286V6.98011H17.0025C17.1317 6.62926 17.3656 6.34458 17.7042 6.12606C18.0427 5.90755 18.4244 5.79829 18.8491 5.79829C18.9291 5.79829 19.0291 5.79983 19.1491 5.80291C19.2692 5.80599 19.36 5.81061 19.4215 5.81676V6.92472C19.3846 6.91548 19.3 6.90163 19.1676 6.88317C19.0384 6.86162 18.9014 6.85085 18.7567 6.85085C18.4121 6.85085 18.1043 6.92318 17.8335 7.06783C17.5657 7.2094 17.3533 7.40637 17.1964 7.65874C17.0425 7.90803 16.9656 8.19271 16.9656 8.51278V13H15.8761ZM20.713 13V5.90909H21.7655V7.01705H21.8579C22.0056 6.63849 22.2441 6.34458 22.5734 6.1353C22.9027 5.92294 23.2982 5.81676 23.7599 5.81676C24.2277 5.81676 24.617 5.92294 24.9278 6.1353C25.2417 6.34458 25.4864 6.63849 25.6618 7.01705H25.7357C25.9173 6.6508 26.1897 6.35997 26.5528 6.14453C26.916 5.92602 27.3515 5.81676 27.8593 5.81676C28.4933 5.81676 29.0119 6.01527 29.415 6.41229C29.8182 6.80623 30.0198 7.42022 30.0198 8.25426V13H28.9303V8.25426C28.9303 7.73106 28.7872 7.35713 28.501 7.13246C28.2148 6.90779 27.8778 6.79545 27.49 6.79545C26.9914 6.79545 26.6051 6.94626 26.3312 7.24787C26.0573 7.5464 25.9204 7.92495 25.9204 8.38352V13H24.8124V8.14347C24.8124 7.74029 24.6816 7.4156 24.42 7.16939C24.1584 6.9201 23.8214 6.79545 23.409 6.79545C23.1259 6.79545 22.8612 6.87086 22.615 7.02166C22.3718 7.17247 22.1749 7.38175 22.0241 7.6495C21.8763 7.91418 21.8025 8.22041 21.8025 8.56818V13H20.713ZM37.0345 7.49716L36.0558 7.77415C35.9943 7.61103 35.9035 7.45253 35.7835 7.29865C35.6665 7.14169 35.5065 7.01243 35.3034 6.91087C35.1002 6.8093 34.8402 6.75852 34.5232 6.75852C34.0892 6.75852 33.7276 6.85855 33.4383 7.05859C33.1521 7.25556 33.009 7.50639 33.009 7.81108C33.009 8.08191 33.1075 8.29581 33.3044 8.45277C33.5014 8.60973 33.8092 8.74053 34.2277 8.84517L35.2803 9.10369C35.9143 9.25758 36.3867 9.49302 36.6975 9.81001C37.0084 10.1239 37.1638 10.5286 37.1638 11.0241C37.1638 11.4304 37.0468 11.7936 36.8129 12.1136C36.5821 12.4337 36.259 12.6861 35.8435 12.8707C35.428 13.0554 34.9448 13.1477 34.3939 13.1477C33.6707 13.1477 33.0721 12.9908 32.5981 12.6768C32.1241 12.3629 31.8241 11.9044 31.6979 11.3011L32.732 11.0426C32.8305 11.4242 33.0167 11.7105 33.2906 11.9013C33.5676 12.0921 33.9292 12.1875 34.3754 12.1875C34.8833 12.1875 35.2864 12.0798 35.585 11.8643C35.8866 11.6458 36.0374 11.3842 36.0374 11.0795C36.0374 10.8333 35.9512 10.6271 35.7789 10.4609C35.6065 10.2917 35.3418 10.1655 34.9848 10.0824L33.803 9.8054C33.1536 9.65152 32.6766 9.413 32.3719 9.08984C32.0703 8.76361 31.9195 8.35582 31.9195 7.86648C31.9195 7.46638 32.0318 7.11245 32.2565 6.80469C32.4842 6.49692 32.7935 6.25533 33.1844 6.0799C33.5783 5.90447 34.0246 5.81676 34.5232 5.81676C35.2249 5.81676 35.7758 5.97064 36.1759 6.27841C36.579 6.58617 36.8653 6.99242 37.0345 7.49716ZM45.1376 13.1293C44.5159 13.1293 43.9804 13.0154 43.5311 12.7876C43.0817 12.5599 42.7355 12.2475 42.4924 11.8505C42.2492 11.4535 42.1277 10.9995 42.1277 10.4886C42.1277 10.0947 42.2108 9.74538 42.377 9.4407C42.5462 9.13293 42.7786 8.84825 43.074 8.58665C43.3726 8.32197 43.7157 8.05729 44.1035 7.79261L45.47 6.77699C45.7377 6.60156 45.9516 6.41383 46.1117 6.21378C46.2748 6.01373 46.3564 5.75213 46.3564 5.42898C46.3564 5.18892 46.2502 4.95656 46.0378 4.73189C45.8285 4.50722 45.5531 4.39489 45.2115 4.39489C44.9714 4.39489 44.7591 4.45644 44.5744 4.57954C44.3928 4.69957 44.2497 4.85346 44.1451 5.04119C44.0435 5.22585 43.9927 5.41667 43.9927 5.61364C43.9927 5.83523 44.0527 6.0599 44.1728 6.28764C44.2959 6.51231 44.4513 6.74313 44.639 6.98011C44.8298 7.21401 45.0268 7.45407 45.2299 7.70028L49.5694 13H48.2583L44.676 8.67898C44.3436 8.27888 44.042 7.91572 43.7711 7.58949C43.5003 7.26326 43.2849 6.94164 43.1248 6.62464C42.9648 6.30765 42.8848 5.96449 42.8848 5.59517C42.8848 5.17045 42.9786 4.79806 43.1664 4.47798C43.3572 4.15483 43.6234 3.904 43.965 3.7255C44.3097 3.54392 44.7129 3.45312 45.1745 3.45312C45.6485 3.45312 46.0563 3.54545 46.3979 3.73011C46.7395 3.91169 47.0027 4.15329 47.1873 4.4549C47.372 4.75343 47.4643 5.07812 47.4643 5.42898C47.4643 5.88139 47.352 6.27379 47.1273 6.60618C46.9026 6.93857 46.5964 7.24787 46.2086 7.53409L44.3251 8.9375C43.9004 9.25142 43.6126 9.55611 43.4618 9.85156C43.311 10.147 43.2356 10.3594 43.2356 10.4886C43.2356 10.7841 43.3126 11.0595 43.4664 11.315C43.6203 11.5704 43.8373 11.7766 44.1174 11.9336C44.3974 12.0906 44.7252 12.169 45.1007 12.169C45.4577 12.169 45.8055 12.0936 46.144 11.9428C46.4825 11.7889 46.7888 11.5674 47.0627 11.2781C47.3397 10.9888 47.5582 10.641 47.7182 10.2347C47.8813 9.82848 47.9629 9.37145 47.9629 8.86364H49.0154C49.0154 9.49148 48.9431 10.0039 48.7985 10.4009C48.6538 10.7979 48.4907 11.1088 48.3091 11.3335C48.1275 11.5581 47.9814 11.7259 47.8706 11.8366C47.8336 11.8828 47.7998 11.929 47.769 11.9751C47.7382 12.0213 47.7044 12.0675 47.6674 12.1136C47.3627 12.4553 46.978 12.7107 46.5133 12.88C46.0486 13.0462 45.59 13.1293 45.1376 13.1293ZM62.1874 6.5H61.0425C60.9748 6.17069 60.8563 5.88139 60.6871 5.6321C60.5209 5.38281 60.3177 5.17353 60.0777 5.00426C59.8407 4.83191 59.5776 4.70265 59.2883 4.61648C58.999 4.5303 58.6974 4.48722 58.3834 4.48722C57.811 4.48722 57.2924 4.63187 56.8277 4.92116C56.366 5.21046 55.9983 5.63672 55.7243 6.19993C55.4535 6.76314 55.3181 7.45407 55.3181 8.27273C55.3181 9.09138 55.4535 9.78232 55.7243 10.3455C55.9983 10.9087 56.366 11.335 56.8277 11.6243C57.2924 11.9136 57.811 12.0582 58.3834 12.0582C58.6974 12.0582 58.999 12.0152 59.2883 11.929C59.5776 11.8428 59.8407 11.7151 60.0777 11.5458C60.3177 11.3735 60.5209 11.1626 60.6871 10.9134C60.8563 10.661 60.9748 10.3717 61.0425 10.0455H62.1874C62.1012 10.5286 61.9443 10.9611 61.7165 11.3427C61.4888 11.7243 61.2056 12.049 60.8671 12.3168C60.5286 12.5814 60.1485 12.783 59.7268 12.9215C59.3083 13.06 58.8605 13.1293 58.3834 13.1293C57.5771 13.1293 56.86 12.9323 56.2322 12.5384C55.6043 12.1444 55.1104 11.5843 54.7503 10.858C54.3902 10.1316 54.2101 9.26989 54.2101 8.27273C54.2101 7.27557 54.3902 6.41383 54.7503 5.6875C55.1104 4.96117 55.6043 4.40104 56.2322 4.0071C56.86 3.61316 57.5771 3.41619 58.3834 3.41619C58.8605 3.41619 59.3083 3.48544 59.7268 3.62393C60.1485 3.76243 60.5286 3.96555 60.8671 4.23331C61.2056 4.49799 61.4888 4.82114 61.7165 5.20277C61.9443 5.58132 62.1012 6.01373 62.1874 6.5ZM66.7704 13.1477C66.1303 13.1477 65.5686 12.9954 65.0854 12.6907C64.6053 12.386 64.2298 11.9598 63.959 11.4119C63.6912 10.8641 63.5574 10.224 63.5574 9.49148C63.5574 8.75284 63.6912 8.10807 63.959 7.55717C64.2298 7.00627 64.6053 6.57848 65.0854 6.27379C65.5686 5.96911 66.1303 5.81676 66.7704 5.81676C67.4106 5.81676 67.9707 5.96911 68.4508 6.27379C68.934 6.57848 69.3095 7.00627 69.5772 7.55717C69.8481 8.10807 69.9835 8.75284 69.9835 9.49148C69.9835 10.224 69.8481 10.8641 69.5772 11.4119C69.3095 11.9598 68.934 12.386 68.4508 12.6907C67.9707 12.9954 67.4106 13.1477 66.7704 13.1477ZM66.7704 12.169C67.2567 12.169 67.6568 12.0444 67.9707 11.7951C68.2846 11.5458 68.517 11.218 68.6678 10.8118C68.8186 10.4055 68.894 9.96544 68.894 9.49148C68.894 9.01752 68.8186 8.57588 68.6678 8.16655C68.517 7.75722 68.2846 7.42637 67.9707 7.17401C67.6568 6.92164 67.2567 6.79545 66.7704 6.79545C66.2842 6.79545 65.8841 6.92164 65.5701 7.17401C65.2562 7.42637 65.0239 7.75722 64.873 8.16655C64.7222 8.57588 64.6468 9.01752 64.6468 9.49148C64.6468 9.96544 64.7222 10.4055 64.873 10.8118C65.0239 11.218 65.2562 11.5458 65.5701 11.7951C65.8841 12.0444 66.2842 12.169 66.7704 12.169ZM72.7361 8.73438V13H71.6466V5.90909H72.6991V7.01705H72.7915C72.9577 6.65696 73.21 6.36766 73.5486 6.14915C73.8871 5.92756 74.3241 5.81676 74.8596 5.81676C75.3398 5.81676 75.7599 5.91525 76.1199 6.11222C76.48 6.30611 76.7601 6.60156 76.9601 6.99858C77.1602 7.39252 77.2602 7.8911 77.2602 8.49432V13H76.1707V8.56818C76.1707 8.01113 76.0261 7.57718 75.7368 7.26633C75.4475 6.95241 75.0505 6.79545 74.5457 6.79545C74.1979 6.79545 73.8871 6.87086 73.6132 7.02166C73.3424 7.17247 73.1285 7.39252 72.9715 7.68182C72.8145 7.97112 72.7361 8.32197 72.7361 8.73438ZM81.9286 13.1477C81.3377 13.1477 80.8161 12.9985 80.3636 12.6999C79.9112 12.3983 79.5573 11.9736 79.3018 11.4258C79.0464 10.8749 78.9187 10.224 78.9187 9.47301C78.9187 8.72822 79.0464 8.08191 79.3018 7.53409C79.5573 6.98627 79.9128 6.56309 80.3683 6.26456C80.8237 5.96603 81.35 5.81676 81.9471 5.81676C82.4087 5.81676 82.7734 5.8937 83.0412 6.04759C83.312 6.19839 83.5182 6.37074 83.6598 6.56463C83.8045 6.75544 83.9168 6.91241 83.9968 7.03551H84.0891V3.54545H85.1786V13H84.1261V11.9105H83.9968C83.9168 12.0398 83.8029 12.2029 83.6552 12.3999C83.5075 12.5937 83.2966 12.7676 83.0227 12.9215C82.7488 13.0723 82.3841 13.1477 81.9286 13.1477ZM82.0763 12.169C82.5134 12.169 82.8827 12.0552 83.1843 11.8274C83.4859 11.5966 83.7152 11.2781 83.8722 10.8718C84.0291 10.4625 84.1076 9.99006 84.1076 9.45455C84.1076 8.92519 84.0307 8.462 83.8768 8.06499C83.7229 7.66489 83.4951 7.35405 83.1935 7.13246C82.8919 6.90779 82.5195 6.79545 82.0763 6.79545C81.6147 6.79545 81.23 6.91394 80.9222 7.15092C80.6175 7.38482 80.3883 7.70336 80.2344 8.10653C80.0836 8.50663 80.0082 8.95597 80.0082 9.45455C80.0082 9.95928 80.0851 10.4179 80.239 10.8303C80.396 11.2396 80.6268 11.5658 80.9315 11.8089C81.2392 12.049 81.6209 12.169 82.0763 12.169ZM87.3253 13V5.90909H88.4148V13H87.3253ZM87.8793 4.72727C87.6669 4.72727 87.4838 4.65495 87.3299 4.5103C87.1791 4.36565 87.1037 4.19176 87.1037 3.98864C87.1037 3.78551 87.1791 3.61162 87.3299 3.46697C87.4838 3.32232 87.6669 3.25 87.8793 3.25C88.0916 3.25 88.2732 3.32232 88.424 3.46697C88.5779 3.61162 88.6548 3.78551 88.6548 3.98864C88.6548 4.19176 88.5779 4.36565 88.424 4.5103C88.2732 4.65495 88.0916 4.72727 87.8793 4.72727ZM93.4941 5.90909V6.83239H89.8193V5.90909H93.4941ZM90.8904 4.21023H91.9798V10.9688C91.9798 11.2765 92.0245 11.5073 92.1137 11.6612C92.2061 11.812 92.323 11.9136 92.4646 11.9659C92.6092 12.0152 92.7616 12.0398 92.9216 12.0398C93.0416 12.0398 93.1401 12.0336 93.2171 12.0213C93.294 12.0059 93.3556 11.9936 93.4017 11.9844L93.6233 12.9631C93.5494 12.9908 93.4463 13.0185 93.314 13.0462C93.1817 13.0769 93.0139 13.0923 92.8108 13.0923C92.503 13.0923 92.2014 13.0262 91.906 12.8938C91.6136 12.7615 91.3705 12.5599 91.1766 12.2891C90.9858 12.0182 90.8904 11.6766 90.8904 11.2642V4.21023ZM95.1329 13V5.90909H96.2224V13H95.1329ZM95.6869 4.72727C95.4745 4.72727 95.2914 4.65495 95.1375 4.5103C94.9867 4.36565 94.9113 4.19176 94.9113 3.98864C94.9113 3.78551 94.9867 3.61162 95.1375 3.46697C95.2914 3.32232 95.4745 3.25 95.6869 3.25C95.8992 3.25 96.0808 3.32232 96.2316 3.46697C96.3855 3.61162 96.4624 3.78551 96.4624 3.98864C96.4624 4.19176 96.3855 4.36565 96.2316 4.5103C96.0808 4.65495 95.8992 4.72727 95.6869 4.72727ZM101.099 13.1477C100.458 13.1477 99.8967 12.9954 99.4135 12.6907C98.9334 12.386 98.5579 11.9598 98.2871 11.4119C98.0194 10.8641 97.8855 10.224 97.8855 9.49148C97.8855 8.75284 98.0194 8.10807 98.2871 7.55717C98.5579 7.00627 98.9334 6.57848 99.4135 6.27379C99.8967 5.96911 100.458 5.81676 101.099 5.81676C101.739 5.81676 102.299 5.96911 102.779 6.27379C103.262 6.57848 103.638 7.00627 103.905 7.55717C104.176 8.10807 104.312 8.75284 104.312 9.49148C104.312 10.224 104.176 10.8641 103.905 11.4119C103.638 11.9598 103.262 12.386 102.779 12.6907C102.299 12.9954 101.739 13.1477 101.099 13.1477ZM101.099 12.169C101.585 12.169 101.985 12.0444 102.299 11.7951C102.613 11.5458 102.845 11.218 102.996 10.8118C103.147 10.4055 103.222 9.96544 103.222 9.49148C103.222 9.01752 103.147 8.57588 102.996 8.16655C102.845 7.75722 102.613 7.42637 102.299 7.17401C101.985 6.92164 101.585 6.79545 101.099 6.79545C100.612 6.79545 100.212 6.92164 99.8983 7.17401C99.5843 7.42637 99.352 7.75722 99.2012 8.16655C99.0504 8.57588 98.975 9.01752 98.975 9.49148C98.975 9.96544 99.0504 10.4055 99.2012 10.8118C99.352 11.218 99.5843 11.5458 99.8983 11.7951C100.212 12.0444 100.612 12.169 101.099 12.169ZM107.064 8.73438V13H105.975V5.90909H107.027V7.01705H107.12C107.286 6.65696 107.538 6.36766 107.877 6.14915C108.215 5.92756 108.652 5.81676 109.188 5.81676C109.668 5.81676 110.088 5.91525 110.448 6.11222C110.808 6.30611 111.088 6.60156 111.288 6.99858C111.488 7.39252 111.588 7.8911 111.588 8.49432V13H110.499V8.56818C110.499 8.01113 110.354 7.57718 110.065 7.26633C109.776 6.95241 109.379 6.79545 108.874 6.79545C108.526 6.79545 108.215 6.87086 107.941 7.02166C107.67 7.17247 107.457 7.39252 107.3 7.68182C107.143 7.97112 107.064 8.32197 107.064 8.73438ZM118.602 7.49716L117.623 7.77415C117.562 7.61103 117.471 7.45253 117.351 7.29865C117.234 7.14169 117.074 7.01243 116.871 6.91087C116.668 6.8093 116.408 6.75852 116.091 6.75852C115.657 6.75852 115.295 6.85855 115.006 7.05859C114.719 7.25556 114.576 7.50639 114.576 7.81108C114.576 8.08191 114.675 8.29581 114.872 8.45277C115.069 8.60973 115.377 8.74053 115.795 8.84517L116.848 9.10369C117.482 9.25758 117.954 9.49302 118.265 9.81001C118.576 10.1239 118.731 10.5286 118.731 11.0241C118.731 11.4304 118.614 11.7936 118.38 12.1136C118.15 12.4337 117.826 12.6861 117.411 12.8707C116.995 13.0554 116.512 13.1477 115.961 13.1477C115.238 13.1477 114.639 12.9908 114.165 12.6768C113.692 12.3629 113.391 11.9044 113.265 11.3011L114.299 11.0426C114.398 11.4242 114.584 11.7105 114.858 11.9013C115.135 12.0921 115.497 12.1875 115.943 12.1875C116.451 12.1875 116.854 12.0798 117.152 11.8643C117.454 11.6458 117.605 11.3842 117.605 11.0795C117.605 10.8333 117.519 10.6271 117.346 10.4609C117.174 10.2917 116.909 10.1655 116.552 10.0824L115.37 9.8054C114.721 9.65152 114.244 9.413 113.939 9.08984C113.638 8.76361 113.487 8.35582 113.487 7.86648C113.487 7.46638 113.599 7.11245 113.824 6.80469C114.052 6.49692 114.361 6.25533 114.752 6.0799C115.146 5.90447 115.592 5.81676 116.091 5.81676C116.792 5.81676 117.343 5.97064 117.743 6.27841C118.146 6.58617 118.433 6.99242 118.602 7.49716ZM129.272 0.498579V16.0469H128.348V0.498579H129.272ZM143.053 13V3.54545H146.248C146.989 3.54545 147.596 3.67933 148.067 3.94709C148.541 4.21177 148.891 4.57031 149.119 5.02273C149.347 5.47514 149.461 5.97988 149.461 6.53693C149.461 7.09399 149.347 7.60026 149.119 8.05575C148.894 8.51125 148.547 8.87441 148.076 9.14524C147.605 9.413 147.002 9.54688 146.266 9.54688H143.976V8.53125H146.229C146.737 8.53125 147.145 8.44354 147.453 8.26811C147.76 8.09268 147.983 7.85571 148.122 7.55717C148.264 7.25556 148.334 6.91548 148.334 6.53693C148.334 6.15838 148.264 5.81984 148.122 5.52131C147.983 5.22277 147.759 4.98887 147.448 4.8196C147.137 4.64725 146.725 4.56108 146.211 4.56108H144.198V13H143.053ZM151.157 13V5.90909H152.21V6.98011H152.284C152.413 6.62926 152.647 6.34458 152.985 6.12606C153.324 5.90755 153.706 5.79829 154.13 5.79829C154.21 5.79829 154.31 5.79983 154.43 5.80291C154.55 5.80599 154.641 5.81061 154.703 5.81676V6.92472C154.666 6.91548 154.581 6.90163 154.449 6.88317C154.32 6.86162 154.183 6.85085 154.038 6.85085C153.693 6.85085 153.386 6.92318 153.115 7.06783C152.847 7.2094 152.635 7.40637 152.478 7.65874C152.324 7.90803 152.247 8.19271 152.247 8.51278V13H151.157ZM155.994 13V5.90909H157.084V13H155.994ZM156.548 4.72727C156.336 4.72727 156.153 4.65495 155.999 4.5103C155.848 4.36565 155.773 4.19176 155.773 3.98864C155.773 3.78551 155.848 3.61162 155.999 3.46697C156.153 3.32232 156.336 3.25 156.548 3.25C156.761 3.25 156.942 3.32232 157.093 3.46697C157.247 3.61162 157.324 3.78551 157.324 3.98864C157.324 4.19176 157.247 4.36565 157.093 4.5103C156.942 4.65495 156.761 4.72727 156.548 4.72727ZM164.877 5.90909L162.255 13H161.147L158.525 5.90909H159.707L161.664 11.5597H161.738L163.696 5.90909H164.877ZM168.186 13.1662C167.737 13.1662 167.329 13.0816 166.963 12.9123C166.597 12.7399 166.306 12.4922 166.09 12.169C165.875 11.8428 165.767 11.4489 165.767 10.9872C165.767 10.581 165.847 10.2517 166.007 9.99929C166.167 9.74384 166.381 9.5438 166.649 9.39915C166.917 9.2545 167.212 9.14678 167.535 9.07599C167.862 9.00213 168.189 8.94366 168.519 8.90057C168.95 8.84517 169.299 8.80362 169.567 8.77592C169.838 8.74515 170.034 8.69437 170.158 8.62358C170.284 8.55279 170.347 8.42969 170.347 8.25426V8.21733C170.347 7.76184 170.222 7.40791 169.973 7.15554C169.727 6.90317 169.353 6.77699 168.851 6.77699C168.331 6.77699 167.923 6.89086 167.628 7.11861C167.332 7.34635 167.125 7.58949 167.005 7.84801L165.97 7.47869C166.155 7.04782 166.401 6.71236 166.709 6.4723C167.02 6.22917 167.358 6.0599 167.725 5.96449C168.094 5.866 168.457 5.81676 168.814 5.81676C169.042 5.81676 169.304 5.84446 169.599 5.89986C169.898 5.95218 170.185 6.06143 170.462 6.22763C170.742 6.39382 170.975 6.64465 171.159 6.98011C171.344 7.31558 171.436 7.76491 171.436 8.32812V13H170.347V12.0398H170.291C170.218 12.1937 170.094 12.3583 169.922 12.5337C169.75 12.7092 169.521 12.8584 169.234 12.9815C168.948 13.1046 168.599 13.1662 168.186 13.1662ZM168.353 12.1875C168.783 12.1875 169.147 12.1029 169.442 11.9336C169.741 11.7643 169.965 11.5458 170.116 11.2781C170.27 11.0103 170.347 10.7287 170.347 10.4332V9.43608C170.301 9.49148 170.199 9.54226 170.042 9.58842C169.888 9.63151 169.71 9.66998 169.507 9.70383C169.307 9.73461 169.111 9.76231 168.92 9.78693C168.733 9.80848 168.58 9.82694 168.463 9.84233C168.18 9.87926 167.916 9.93928 167.669 10.0224C167.426 10.1024 167.229 10.224 167.078 10.3871C166.931 10.5471 166.857 10.7656 166.857 11.0426C166.857 11.4212 166.997 11.7074 167.277 11.9013C167.56 12.0921 167.919 12.1875 168.353 12.1875ZM176.306 13.1477C175.641 13.1477 175.068 12.9908 174.588 12.6768C174.108 12.3629 173.739 11.9305 173.48 11.3796C173.222 10.8287 173.093 10.1993 173.093 9.49148C173.093 8.77131 173.225 8.13577 173.49 7.58487C173.757 7.03089 174.13 6.59848 174.607 6.28764C175.087 5.97372 175.647 5.81676 176.287 5.81676C176.786 5.81676 177.235 5.90909 177.635 6.09375C178.035 6.27841 178.363 6.53693 178.618 6.86932C178.874 7.2017 179.032 7.58949 179.094 8.03267H178.004C177.921 7.70952 177.737 7.4233 177.45 7.17401C177.167 6.92164 176.786 6.79545 176.306 6.79545C175.881 6.79545 175.508 6.90625 175.188 7.12784C174.871 7.34635 174.624 7.65566 174.445 8.05575C174.27 8.45277 174.182 8.91903 174.182 9.45455C174.182 10.0024 174.268 10.4794 174.441 10.8857C174.616 11.2919 174.862 11.6074 175.179 11.832C175.499 12.0567 175.875 12.169 176.306 12.169C176.589 12.169 176.846 12.1198 177.077 12.0213C177.307 11.9228 177.503 11.7812 177.663 11.5966C177.823 11.4119 177.937 11.1903 178.004 10.9318H179.094C179.032 11.3504 178.88 11.7274 178.637 12.0629C178.397 12.3952 178.078 12.6599 177.681 12.8569C177.287 13.0508 176.829 13.1477 176.306 13.1477ZM181.388 15.6591C181.204 15.6591 181.039 15.6437 180.894 15.6129C180.75 15.5852 180.65 15.5575 180.594 15.5298L180.871 14.5696C181.136 14.6373 181.37 14.6619 181.573 14.6435C181.776 14.625 181.956 14.5342 182.113 14.3711C182.273 14.2111 182.419 13.951 182.552 13.5909L182.755 13.0369L180.133 5.90909H181.314L183.272 11.5597H183.346L185.303 5.90909H186.485L183.475 14.0341C183.34 14.4003 183.172 14.7035 182.972 14.9435C182.772 15.1867 182.539 15.3667 182.275 15.4837C182.013 15.6006 181.718 15.6591 181.388 15.6591ZM191.727 13V3.54545H194.922C195.663 3.54545 196.27 3.67933 196.74 3.94709C197.214 4.21177 197.565 4.57031 197.793 5.02273C198.021 5.47514 198.135 5.97988 198.135 6.53693C198.135 7.09399 198.021 7.60026 197.793 8.05575C197.568 8.51125 197.221 8.87441 196.75 9.14524C196.279 9.413 195.676 9.54688 194.94 9.54688H192.65V8.53125H194.903C195.411 8.53125 195.819 8.44354 196.126 8.26811C196.434 8.09268 196.657 7.85571 196.796 7.55717C196.937 7.25556 197.008 6.91548 197.008 6.53693C197.008 6.15838 196.937 5.81984 196.796 5.52131C196.657 5.22277 196.433 4.98887 196.122 4.8196C195.811 4.64725 195.399 4.56108 194.885 4.56108H192.872V13H191.727ZM202.636 13.1477C201.996 13.1477 201.434 12.9954 200.951 12.6907C200.471 12.386 200.095 11.9598 199.824 11.4119C199.556 10.8641 199.423 10.224 199.423 9.49148C199.423 8.75284 199.556 8.10807 199.824 7.55717C200.095 7.00627 200.471 6.57848 200.951 6.27379C201.434 5.96911 201.996 5.81676 202.636 5.81676C203.276 5.81676 203.836 5.96911 204.316 6.27379C204.799 6.57848 205.175 7.00627 205.442 7.55717C205.713 8.10807 205.849 8.75284 205.849 9.49148C205.849 10.224 205.713 10.8641 205.442 11.4119C205.175 11.9598 204.799 12.386 204.316 12.6907C203.836 12.9954 203.276 13.1477 202.636 13.1477ZM202.636 12.169C203.122 12.169 203.522 12.0444 203.836 11.7951C204.15 11.5458 204.382 11.218 204.533 10.8118C204.684 10.4055 204.759 9.96544 204.759 9.49148C204.759 9.01752 204.684 8.57588 204.533 8.16655C204.382 7.75722 204.15 7.42637 203.836 7.17401C203.522 6.92164 203.122 6.79545 202.636 6.79545C202.149 6.79545 201.749 6.92164 201.435 7.17401C201.121 7.42637 200.889 7.75722 200.738 8.16655C200.587 8.57588 200.512 9.01752 200.512 9.49148C200.512 9.96544 200.587 10.4055 200.738 10.8118C200.889 11.218 201.121 11.5458 201.435 11.7951C201.749 12.0444 202.149 12.169 202.636 12.169ZM208.601 3.54545V13H207.512V3.54545H208.601ZM210.597 13V5.90909H211.686V13H210.597ZM211.151 4.72727C210.938 4.72727 210.755 4.65495 210.601 4.5103C210.451 4.36565 210.375 4.19176 210.375 3.98864C210.375 3.78551 210.451 3.61162 210.601 3.46697C210.755 3.32232 210.938 3.25 211.151 3.25C211.363 3.25 211.545 3.32232 211.695 3.46697C211.849 3.61162 211.926 3.78551 211.926 3.98864C211.926 4.19176 211.849 4.36565 211.695 4.5103C211.545 4.65495 211.363 4.72727 211.151 4.72727ZM216.562 13.1477C215.898 13.1477 215.325 12.9908 214.845 12.6768C214.365 12.3629 213.996 11.9305 213.737 11.3796C213.479 10.8287 213.349 10.1993 213.349 9.49148C213.349 8.77131 213.482 8.13577 213.746 7.58487C214.014 7.03089 214.387 6.59848 214.864 6.28764C215.344 5.97372 215.904 5.81676 216.544 5.81676C217.043 5.81676 217.492 5.90909 217.892 6.09375C218.292 6.27841 218.62 6.53693 218.875 6.86932C219.131 7.2017 219.289 7.58949 219.351 8.03267H218.261C218.178 7.70952 217.994 7.4233 217.707 7.17401C217.424 6.92164 217.043 6.79545 216.562 6.79545C216.138 6.79545 215.765 6.90625 215.445 7.12784C215.128 7.34635 214.88 7.65566 214.702 8.05575C214.527 8.45277 214.439 8.91903 214.439 9.45455C214.439 10.0024 214.525 10.4794 214.697 10.8857C214.873 11.2919 215.119 11.6074 215.436 11.832C215.756 12.0567 216.132 12.169 216.562 12.169C216.846 12.169 217.103 12.1198 217.333 12.0213C217.564 11.9228 217.76 11.7812 217.92 11.5966C218.08 11.4119 218.194 11.1903 218.261 10.9318H219.351C219.289 11.3504 219.137 11.7274 218.894 12.0629C218.654 12.3952 218.335 12.6599 217.938 12.8569C217.544 13.0508 217.086 13.1477 216.562 13.1477ZM221.645 15.6591C221.46 15.6591 221.296 15.6437 221.151 15.6129C221.007 15.5852 220.907 15.5575 220.851 15.5298L221.128 14.5696C221.393 14.6373 221.627 14.6619 221.83 14.6435C222.033 14.625 222.213 14.5342 222.37 14.3711C222.53 14.2111 222.676 13.951 222.809 13.5909L223.012 13.0369L220.389 5.90909H221.571L223.529 11.5597H223.603L225.56 5.90909H226.742L223.732 14.0341C223.596 14.4003 223.429 14.7035 223.229 14.9435C223.029 15.1867 222.796 15.3667 222.532 15.4837C222.27 15.6006 221.974 15.6591 221.645 15.6591Z" fill="#667085"/>
</svg>
