<svg width="439" height="17" viewBox="0 0 439 17" fill="none" xmlns="http://www.w3.org/2000/svg">
<path opacity="0.8" d="M2.25 8.27273C2.25 7.76799 2.37311 7.30788 2.61932 6.8924C2.86553 6.47692 3.19638 6.14607 3.61186 5.89986C4.02734 5.65365 4.48745 5.53054 4.99219 5.53054C5.42921 5.53054 5.83239 5.62441 6.20171 5.81214C6.5741 5.99988 6.88187 6.25687 7.125 6.5831C7.36813 6.90625 7.51894 7.27249 7.57742 7.68182H6.46023C6.39867 7.36482 6.22786 7.1063 5.9478 6.90625C5.66773 6.70312 5.3492 6.60156 4.99219 6.60156C4.68442 6.60156 4.40436 6.67696 4.15199 6.82777C3.89962 6.97857 3.69804 7.18016 3.54723 7.43253C3.39643 7.6849 3.32102 7.96496 3.32102 8.27273C3.32102 8.58049 3.39643 8.86056 3.54723 9.11293C3.69804 9.36529 3.89962 9.56688 4.15199 9.71768C4.40436 9.86849 4.68442 9.94389 4.99219 9.94389C5.3492 9.94389 5.65081 9.84387 5.89702 9.64382C6.14631 9.4407 6.30327 9.18063 6.3679 8.86364H7.48509C7.42661 9.27296 7.2835 9.64074 7.05575 9.96697C6.82801 10.2901 6.53563 10.5456 6.17862 10.7333C5.82469 10.921 5.42921 11.0149 4.99219 11.0149C4.48745 11.0149 4.02734 10.8918 3.61186 10.6456C3.19638 10.3994 2.86553 10.0685 2.61932 9.65305C2.37311 9.23757 2.25 8.77746 2.25 8.27273ZM4.94602 13.1477C4.27509 13.1477 3.64418 13.0215 3.05327 12.7692C2.46544 12.5168 1.94685 12.1675 1.49751 11.7212C1.05125 11.2719 0.700402 10.7533 0.444957 10.1655C0.19259 9.57765 0.0679451 8.94673 0.0710228 8.27273C0.0741004 7.59872 0.201823 6.9678 0.45419 6.37997C0.709635 5.79214 1.06049 5.27509 1.50675 4.82884C1.95301 4.3795 2.47005 4.02865 3.05788 3.77628C3.64572 3.52391 4.27509 3.39773 4.94602 3.39773C5.62003 3.39773 6.25095 3.52391 6.83878 3.77628C7.42969 4.02865 7.94673 4.3795 8.38992 4.82884C8.83617 5.27509 9.18549 5.79214 9.43786 6.37997C9.69022 6.9678 9.81795 7.59872 9.82102 8.27273C9.8241 8.94673 9.69946 9.57765 9.44709 10.1655C9.19472 10.7533 8.84541 11.2719 8.39915 11.7212C7.95289 12.1675 7.4343 12.5168 6.84339 12.7692C6.25249 13.0215 5.62003 13.1477 4.94602 13.1477ZM4.94602 12.0767C5.4723 12.0767 5.96626 11.9782 6.42791 11.7812C6.88956 11.5843 7.29427 11.3119 7.64205 10.9641C7.98982 10.6164 8.26219 10.2132 8.45916 9.75462C8.65613 9.29297 8.75308 8.80054 8.75 8.27734C8.74692 7.75107 8.6469 7.2571 8.44993 6.79545C8.25296 6.33381 7.98059 5.9291 7.63281 5.58132C7.28504 5.23355 6.88187 4.96117 6.4233 4.7642C5.96473 4.56723 5.4723 4.46875 4.94602 4.46875C4.42282 4.46875 3.93194 4.56723 3.47337 4.7642C3.0148 4.96117 2.61162 5.23508 2.26385 5.58594C1.91607 5.93371 1.64216 6.33842 1.44212 6.80007C1.24515 7.25864 1.14512 7.75107 1.14205 8.27734C1.13897 8.79747 1.23591 9.28835 1.43288 9.75C1.62985 10.2086 1.90223 10.6117 2.25 10.9595C2.60085 11.3073 3.00556 11.5812 3.46413 11.7812C3.92578 11.9782 4.41974 12.0767 4.94602 12.0767ZM15.5305 13V12.169L18.6512 8.75284C19.0174 8.35275 19.319 8.00497 19.556 7.70952C19.793 7.41098 19.9684 7.13092 20.0823 6.86932C20.1992 6.60464 20.2577 6.32765 20.2577 6.03835C20.2577 5.70597 20.1777 5.41821 20.0177 5.17507C19.8607 4.93194 19.6453 4.7442 19.3714 4.61186C19.0974 4.47952 18.7897 4.41335 18.4481 4.41335C18.0849 4.41335 17.7679 4.48875 17.4971 4.63956C17.2293 4.78729 17.0216 4.99503 16.8738 5.26278C16.7292 5.53054 16.6569 5.84446 16.6569 6.20454H15.5674C15.5674 5.65057 15.6951 5.1643 15.9506 4.74574C16.206 4.32718 16.5538 4.00095 16.9939 3.76704C17.4371 3.53314 17.9341 3.41619 18.485 3.41619C19.039 3.41619 19.5299 3.53314 19.9577 3.76704C20.3854 4.00095 20.7209 4.31641 20.964 4.71342C21.2072 5.11044 21.3287 5.55208 21.3287 6.03835C21.3287 6.38613 21.2657 6.72621 21.1395 7.05859C21.0164 7.3879 20.8009 7.75568 20.4932 8.16193C20.1885 8.5651 19.7653 9.05753 19.2236 9.6392L17.1001 11.9105V11.9844H21.4949V13H15.5305ZM26.4854 13.1293C25.7898 13.1293 25.1974 12.94 24.708 12.5614C24.2187 12.1798 23.8447 11.6274 23.5862 10.9041C23.3277 10.1778 23.1984 9.30066 23.1984 8.27273C23.1984 7.25095 23.3277 6.37843 23.5862 5.65518C23.8478 4.92886 24.2233 4.37488 24.7126 3.99325C25.205 3.60855 25.796 3.41619 26.4854 3.41619C27.1747 3.41619 27.7641 3.60855 28.2535 3.99325C28.7459 4.37488 29.1214 4.92886 29.3799 5.65518C29.6415 6.37843 29.7723 7.25095 29.7723 8.27273C29.7723 9.30066 29.643 10.1778 29.3845 10.9041C29.126 11.6274 28.752 12.1798 28.2627 12.5614C27.7733 12.94 27.1809 13.1293 26.4854 13.1293ZM26.4854 12.1136C27.1747 12.1136 27.7103 11.7812 28.0919 11.1165C28.4735 10.4517 28.6643 9.50379 28.6643 8.27273C28.6643 7.45407 28.5766 6.75698 28.4012 6.18146C28.2288 5.60594 27.9796 5.16738 27.6533 4.86577C27.3302 4.56416 26.9408 4.41335 26.4854 4.41335C25.8021 4.41335 25.2681 4.75035 24.8834 5.42436C24.4987 6.09529 24.3064 7.04474 24.3064 8.27273C24.3064 9.09138 24.3925 9.78693 24.5649 10.3594C24.7372 10.9318 24.985 11.3673 25.3081 11.6658C25.6344 11.9644 26.0268 12.1136 26.4854 12.1136ZM31.5265 13V12.169L34.6473 8.75284C35.0135 8.35275 35.3151 8.00497 35.5521 7.70952C35.7891 7.41098 35.9645 7.13092 36.0784 6.86932C36.1953 6.60464 36.2538 6.32765 36.2538 6.03835C36.2538 5.70597 36.1738 5.41821 36.0138 5.17507C35.8568 4.93194 35.6414 4.7442 35.3675 4.61186C35.0935 4.47952 34.7858 4.41335 34.4442 4.41335C34.081 4.41335 33.764 4.48875 33.4932 4.63956C33.2254 4.78729 33.0177 4.99503 32.8699 5.26278C32.7253 5.53054 32.653 5.84446 32.653 6.20454H31.5635C31.5635 5.65057 31.6912 5.1643 31.9466 4.74574C32.2021 4.32718 32.5499 4.00095 32.99 3.76704C33.4331 3.53314 33.9302 3.41619 34.4811 3.41619C35.0351 3.41619 35.526 3.53314 35.9537 3.76704C36.3815 4.00095 36.717 4.31641 36.9601 4.71342C37.2033 5.11044 37.3248 5.55208 37.3248 6.03835C37.3248 6.38613 37.2617 6.72621 37.1356 7.05859C37.0125 7.3879 36.797 7.75568 36.4893 8.16193C36.1846 8.5651 35.7614 9.05753 35.2197 9.6392L33.0961 11.9105V11.9844H37.491V13H31.5265ZM39.3976 13V12.169L42.5184 8.75284C42.8846 8.35275 43.1862 8.00497 43.4232 7.70952C43.6602 7.41098 43.8356 7.13092 43.9495 6.86932C44.0664 6.60464 44.1249 6.32765 44.1249 6.03835C44.1249 5.70597 44.0449 5.41821 43.8849 5.17507C43.7279 4.93194 43.5125 4.7442 43.2385 4.61186C42.9646 4.47952 42.6569 4.41335 42.3153 4.41335C41.9521 4.41335 41.6351 4.48875 41.3643 4.63956C41.0965 4.78729 40.8888 4.99503 40.741 5.26278C40.5964 5.53054 40.5241 5.84446 40.5241 6.20454H39.4346C39.4346 5.65057 39.5623 5.1643 39.8177 4.74574C40.0732 4.32718 40.421 4.00095 40.8611 3.76704C41.3042 3.53314 41.8013 3.41619 42.3522 3.41619C42.9062 3.41619 43.397 3.53314 43.8248 3.76704C44.2526 4.00095 44.5881 4.31641 44.8312 4.71342C45.0744 5.11044 45.1959 5.55208 45.1959 6.03835C45.1959 6.38613 45.1328 6.72621 45.0067 7.05859C44.8836 7.3879 44.6681 7.75568 44.3604 8.16193C44.0557 8.5651 43.6325 9.05753 43.0908 9.6392L40.9672 11.9105V11.9844H45.3621V13H39.3976ZM50.5741 4.56108V3.54545H57.665V4.56108H54.692V13H53.5471V4.56108H50.5741ZM62.7882 10.1009V5.90909H63.8777V13H62.7882V11.7997H62.7143C62.5481 12.1598 62.2896 12.466 61.9387 12.7184C61.5879 12.9677 61.1447 13.0923 60.6092 13.0923C60.166 13.0923 59.7721 12.9954 59.4274 12.8015C59.0827 12.6045 58.8118 12.3091 58.6149 11.9151C58.4179 11.5181 58.3194 11.018 58.3194 10.4148V5.90909H59.4089V10.3409C59.4089 10.858 59.5536 11.2704 59.8429 11.5781C60.1352 11.8859 60.5076 12.0398 60.96 12.0398C61.2309 12.0398 61.5063 11.9705 61.7864 11.832C62.0695 11.6935 62.3065 11.4812 62.4973 11.195C62.6912 10.9087 62.7882 10.544 62.7882 10.1009ZM68.9569 5.90909V6.83239H65.2822V5.90909H68.9569ZM66.3532 4.21023H67.4427V10.9688C67.4427 11.2765 67.4874 11.5073 67.5766 11.6612C67.6689 11.812 67.7859 11.9136 67.9275 11.9659C68.0721 12.0152 68.2245 12.0398 68.3845 12.0398C68.5045 12.0398 68.603 12.0336 68.68 12.0213C68.7569 12.0059 68.8184 11.9936 68.8646 11.9844L69.0862 12.9631C69.0123 12.9908 68.9092 13.0185 68.7769 13.0462C68.6446 13.0769 68.4768 13.0923 68.2737 13.0923C67.9659 13.0923 67.6643 13.0262 67.3689 12.8938C67.0765 12.7615 66.8334 12.5599 66.6395 12.2891C66.4487 12.0182 66.3532 11.6766 66.3532 11.2642V4.21023ZM73.4003 13.1477C72.7602 13.1477 72.1985 12.9954 71.7153 12.6907C71.2352 12.386 70.8597 11.9598 70.5889 11.4119C70.3211 10.8641 70.1872 10.224 70.1872 9.49148C70.1872 8.75284 70.3211 8.10807 70.5889 7.55717C70.8597 7.00627 71.2352 6.57848 71.7153 6.27379C72.1985 5.96911 72.7602 5.81676 73.4003 5.81676C74.0405 5.81676 74.6006 5.96911 75.0807 6.27379C75.5639 6.57848 75.9394 7.00627 76.2071 7.55717C76.478 8.10807 76.6134 8.75284 76.6134 9.49148C76.6134 10.224 76.478 10.8641 76.2071 11.4119C75.9394 11.9598 75.5639 12.386 75.0807 12.6907C74.6006 12.9954 74.0405 13.1477 73.4003 13.1477ZM73.4003 12.169C73.8866 12.169 74.2867 12.0444 74.6006 11.7951C74.9145 11.5458 75.1469 11.218 75.2977 10.8118C75.4485 10.4055 75.5239 9.96544 75.5239 9.49148C75.5239 9.01752 75.4485 8.57588 75.2977 8.16655C75.1469 7.75722 74.9145 7.42637 74.6006 7.17401C74.2867 6.92164 73.8866 6.79545 73.4003 6.79545C72.914 6.79545 72.5139 6.92164 72.2 7.17401C71.8861 7.42637 71.6537 7.75722 71.5029 8.16655C71.3521 8.57588 71.2767 9.01752 71.2767 9.49148C71.2767 9.96544 71.3521 10.4055 71.5029 10.8118C71.6537 11.218 71.8861 11.5458 72.2 11.7951C72.5139 12.0444 72.914 12.169 73.4003 12.169ZM78.2765 13V5.90909H79.329V6.98011H79.4029C79.5321 6.62926 79.766 6.34458 80.1046 6.12606C80.4431 5.90755 80.8248 5.79829 81.2495 5.79829C81.3295 5.79829 81.4295 5.79983 81.5495 5.80291C81.6696 5.80599 81.7604 5.81061 81.8219 5.81676V6.92472C81.785 6.91548 81.7003 6.90163 81.568 6.88317C81.4387 6.86162 81.3018 6.85085 81.1571 6.85085C80.8124 6.85085 80.5047 6.92318 80.2338 7.06783C79.9661 7.2094 79.7537 7.40637 79.5968 7.65874C79.4429 7.90803 79.3659 8.19271 79.3659 8.51278V13H78.2765ZM83.1134 13V5.90909H84.2029V13H83.1134ZM83.6673 4.72727C83.455 4.72727 83.2719 4.65495 83.118 4.5103C82.9672 4.36565 82.8918 4.19176 82.8918 3.98864C82.8918 3.78551 82.9672 3.61162 83.118 3.46697C83.2719 3.32232 83.455 3.25 83.6673 3.25C83.8797 3.25 84.0613 3.32232 84.2121 3.46697C84.366 3.61162 84.4429 3.78551 84.4429 3.98864C84.4429 4.19176 84.366 4.36565 84.2121 4.5103C84.0613 4.65495 83.8797 4.72727 83.6673 4.72727ZM88.285 13.1662C87.8356 13.1662 87.4279 13.0816 87.0616 12.9123C86.6954 12.7399 86.4045 12.4922 86.1891 12.169C85.9737 11.8428 85.8659 11.4489 85.8659 10.9872C85.8659 10.581 85.946 10.2517 86.106 9.99929C86.266 9.74384 86.4799 9.5438 86.7477 9.39915C87.0154 9.2545 87.3109 9.14678 87.6341 9.07599C87.9603 9.00213 88.2881 8.94366 88.6174 8.90057C89.0482 8.84517 89.3975 8.80362 89.6653 8.77592C89.9361 8.74515 90.1331 8.69437 90.2562 8.62358C90.3824 8.55279 90.4455 8.42969 90.4455 8.25426V8.21733C90.4455 7.76184 90.3208 7.40791 90.0716 7.15554C89.8253 6.90317 89.4514 6.77699 88.9498 6.77699C88.4296 6.77699 88.0218 6.89086 87.7264 7.11861C87.4309 7.34635 87.2232 7.58949 87.1032 7.84801L86.0691 7.47869C86.2537 7.04782 86.4999 6.71236 86.8077 6.4723C87.1185 6.22917 87.4571 6.0599 87.8233 5.96449C88.1926 5.866 88.5558 5.81676 88.9128 5.81676C89.1406 5.81676 89.4022 5.84446 89.6976 5.89986C89.9962 5.95218 90.2839 6.06143 90.5609 6.22763C90.841 6.39382 91.0733 6.64465 91.258 6.98011C91.4426 7.31558 91.535 7.76491 91.535 8.32812V13H90.4455V12.0398H90.3901C90.3162 12.1937 90.1931 12.3583 90.0208 12.5337C89.8484 12.7092 89.6191 12.8584 89.3329 12.9815C89.0467 13.1046 88.6974 13.1662 88.285 13.1662ZM88.4512 12.1875C88.882 12.1875 89.2452 12.1029 89.5407 11.9336C89.8392 11.7643 90.0639 11.5458 90.2147 11.2781C90.3685 11.0103 90.4455 10.7287 90.4455 10.4332V9.43608C90.3993 9.49148 90.2978 9.54226 90.1408 9.58842C89.9869 9.63151 89.8084 9.66998 89.6053 9.70383C89.4052 9.73461 89.2098 9.76231 89.019 9.78693C88.8313 9.80848 88.6789 9.82694 88.562 9.84233C88.2788 9.87926 88.0141 9.93928 87.7679 10.0224C87.5248 10.1024 87.3278 10.224 87.177 10.3871C87.0293 10.5471 86.9554 10.7656 86.9554 11.0426C86.9554 11.4212 87.0955 11.7074 87.3755 11.9013C87.6587 12.0921 88.0172 12.1875 88.4512 12.1875ZM94.613 3.54545V13H93.5235V3.54545H94.613ZM101.631 7.49716L100.653 7.77415C100.591 7.61103 100.5 7.45253 100.38 7.29865C100.263 7.14169 100.103 7.01243 99.9 6.91087C99.6969 6.8093 99.4368 6.75852 99.1199 6.75852C98.6859 6.75852 98.3243 6.85855 98.035 7.05859C97.7488 7.25556 97.6056 7.50639 97.6056 7.81108C97.6056 8.08191 97.7041 8.29581 97.9011 8.45277C98.0981 8.60973 98.4058 8.74053 98.8244 8.84517L99.877 9.10369C100.511 9.25758 100.983 9.49302 101.294 9.81001C101.605 10.1239 101.76 10.5286 101.76 11.0241C101.76 11.4304 101.644 11.7936 101.41 12.1136C101.179 12.4337 100.856 12.6861 100.44 12.8707C100.025 13.0554 99.5415 13.1477 98.9906 13.1477C98.2673 13.1477 97.6687 12.9908 97.1948 12.6768C96.7208 12.3629 96.4208 11.9044 96.2946 11.3011L97.3287 11.0426C97.4271 11.4242 97.6133 11.7105 97.8873 11.9013C98.1642 12.0921 98.5259 12.1875 98.9721 12.1875C99.4799 12.1875 99.8831 12.0798 100.182 11.8643C100.483 11.6458 100.634 11.3842 100.634 11.0795C100.634 10.8333 100.548 10.6271 100.376 10.4609C100.203 10.2917 99.9385 10.1655 99.5815 10.0824L98.3997 9.8054C97.7503 9.65152 97.2733 9.413 96.9686 9.08984C96.667 8.76361 96.5162 8.35582 96.5162 7.86648C96.5162 7.46638 96.6285 7.11245 96.8532 6.80469C97.0809 6.49692 97.3902 6.25533 97.7811 6.0799C98.175 5.90447 98.6213 5.81676 99.1199 5.81676C99.8216 5.81676 100.372 5.97064 100.773 6.27841C101.176 6.58617 101.462 6.99242 101.631 7.49716ZM106.558 5.90909V6.83239H102.736V5.90909H106.558ZM103.881 13V4.9304C103.881 4.52415 103.976 4.18561 104.167 3.91477C104.358 3.64394 104.605 3.44081 104.91 3.3054C105.215 3.16998 105.536 3.10227 105.875 3.10227C106.143 3.10227 106.361 3.12382 106.53 3.1669C106.7 3.20999 106.826 3.25 106.909 3.28693L106.595 4.22869C106.54 4.21023 106.463 4.18714 106.364 4.15945C106.269 4.13175 106.143 4.1179 105.986 4.1179C105.626 4.1179 105.366 4.20869 105.206 4.39027C105.049 4.57185 104.97 4.83807 104.97 5.18892V13H103.881ZM108.085 13V5.90909H109.138V6.98011H109.211C109.341 6.62926 109.575 6.34458 109.913 6.12606C110.252 5.90755 110.633 5.79829 111.058 5.79829C111.138 5.79829 111.238 5.79983 111.358 5.80291C111.478 5.80599 111.569 5.81061 111.631 5.81676V6.92472C111.594 6.91548 111.509 6.90163 111.377 6.88317C111.247 6.86162 111.11 6.85085 110.966 6.85085C110.621 6.85085 110.313 6.92318 110.042 7.06783C109.775 7.2094 109.562 7.40637 109.405 7.65874C109.251 7.90803 109.175 8.19271 109.175 8.51278V13H108.085ZM115.679 13.1477C114.996 13.1477 114.407 12.9969 113.911 12.6953C113.419 12.3906 113.039 11.9659 112.771 11.4212C112.506 10.8733 112.374 10.2363 112.374 9.50994C112.374 8.78362 112.506 8.14347 112.771 7.58949C113.039 7.03243 113.411 6.59848 113.888 6.28764C114.368 5.97372 114.928 5.81676 115.568 5.81676C115.938 5.81676 116.302 5.87831 116.662 6.00142C117.023 6.12453 117.35 6.32457 117.646 6.60156C117.941 6.87547 118.177 7.23864 118.352 7.69105C118.528 8.14347 118.615 8.70052 118.615 9.36222V9.82386H113.149V8.8821H117.507C117.507 8.48201 117.427 8.125 117.267 7.81108C117.11 7.49716 116.886 7.24941 116.593 7.06783C116.304 6.88625 115.962 6.79545 115.568 6.79545C115.134 6.79545 114.759 6.90317 114.442 7.11861C114.128 7.33097 113.886 7.60795 113.717 7.94957C113.548 8.29119 113.463 8.65743 113.463 9.0483V9.67614C113.463 10.2116 113.556 10.6656 113.74 11.038C113.928 11.4073 114.188 11.6889 114.52 11.8828C114.853 12.0736 115.239 12.169 115.679 12.169C115.965 12.169 116.224 12.129 116.455 12.049C116.689 11.9659 116.89 11.8428 117.059 11.6797C117.229 11.5135 117.36 11.3073 117.452 11.0611L118.504 11.3565C118.394 11.7135 118.207 12.0275 117.946 12.2983C117.684 12.5661 117.361 12.7753 116.976 12.9261C116.592 13.0739 116.159 13.1477 115.679 13.1477ZM122.359 13.1662C121.91 13.1662 121.502 13.0816 121.136 12.9123C120.77 12.7399 120.479 12.4922 120.263 12.169C120.048 11.8428 119.94 11.4489 119.94 10.9872C119.94 10.581 120.02 10.2517 120.18 9.99929C120.34 9.74384 120.554 9.5438 120.822 9.39915C121.09 9.2545 121.385 9.14678 121.708 9.07599C122.035 9.00213 122.362 8.94366 122.692 8.90057C123.122 8.84517 123.472 8.80362 123.74 8.77592C124.01 8.74515 124.207 8.69437 124.33 8.62358C124.457 8.55279 124.52 8.42969 124.52 8.25426V8.21733C124.52 7.76184 124.395 7.40791 124.146 7.15554C123.9 6.90317 123.526 6.77699 123.024 6.77699C122.504 6.77699 122.096 6.89086 121.801 7.11861C121.505 7.34635 121.297 7.58949 121.177 7.84801L120.143 7.47869C120.328 7.04782 120.574 6.71236 120.882 6.4723C121.193 6.22917 121.531 6.0599 121.898 5.96449C122.267 5.866 122.63 5.81676 122.987 5.81676C123.215 5.81676 123.476 5.84446 123.772 5.89986C124.07 5.95218 124.358 6.06143 124.635 6.22763C124.915 6.39382 125.148 6.64465 125.332 6.98011C125.517 7.31558 125.609 7.76491 125.609 8.32812V13H124.52V12.0398H124.464C124.39 12.1937 124.267 12.3583 124.095 12.5337C123.923 12.7092 123.693 12.8584 123.407 12.9815C123.121 13.1046 122.772 13.1662 122.359 13.1662ZM122.525 12.1875C122.956 12.1875 123.319 12.1029 123.615 11.9336C123.913 11.7643 124.138 11.5458 124.289 11.2781C124.443 11.0103 124.52 10.7287 124.52 10.4332V9.43608C124.474 9.49148 124.372 9.54226 124.215 9.58842C124.061 9.63151 123.883 9.66998 123.68 9.70383C123.479 9.73461 123.284 9.76231 123.093 9.78693C122.905 9.80848 122.753 9.82694 122.636 9.84233C122.353 9.87926 122.088 9.93928 121.842 10.0224C121.599 10.1024 121.402 10.224 121.251 10.3871C121.104 10.5471 121.03 10.7656 121.03 11.0426C121.03 11.4212 121.17 11.7074 121.45 11.9013C121.733 12.0921 122.091 12.1875 122.525 12.1875ZM128.613 10.4148L128.595 9.06676H128.816L131.919 5.90909H133.267L129.961 9.25142H129.869L128.613 10.4148ZM127.598 13V3.54545H128.687V13H127.598ZM132.103 13L129.334 9.49148L130.109 8.73438L133.488 13H132.103ZM139.119 13.0739C138.892 13.0739 138.696 12.9923 138.533 12.8292C138.37 12.6661 138.288 12.4706 138.288 12.2429C138.288 12.0152 138.37 11.8197 138.533 11.6566C138.696 11.4935 138.892 11.4119 139.119 11.4119C139.347 11.4119 139.542 11.4935 139.706 11.6566C139.869 11.8197 139.95 12.0152 139.95 12.2429C139.95 12.3937 139.912 12.5322 139.835 12.6584C139.761 12.7846 139.661 12.8861 139.535 12.9631C139.412 13.0369 139.273 13.0739 139.119 13.0739ZM146.097 13H144.897L148.368 3.54545H149.55L153.022 13H151.822L148.996 5.04119H148.922L146.097 13ZM146.54 9.30682H151.378V10.3224H146.54V9.30682ZM155.436 3.54545V13H154.347V3.54545H155.436ZM158.521 3.54545V13H157.432V3.54545H158.521ZM164.321 13V3.54545H167.515C168.254 3.54545 168.86 3.67164 169.334 3.92401C169.808 4.17329 170.159 4.51645 170.387 4.95348C170.614 5.39051 170.728 5.88755 170.728 6.4446C170.728 7.00166 170.614 7.49562 170.387 7.92649C170.159 8.35736 169.81 8.6959 169.339 8.94212C168.868 9.18525 168.266 9.30682 167.534 9.30682H164.949V8.27273H167.497C168.002 8.27273 168.408 8.19886 168.716 8.05114C169.026 7.90341 169.251 7.69413 169.39 7.4233C169.531 7.14938 169.602 6.82315 169.602 6.4446C169.602 6.06605 169.531 5.7352 169.39 5.45206C169.248 5.16892 169.022 4.9504 168.711 4.79652C168.4 4.63956 167.989 4.56108 167.478 4.56108H165.466V13H164.321ZM168.771 8.75284L171.098 13H169.768L167.478 8.75284H168.771ZM172.488 13V5.90909H173.578V13H172.488ZM173.042 4.72727C172.83 4.72727 172.647 4.65495 172.493 4.5103C172.342 4.36565 172.267 4.19176 172.267 3.98864C172.267 3.78551 172.342 3.61162 172.493 3.46697C172.647 3.32232 172.83 3.25 173.042 3.25C173.255 3.25 173.436 3.32232 173.587 3.46697C173.741 3.61162 173.818 3.78551 173.818 3.98864C173.818 4.19176 173.741 4.36565 173.587 4.5103C173.436 4.65495 173.255 4.72727 173.042 4.72727ZM178.436 15.8068C177.909 15.8068 177.457 15.7391 177.078 15.6037C176.7 15.4714 176.384 15.2959 176.132 15.0774C175.883 14.862 175.684 14.6312 175.536 14.3849L176.404 13.7756C176.503 13.9048 176.627 14.0526 176.778 14.2188C176.929 14.388 177.135 14.5342 177.397 14.6573C177.662 14.7835 178.008 14.8466 178.436 14.8466C179.008 14.8466 179.48 14.7081 179.853 14.4311C180.225 14.1541 180.411 13.7202 180.411 13.1293V11.6889H180.319C180.239 11.8182 180.125 11.9782 179.977 12.169C179.833 12.3568 179.624 12.5245 179.35 12.6722C179.079 12.8169 178.713 12.8892 178.251 12.8892C177.678 12.8892 177.164 12.7538 176.709 12.483C176.257 12.2121 175.898 11.8182 175.633 11.3011C175.372 10.7841 175.241 10.1562 175.241 9.41761C175.241 8.69129 175.369 8.05883 175.624 7.52024C175.88 6.97857 176.235 6.56001 176.691 6.26456C177.146 5.96603 177.672 5.81676 178.269 5.81676C178.731 5.81676 179.097 5.8937 179.368 6.04759C179.642 6.19839 179.851 6.37074 179.996 6.56463C180.144 6.75544 180.258 6.91241 180.338 7.03551H180.448V5.90909H181.501V13.2031C181.501 13.8125 181.362 14.308 181.085 14.6896C180.811 15.0743 180.442 15.3559 179.977 15.5344C179.516 15.716 179.002 15.8068 178.436 15.8068ZM178.399 11.9105C178.836 11.9105 179.205 11.8105 179.507 11.6104C179.808 11.4104 180.037 11.1226 180.194 10.7472C180.351 10.3717 180.43 9.92235 180.43 9.39915C180.43 8.88826 180.353 8.43738 180.199 8.04652C180.045 7.65566 179.817 7.34943 179.516 7.12784C179.214 6.90625 178.842 6.79545 178.399 6.79545C177.937 6.79545 177.552 6.91241 177.244 7.14631C176.94 7.38021 176.711 7.69413 176.557 8.08807C176.406 8.48201 176.33 8.91903 176.33 9.39915C176.33 9.89157 176.407 10.3271 176.561 10.7056C176.718 11.0811 176.949 11.3765 177.254 11.592C177.561 11.8043 177.943 11.9105 178.399 11.9105ZM184.585 8.73438V13H183.495V3.54545H184.585V7.01705H184.677C184.843 6.6508 185.093 6.35997 185.425 6.14453C185.76 5.92602 186.207 5.81676 186.764 5.81676C187.247 5.81676 187.67 5.91371 188.033 6.1076C188.396 6.29841 188.678 6.59233 188.878 6.98935C189.081 7.38329 189.183 7.88494 189.183 8.49432V13H188.093V8.56818C188.093 8.00497 187.947 7.56948 187.655 7.26172C187.365 6.95088 186.964 6.79545 186.45 6.79545C186.093 6.79545 185.773 6.87086 185.49 7.02166C185.209 7.17247 184.988 7.39252 184.825 7.68182C184.665 7.97112 184.585 8.32197 184.585 8.73438ZM194.26 5.90909V6.83239H190.585V5.90909H194.26ZM191.656 4.21023H192.745V10.9688C192.745 11.2765 192.79 11.5073 192.879 11.6612C192.972 11.812 193.089 11.9136 193.23 11.9659C193.375 12.0152 193.527 12.0398 193.687 12.0398C193.807 12.0398 193.906 12.0336 193.983 12.0213C194.06 12.0059 194.121 11.9936 194.167 11.9844L194.389 12.9631C194.315 12.9908 194.212 13.0185 194.08 13.0462C193.947 13.0769 193.78 13.0923 193.576 13.0923C193.269 13.0923 192.967 13.0262 192.672 12.8938C192.379 12.7615 192.136 12.5599 191.942 12.2891C191.751 12.0182 191.656 11.6766 191.656 11.2642V4.21023ZM200.794 7.49716L199.816 7.77415C199.754 7.61103 199.663 7.45253 199.543 7.29865C199.426 7.14169 199.266 7.01243 199.063 6.91087C198.86 6.8093 198.6 6.75852 198.283 6.75852C197.849 6.75852 197.487 6.85855 197.198 7.05859C196.912 7.25556 196.769 7.50639 196.769 7.81108C196.769 8.08191 196.867 8.29581 197.064 8.45277C197.261 8.60973 197.569 8.74053 197.987 8.84517L199.04 9.10369C199.674 9.25758 200.146 9.49302 200.457 9.81001C200.768 10.1239 200.924 10.5286 200.924 11.0241C200.924 11.4304 200.807 11.7936 200.573 12.1136C200.342 12.4337 200.019 12.6861 199.603 12.8707C199.188 13.0554 198.705 13.1477 198.154 13.1477C197.43 13.1477 196.832 12.9908 196.358 12.6768C195.884 12.3629 195.584 11.9044 195.458 11.3011L196.492 11.0426C196.59 11.4242 196.776 11.7105 197.05 11.9013C197.327 12.0921 197.689 12.1875 198.135 12.1875C198.643 12.1875 199.046 12.0798 199.345 11.8643C199.646 11.6458 199.797 11.3842 199.797 11.0795C199.797 10.8333 199.711 10.6271 199.539 10.4609C199.366 10.2917 199.102 10.1655 198.745 10.0824L197.563 9.8054C196.913 9.65152 196.436 9.413 196.132 9.08984C195.83 8.76361 195.679 8.35582 195.679 7.86648C195.679 7.46638 195.792 7.11245 196.016 6.80469C196.244 6.49692 196.553 6.25533 196.944 6.0799C197.338 5.90447 197.784 5.81676 198.283 5.81676C198.985 5.81676 199.536 5.97064 199.936 6.27841C200.339 6.58617 200.625 6.99242 200.794 7.49716ZM206.368 13V3.54545H209.562C210.301 3.54545 210.907 3.67164 211.381 3.92401C211.855 4.17329 212.206 4.51645 212.434 4.95348C212.661 5.39051 212.775 5.88755 212.775 6.4446C212.775 7.00166 212.661 7.49562 212.434 7.92649C212.206 8.35736 211.857 8.6959 211.386 8.94212C210.915 9.18525 210.313 9.30682 209.581 9.30682H206.995V8.27273H209.544C210.048 8.27273 210.455 8.19886 210.762 8.05114C211.073 7.90341 211.298 7.69413 211.436 7.4233C211.578 7.14938 211.649 6.82315 211.649 6.4446C211.649 6.06605 211.578 5.7352 211.436 5.45206C211.295 5.16892 211.069 4.9504 210.758 4.79652C210.447 4.63956 210.036 4.56108 209.525 4.56108H207.512V13H206.368ZM210.818 8.75284L213.145 13H211.815L209.525 8.75284H210.818ZM217.432 13.1477C216.749 13.1477 216.159 12.9969 215.664 12.6953C215.172 12.3906 214.791 11.9659 214.524 11.4212C214.259 10.8733 214.127 10.2363 214.127 9.50994C214.127 8.78362 214.259 8.14347 214.524 7.58949C214.791 7.03243 215.164 6.59848 215.641 6.28764C216.121 5.97372 216.681 5.81676 217.321 5.81676C217.691 5.81676 218.055 5.87831 218.415 6.00142C218.775 6.12453 219.103 6.32457 219.399 6.60156C219.694 6.87547 219.93 7.23864 220.105 7.69105C220.28 8.14347 220.368 8.70052 220.368 9.36222V9.82386H214.902V8.8821H219.26C219.26 8.48201 219.18 8.125 219.02 7.81108C218.863 7.49716 218.639 7.24941 218.346 7.06783C218.057 6.88625 217.715 6.79545 217.321 6.79545C216.887 6.79545 216.512 6.90317 216.195 7.11861C215.881 7.33097 215.639 7.60795 215.47 7.94957C215.301 8.29119 215.216 8.65743 215.216 9.0483V9.67614C215.216 10.2116 215.309 10.6656 215.493 11.038C215.681 11.4073 215.941 11.6889 216.273 11.8828C216.606 12.0736 216.992 12.169 217.432 12.169C217.718 12.169 217.977 12.129 218.208 12.049C218.442 11.9659 218.643 11.8428 218.812 11.6797C218.982 11.5135 219.112 11.3073 219.205 11.0611L220.257 11.3565C220.147 11.7135 219.96 12.0275 219.699 12.2983C219.437 12.5661 219.114 12.7753 218.729 12.9261C218.345 13.0739 217.912 13.1477 217.432 13.1477ZM227.048 7.49716L226.07 7.77415C226.008 7.61103 225.917 7.45253 225.797 7.29865C225.68 7.14169 225.52 7.01243 225.317 6.91087C225.114 6.8093 224.854 6.75852 224.537 6.75852C224.103 6.75852 223.741 6.85855 223.452 7.05859C223.166 7.25556 223.023 7.50639 223.023 7.81108C223.023 8.08191 223.121 8.29581 223.318 8.45277C223.515 8.60973 223.823 8.74053 224.241 8.84517L225.294 9.10369C225.928 9.25758 226.4 9.49302 226.711 9.81001C227.022 10.1239 227.177 10.5286 227.177 11.0241C227.177 11.4304 227.061 11.7936 226.827 12.1136C226.596 12.4337 226.273 12.6861 225.857 12.8707C225.442 13.0554 224.958 13.1477 224.408 13.1477C223.684 13.1477 223.086 12.9908 222.612 12.6768C222.138 12.3629 221.838 11.9044 221.712 11.3011L222.746 11.0426C222.844 11.4242 223.03 11.7105 223.304 11.9013C223.581 12.0921 223.943 12.1875 224.389 12.1875C224.897 12.1875 225.3 12.0798 225.599 11.8643C225.9 11.6458 226.051 11.3842 226.051 11.0795C226.051 10.8333 225.965 10.6271 225.793 10.4609C225.62 10.2917 225.355 10.1655 224.998 10.0824L223.817 9.8054C223.167 9.65152 222.69 9.413 222.386 9.08984C222.084 8.76361 221.933 8.35582 221.933 7.86648C221.933 7.46638 222.045 7.11245 222.27 6.80469C222.498 6.49692 222.807 6.25533 223.198 6.0799C223.592 5.90447 224.038 5.81676 224.537 5.81676C225.239 5.81676 225.789 5.97064 226.19 6.27841C226.593 6.58617 226.879 6.99242 227.048 7.49716ZM231.79 13.1477C231.107 13.1477 230.518 12.9969 230.022 12.6953C229.53 12.3906 229.15 11.9659 228.882 11.4212C228.617 10.8733 228.485 10.2363 228.485 9.50994C228.485 8.78362 228.617 8.14347 228.882 7.58949C229.15 7.03243 229.522 6.59848 229.999 6.28764C230.479 5.97372 231.04 5.81676 231.68 5.81676C232.049 5.81676 232.414 5.87831 232.774 6.00142C233.134 6.12453 233.462 6.32457 233.757 6.60156C234.053 6.87547 234.288 7.23864 234.463 7.69105C234.639 8.14347 234.727 8.70052 234.727 9.36222V9.82386H229.261V8.8821H233.619C233.619 8.48201 233.539 8.125 233.379 7.81108C233.222 7.49716 232.997 7.24941 232.705 7.06783C232.415 6.88625 232.074 6.79545 231.68 6.79545C231.246 6.79545 230.87 6.90317 230.553 7.11861C230.239 7.33097 229.998 7.60795 229.828 7.94957C229.659 8.29119 229.575 8.65743 229.575 9.0483V9.67614C229.575 10.2116 229.667 10.6656 229.852 11.038C230.039 11.4073 230.299 11.6889 230.632 11.8828C230.964 12.0736 231.35 12.169 231.79 12.169C232.077 12.169 232.335 12.129 232.566 12.049C232.8 11.9659 233.002 11.8428 233.171 11.6797C233.34 11.5135 233.471 11.3073 233.563 11.0611L234.616 11.3565C234.505 11.7135 234.319 12.0275 234.057 12.2983C233.796 12.5661 233.472 12.7753 233.088 12.9261C232.703 13.0739 232.271 13.1477 231.79 13.1477ZM236.384 13V5.90909H237.436V6.98011H237.51C237.64 6.62926 237.873 6.34458 238.212 6.12606C238.551 5.90755 238.932 5.79829 239.357 5.79829C239.437 5.79829 239.537 5.79983 239.657 5.80291C239.777 5.80599 239.868 5.81061 239.929 5.81676V6.92472C239.892 6.91548 239.808 6.90163 239.675 6.88317C239.546 6.86162 239.409 6.85085 239.265 6.85085C238.92 6.85085 238.612 6.92318 238.341 7.06783C238.074 7.2094 237.861 7.40637 237.704 7.65874C237.55 7.90803 237.473 8.19271 237.473 8.51278V13H236.384ZM247.235 5.90909L244.613 13H243.505L240.883 5.90909H242.064L244.022 11.5597H244.096L246.053 5.90909H247.235ZM251.392 13.1477C250.709 13.1477 250.119 12.9969 249.624 12.6953C249.132 12.3906 248.751 11.9659 248.484 11.4212C248.219 10.8733 248.087 10.2363 248.087 9.50994C248.087 8.78362 248.219 8.14347 248.484 7.58949C248.751 7.03243 249.124 6.59848 249.601 6.28764C250.081 5.97372 250.641 5.81676 251.281 5.81676C251.651 5.81676 252.015 5.87831 252.375 6.00142C252.735 6.12453 253.063 6.32457 253.359 6.60156C253.654 6.87547 253.89 7.23864 254.065 7.69105C254.24 8.14347 254.328 8.70052 254.328 9.36222V9.82386H248.862V8.8821H253.22C253.22 8.48201 253.14 8.125 252.98 7.81108C252.823 7.49716 252.598 7.24941 252.306 7.06783C252.017 6.88625 251.675 6.79545 251.281 6.79545C250.847 6.79545 250.472 6.90317 250.155 7.11861C249.841 7.33097 249.599 7.60795 249.43 7.94957C249.261 8.29119 249.176 8.65743 249.176 9.0483V9.67614C249.176 10.2116 249.268 10.6656 249.453 11.038C249.641 11.4073 249.901 11.6889 250.233 11.8828C250.566 12.0736 250.952 12.169 251.392 12.169C251.678 12.169 251.937 12.129 252.168 12.049C252.402 11.9659 252.603 11.8428 252.772 11.6797C252.942 11.5135 253.072 11.3073 253.165 11.0611L254.217 11.3565C254.107 11.7135 253.92 12.0275 253.659 12.2983C253.397 12.5661 253.074 12.7753 252.689 12.9261C252.305 13.0739 251.872 13.1477 251.392 13.1477ZM258.663 13.1477C258.072 13.1477 257.55 12.9985 257.098 12.6999C256.646 12.3983 256.292 11.9736 256.036 11.4258C255.781 10.8749 255.653 10.224 255.653 9.47301C255.653 8.72822 255.781 8.08191 256.036 7.53409C256.292 6.98627 256.647 6.56309 257.103 6.26456C257.558 5.96603 258.084 5.81676 258.681 5.81676C259.143 5.81676 259.508 5.8937 259.776 6.04759C260.046 6.19839 260.253 6.37074 260.394 6.56463C260.539 6.75544 260.651 6.91241 260.731 7.03551H260.824V3.54545H261.913V13H260.86V11.9105H260.731C260.651 12.0398 260.537 12.2029 260.39 12.3999C260.242 12.5937 260.031 12.7676 259.757 12.9215C259.483 13.0723 259.118 13.1477 258.663 13.1477ZM258.811 12.169C259.248 12.169 259.617 12.0552 259.919 11.8274C260.22 11.5966 260.45 11.2781 260.607 10.8718C260.763 10.4625 260.842 9.99006 260.842 9.45455C260.842 8.92519 260.765 8.462 260.611 8.06499C260.457 7.66489 260.23 7.35405 259.928 7.13246C259.626 6.90779 259.254 6.79545 258.811 6.79545C258.349 6.79545 257.964 6.91394 257.657 7.15092C257.352 7.38482 257.123 7.70336 256.969 8.10653C256.818 8.50663 256.743 8.95597 256.743 9.45455C256.743 9.95928 256.819 10.4179 256.973 10.8303C257.13 11.2396 257.361 11.5658 257.666 11.8089C257.974 12.049 258.355 12.169 258.811 12.169ZM276.616 0.498579V16.0469H275.693V0.498579H276.616ZM293.315 13H290.398V3.54545H293.445C294.362 3.54545 295.147 3.73473 295.799 4.11328C296.452 4.48875 296.952 5.02888 297.299 5.73366C297.647 6.43537 297.821 7.27557 297.821 8.25426C297.821 9.23911 297.646 10.087 297.295 10.7979C296.944 11.5058 296.433 12.0505 295.762 12.4322C295.091 12.8107 294.276 13 293.315 13ZM291.543 11.9844H293.242C294.023 11.9844 294.671 11.8336 295.185 11.532C295.699 11.2304 296.082 10.801 296.335 10.244C296.587 9.68691 296.713 9.02367 296.713 8.25426C296.713 7.491 296.589 6.83393 296.339 6.28303C296.09 5.72905 295.718 5.30433 295.222 5.00888C294.727 4.71035 294.109 4.56108 293.371 4.56108H291.543V11.9844ZM302.567 13.1477C301.884 13.1477 301.294 12.9969 300.799 12.6953C300.306 12.3906 299.926 11.9659 299.658 11.4212C299.394 10.8733 299.261 10.2363 299.261 9.50994C299.261 8.78362 299.394 8.14347 299.658 7.58949C299.926 7.03243 300.299 6.59848 300.776 6.28764C301.256 5.97372 301.816 5.81676 302.456 5.81676C302.825 5.81676 303.19 5.87831 303.55 6.00142C303.91 6.12453 304.238 6.32457 304.533 6.60156C304.829 6.87547 305.064 7.23864 305.24 7.69105C305.415 8.14347 305.503 8.70052 305.503 9.36222V9.82386H300.037V8.8821H304.395C304.395 8.48201 304.315 8.125 304.155 7.81108C303.998 7.49716 303.773 7.24941 303.481 7.06783C303.192 6.88625 302.85 6.79545 302.456 6.79545C302.022 6.79545 301.647 6.90317 301.33 7.11861C301.016 7.33097 300.774 7.60795 300.605 7.94957C300.436 8.29119 300.351 8.65743 300.351 9.0483V9.67614C300.351 10.2116 300.443 10.6656 300.628 11.038C300.816 11.4073 301.076 11.6889 301.408 11.8828C301.741 12.0736 302.127 12.169 302.567 12.169C302.853 12.169 303.112 12.129 303.342 12.049C303.576 11.9659 303.778 11.8428 303.947 11.6797C304.116 11.5135 304.247 11.3073 304.34 11.0611L305.392 11.3565C305.281 11.7135 305.095 12.0275 304.834 12.2983C304.572 12.5661 304.249 12.7753 303.864 12.9261C303.479 13.0739 303.047 13.1477 302.567 13.1477ZM312.183 7.49716L311.204 7.77415C311.143 7.61103 311.052 7.45253 310.932 7.29865C310.815 7.14169 310.655 7.01243 310.452 6.91087C310.249 6.8093 309.989 6.75852 309.672 6.75852C309.238 6.75852 308.876 6.85855 308.587 7.05859C308.301 7.25556 308.157 7.50639 308.157 7.81108C308.157 8.08191 308.256 8.29581 308.453 8.45277C308.65 8.60973 308.958 8.74053 309.376 8.84517L310.429 9.10369C311.063 9.25758 311.535 9.49302 311.846 9.81001C312.157 10.1239 312.312 10.5286 312.312 11.0241C312.312 11.4304 312.195 11.7936 311.961 12.1136C311.731 12.4337 311.407 12.6861 310.992 12.8707C310.576 13.0554 310.093 13.1477 309.542 13.1477C308.819 13.1477 308.22 12.9908 307.747 12.6768C307.273 12.3629 306.973 11.9044 306.846 11.3011L307.88 11.0426C307.979 11.4242 308.165 11.7105 308.439 11.9013C308.716 12.0921 309.078 12.1875 309.524 12.1875C310.032 12.1875 310.435 12.0798 310.733 11.8643C311.035 11.6458 311.186 11.3842 311.186 11.0795C311.186 10.8333 311.1 10.6271 310.927 10.4609C310.755 10.2917 310.49 10.1655 310.133 10.0824L308.951 9.8054C308.302 9.65152 307.825 9.413 307.52 9.08984C307.219 8.76361 307.068 8.35582 307.068 7.86648C307.068 7.46638 307.18 7.11245 307.405 6.80469C307.633 6.49692 307.942 6.25533 308.333 6.0799C308.727 5.90447 309.173 5.81676 309.672 5.81676C310.373 5.81676 310.924 5.97064 311.324 6.27841C311.727 6.58617 312.014 6.99242 312.183 7.49716ZM313.952 13V5.90909H315.042V13H313.952ZM314.506 4.72727C314.294 4.72727 314.111 4.65495 313.957 4.5103C313.806 4.36565 313.731 4.19176 313.731 3.98864C313.731 3.78551 313.806 3.61162 313.957 3.46697C314.111 3.32232 314.294 3.25 314.506 3.25C314.719 3.25 314.9 3.32232 315.051 3.46697C315.205 3.61162 315.282 3.78551 315.282 3.98864C315.282 4.19176 315.205 4.36565 315.051 4.5103C314.9 4.65495 314.719 4.72727 314.506 4.72727ZM319.899 15.8068C319.373 15.8068 318.921 15.7391 318.542 15.6037C318.164 15.4714 317.848 15.2959 317.596 15.0774C317.347 14.862 317.148 14.6312 317 14.3849L317.868 13.7756C317.967 13.9048 318.091 14.0526 318.242 14.2188C318.393 14.388 318.599 14.5342 318.861 14.6573C319.125 14.7835 319.472 14.8466 319.899 14.8466C320.472 14.8466 320.944 14.7081 321.317 14.4311C321.689 14.1541 321.875 13.7202 321.875 13.1293V11.6889H321.783C321.703 11.8182 321.589 11.9782 321.441 12.169C321.297 12.3568 321.087 12.5245 320.813 12.6722C320.543 12.8169 320.176 12.8892 319.715 12.8892C319.142 12.8892 318.628 12.7538 318.173 12.483C317.72 12.2121 317.362 11.8182 317.097 11.3011C316.836 10.7841 316.705 10.1562 316.705 9.41761C316.705 8.69129 316.833 8.05883 317.088 7.52024C317.343 6.97857 317.699 6.56001 318.154 6.26456C318.61 5.96603 319.136 5.81676 319.733 5.81676C320.195 5.81676 320.561 5.8937 320.832 6.04759C321.106 6.19839 321.315 6.37074 321.46 6.56463C321.608 6.75544 321.721 6.91241 321.801 7.03551H321.912V5.90909H322.965V13.2031C322.965 13.8125 322.826 14.308 322.549 14.6896C322.275 15.0743 321.906 15.3559 321.441 15.5344C320.98 15.716 320.466 15.8068 319.899 15.8068ZM319.862 11.9105C320.3 11.9105 320.669 11.8105 320.97 11.6104C321.272 11.4104 321.501 11.1226 321.658 10.7472C321.815 10.3717 321.894 9.92235 321.894 9.39915C321.894 8.88826 321.817 8.43738 321.663 8.04652C321.509 7.65566 321.281 7.34943 320.98 7.12784C320.678 6.90625 320.306 6.79545 319.862 6.79545C319.401 6.79545 319.016 6.91241 318.708 7.14631C318.404 7.38021 318.174 7.69413 318.021 8.08807C317.87 8.48201 317.794 8.91903 317.794 9.39915C317.794 9.89157 317.871 10.3271 318.025 10.7056C318.182 11.0811 318.413 11.3765 318.718 11.592C319.025 11.8043 319.407 11.9105 319.862 11.9105ZM326.049 8.73438V13H324.959V5.90909H326.012V7.01705H326.104C326.27 6.65696 326.523 6.36766 326.861 6.14915C327.2 5.92756 327.637 5.81676 328.172 5.81676C328.652 5.81676 329.072 5.91525 329.432 6.11222C329.793 6.30611 330.073 6.60156 330.273 6.99858C330.473 7.39252 330.573 7.8911 330.573 8.49432V13H329.483V8.56818C329.483 8.01113 329.339 7.57718 329.049 7.26633C328.76 6.95241 328.363 6.79545 327.858 6.79545C327.51 6.79545 327.2 6.87086 326.926 7.02166C326.655 7.17247 326.441 7.39252 326.284 7.68182C326.127 7.97112 326.049 8.32197 326.049 8.73438ZM336.368 13V3.54545H339.673C340.332 3.54545 340.875 3.65933 341.303 3.88707C341.73 4.11174 342.049 4.41489 342.258 4.79652C342.467 5.17507 342.572 5.59517 342.572 6.05682C342.572 6.46307 342.5 6.79853 342.355 7.06321C342.214 7.32789 342.026 7.53717 341.792 7.69105C341.561 7.84493 341.31 7.95881 341.039 8.03267V8.125C341.329 8.14347 341.62 8.24503 341.912 8.42969C342.204 8.61435 342.449 8.87902 342.646 9.22372C342.843 9.56842 342.941 9.99006 342.941 10.4886C342.941 10.9626 342.834 11.3888 342.618 11.7674C342.403 12.146 342.063 12.446 341.598 12.6676C341.133 12.8892 340.529 13 339.784 13H336.368ZM337.512 11.9844H339.784C340.532 11.9844 341.063 11.8397 341.376 11.5504C341.693 11.258 341.852 10.9041 341.852 10.4886C341.852 10.1686 341.77 9.87311 341.607 9.60227C341.444 9.32836 341.212 9.10985 340.91 8.94673C340.609 8.78054 340.252 8.69744 339.839 8.69744H337.512V11.9844ZM337.512 7.70028H339.636C339.981 7.70028 340.292 7.63258 340.569 7.49716C340.849 7.36174 341.07 7.17093 341.233 6.92472C341.4 6.6785 341.483 6.3892 341.483 6.05682C341.483 5.64134 341.338 5.28894 341.049 4.99964C340.759 4.70727 340.301 4.56108 339.673 4.56108H337.512V7.70028ZM345.377 15.6591C345.192 15.6591 345.027 15.6437 344.883 15.6129C344.738 15.5852 344.638 15.5575 344.583 15.5298L344.86 14.5696C345.124 14.6373 345.358 14.6619 345.561 14.6435C345.764 14.625 345.944 14.5342 346.101 14.3711C346.261 14.2111 346.408 13.951 346.54 13.5909L346.743 13.0369L344.121 5.90909H345.303L347.26 11.5597H347.334L349.291 5.90909H350.473L347.463 14.0341C347.328 14.4003 347.16 14.7035 346.96 14.9435C346.76 15.1867 346.528 15.3667 346.263 15.4837C346.001 15.6006 345.706 15.6591 345.377 15.6591ZM357.433 13L354.847 3.54545H356.011L357.987 11.2457H358.079L360.092 3.54545H361.384L363.397 11.2457H363.489L365.465 3.54545H366.629L364.043 13H362.862L360.775 5.46591H360.701L358.614 13H357.433ZM372.486 7.49716L371.507 7.77415C371.445 7.61103 371.355 7.45253 371.235 7.29865C371.118 7.14169 370.958 7.01243 370.755 6.91087C370.551 6.8093 370.291 6.75852 369.974 6.75852C369.54 6.75852 369.179 6.85855 368.889 7.05859C368.603 7.25556 368.46 7.50639 368.46 7.81108C368.46 8.08191 368.559 8.29581 368.756 8.45277C368.953 8.60973 369.26 8.74053 369.679 8.84517L370.731 9.10369C371.365 9.25758 371.838 9.49302 372.149 9.81001C372.46 10.1239 372.615 10.5286 372.615 11.0241C372.615 11.4304 372.498 11.7936 372.264 12.1136C372.033 12.4337 371.71 12.6861 371.295 12.8707C370.879 13.0554 370.396 13.1477 369.845 13.1477C369.122 13.1477 368.523 12.9908 368.049 12.6768C367.575 12.3629 367.275 11.9044 367.149 11.3011L368.183 11.0426C368.282 11.4242 368.468 11.7105 368.742 11.9013C369.019 12.0921 369.38 12.1875 369.827 12.1875C370.334 12.1875 370.738 12.0798 371.036 11.8643C371.338 11.6458 371.489 11.3842 371.489 11.0795C371.489 10.8333 371.402 10.6271 371.23 10.4609C371.058 10.2917 370.793 10.1655 370.436 10.0824L369.254 9.8054C368.605 9.65152 368.128 9.413 367.823 9.08984C367.521 8.76361 367.371 8.35582 367.371 7.86648C367.371 7.46638 367.483 7.11245 367.708 6.80469C367.935 6.49692 368.245 6.25533 368.636 6.0799C369.03 5.90447 369.476 5.81676 369.974 5.81676C370.676 5.81676 371.227 5.97064 371.627 6.27841C372.03 6.58617 372.316 6.99242 372.486 7.49716ZM382.011 6.5H380.866C380.798 6.17069 380.68 5.88139 380.51 5.6321C380.344 5.38281 380.141 5.17353 379.901 5.00426C379.664 4.83191 379.401 4.70265 379.112 4.61648C378.822 4.5303 378.521 4.48722 378.207 4.48722C377.634 4.48722 377.116 4.63187 376.651 4.92116C376.189 5.21046 375.821 5.63672 375.548 6.19993C375.277 6.76314 375.141 7.45407 375.141 8.27273C375.141 9.09138 375.277 9.78232 375.548 10.3455C375.821 10.9087 376.189 11.335 376.651 11.6243C377.116 11.9136 377.634 12.0582 378.207 12.0582C378.521 12.0582 378.822 12.0152 379.112 11.929C379.401 11.8428 379.664 11.7151 379.901 11.5458C380.141 11.3735 380.344 11.1626 380.51 10.9134C380.68 10.661 380.798 10.3717 380.866 10.0455H382.011C381.924 10.5286 381.768 10.9611 381.54 11.3427C381.312 11.7243 381.029 12.049 380.69 12.3168C380.352 12.5814 379.972 12.783 379.55 12.9215C379.132 13.06 378.684 13.1293 378.207 13.1293C377.4 13.1293 376.683 12.9323 376.055 12.5384C375.428 12.1444 374.934 11.5843 374.574 10.858C374.213 10.1316 374.033 9.26989 374.033 8.27273C374.033 7.27557 374.213 6.41383 374.574 5.6875C374.934 4.96117 375.428 4.40104 376.055 4.0071C376.683 3.61316 377.4 3.41619 378.207 3.41619C378.684 3.41619 379.132 3.48544 379.55 3.62393C379.972 3.76243 380.352 3.96555 380.69 4.23331C381.029 4.49799 381.312 4.82114 381.54 5.20277C381.768 5.58132 381.924 6.01373 382.011 6.5ZM388.182 10.1009V5.90909H389.271V13H388.182V11.7997H388.108C387.942 12.1598 387.683 12.466 387.332 12.7184C386.981 12.9677 386.538 13.0923 386.003 13.0923C385.56 13.0923 385.166 12.9954 384.821 12.8015C384.476 12.6045 384.205 12.3091 384.008 11.9151C383.811 11.5181 383.713 11.018 383.713 10.4148V5.90909H384.802V10.3409C384.802 10.858 384.947 11.2704 385.236 11.5781C385.529 11.8859 385.901 12.0398 386.354 12.0398C386.624 12.0398 386.9 11.9705 387.18 11.832C387.463 11.6935 387.7 11.4812 387.891 11.195C388.085 10.9087 388.182 10.544 388.182 10.1009ZM391.414 13V3.54545H392.504V7.03551H392.596C392.676 6.91241 392.787 6.75544 392.929 6.56463C393.073 6.37074 393.279 6.19839 393.547 6.04759C393.818 5.8937 394.184 5.81676 394.646 5.81676C395.243 5.81676 395.769 5.96603 396.225 6.26456C396.68 6.56309 397.036 6.98627 397.291 7.53409C397.547 8.08191 397.674 8.72822 397.674 9.47301C397.674 10.224 397.547 10.8749 397.291 11.4258C397.036 11.9736 396.682 12.3983 396.229 12.6999C395.777 12.9985 395.255 13.1477 394.664 13.1477C394.209 13.1477 393.844 13.0723 393.57 12.9215C393.296 12.7676 393.086 12.5937 392.938 12.3999C392.79 12.2029 392.676 12.0398 392.596 11.9105H392.467V13H391.414ZM392.485 9.45455C392.485 9.99006 392.564 10.4625 392.721 10.8718C392.878 11.2781 393.107 11.5966 393.409 11.8274C393.71 12.0552 394.08 12.169 394.517 12.169C394.972 12.169 395.352 12.049 395.657 11.8089C395.965 11.5658 396.196 11.2396 396.349 10.8303C396.506 10.4179 396.585 9.95928 396.585 9.45455C396.585 8.95597 396.508 8.50663 396.354 8.10653C396.203 7.70336 395.974 7.38482 395.666 7.15092C395.362 6.91394 394.978 6.79545 394.517 6.79545C394.074 6.79545 393.701 6.90779 393.4 7.13246C393.098 7.35405 392.87 7.66489 392.716 8.06499C392.562 8.462 392.485 8.92519 392.485 9.45455ZM402.314 13.1477C401.631 13.1477 401.041 12.9969 400.546 12.6953C400.053 12.3906 399.673 11.9659 399.406 11.4212C399.141 10.8733 399.009 10.2363 399.009 9.50994C399.009 8.78362 399.141 8.14347 399.406 7.58949C399.673 7.03243 400.046 6.59848 400.523 6.28764C401.003 5.97372 401.563 5.81676 402.203 5.81676C402.572 5.81676 402.937 5.87831 403.297 6.00142C403.657 6.12453 403.985 6.32457 404.281 6.60156C404.576 6.87547 404.811 7.23864 404.987 7.69105C405.162 8.14347 405.25 8.70052 405.25 9.36222V9.82386H399.784V8.8821H404.142C404.142 8.48201 404.062 8.125 403.902 7.81108C403.745 7.49716 403.52 7.24941 403.228 7.06783C402.939 6.88625 402.597 6.79545 402.203 6.79545C401.769 6.79545 401.394 6.90317 401.077 7.11861C400.763 7.33097 400.521 7.60795 400.352 7.94957C400.183 8.29119 400.098 8.65743 400.098 9.0483V9.67614C400.098 10.2116 400.19 10.6656 400.375 11.038C400.563 11.4073 400.823 11.6889 401.155 11.8828C401.488 12.0736 401.874 12.169 402.314 12.169C402.6 12.169 402.859 12.129 403.089 12.049C403.323 11.9659 403.525 11.8428 403.694 11.6797C403.864 11.5135 403.994 11.3073 404.087 11.0611L405.139 11.3565C405.028 11.7135 404.842 12.0275 404.581 12.2983C404.319 12.5661 403.996 12.7753 403.611 12.9261C403.226 13.0739 402.794 13.1477 402.314 13.1477ZM410.194 4.56108V3.54545H417.285V4.56108H414.312V13H413.167V4.56108H410.194ZM420.849 13.1477C420.166 13.1477 419.576 12.9969 419.081 12.6953C418.589 12.3906 418.208 11.9659 417.941 11.4212C417.676 10.8733 417.544 10.2363 417.544 9.50994C417.544 8.78362 417.676 8.14347 417.941 7.58949C418.208 7.03243 418.581 6.59848 419.058 6.28764C419.538 5.97372 420.098 5.81676 420.738 5.81676C421.108 5.81676 421.472 5.87831 421.832 6.00142C422.192 6.12453 422.52 6.32457 422.816 6.60156C423.111 6.87547 423.347 7.23864 423.522 7.69105C423.697 8.14347 423.785 8.70052 423.785 9.36222V9.82386H418.319V8.8821H422.677C422.677 8.48201 422.597 8.125 422.437 7.81108C422.28 7.49716 422.056 7.24941 421.763 7.06783C421.474 6.88625 421.132 6.79545 420.738 6.79545C420.304 6.79545 419.929 6.90317 419.612 7.11861C419.298 7.33097 419.056 7.60795 418.887 7.94957C418.718 8.29119 418.633 8.65743 418.633 9.0483V9.67614C418.633 10.2116 418.725 10.6656 418.91 11.038C419.098 11.4073 419.358 11.6889 419.69 11.8828C420.023 12.0736 420.409 12.169 420.849 12.169C421.135 12.169 421.394 12.129 421.625 12.049C421.859 11.9659 422.06 11.8428 422.229 11.6797C422.399 11.5135 422.529 11.3073 422.622 11.0611L423.674 11.3565C423.564 11.7135 423.377 12.0275 423.116 12.2983C422.854 12.5661 422.531 12.7753 422.146 12.9261C421.762 13.0739 421.329 13.1477 420.849 13.1477ZM428.323 13.1477C427.658 13.1477 427.086 12.9908 426.606 12.6768C426.126 12.3629 425.756 11.9305 425.498 11.3796C425.239 10.8287 425.11 10.1993 425.11 9.49148C425.11 8.77131 425.242 8.13577 425.507 7.58487C425.775 7.03089 426.147 6.59848 426.624 6.28764C427.104 5.97372 427.665 5.81676 428.305 5.81676C428.803 5.81676 429.253 5.90909 429.653 6.09375C430.053 6.27841 430.381 6.53693 430.636 6.86932C430.891 7.2017 431.05 7.58949 431.112 8.03267H430.022C429.939 7.70952 429.754 7.4233 429.468 7.17401C429.185 6.92164 428.803 6.79545 428.323 6.79545C427.898 6.79545 427.526 6.90625 427.206 7.12784C426.889 7.34635 426.641 7.65566 426.463 8.05575C426.287 8.45277 426.2 8.91903 426.2 9.45455C426.2 10.0024 426.286 10.4794 426.458 10.8857C426.634 11.2919 426.88 11.6074 427.197 11.832C427.517 12.0567 427.892 12.169 428.323 12.169C428.606 12.169 428.863 12.1198 429.094 12.0213C429.325 11.9228 429.52 11.7812 429.68 11.5966C429.84 11.4119 429.954 11.1903 430.022 10.9318H431.112C431.05 11.3504 430.898 11.7274 430.654 12.0629C430.414 12.3952 430.096 12.6599 429.699 12.8569C429.305 13.0508 428.846 13.1477 428.323 13.1477ZM433.794 8.73438V13H432.704V3.54545H433.794V7.01705H433.886C434.052 6.6508 434.301 6.35997 434.634 6.14453C434.969 5.92602 435.416 5.81676 435.973 5.81676C436.456 5.81676 436.879 5.91371 437.242 6.1076C437.605 6.29841 437.887 6.59233 438.087 6.98935C438.29 7.38329 438.392 7.88494 438.392 8.49432V13H437.302V8.56818C437.302 8.00497 437.156 7.56948 436.864 7.26172C436.574 6.95088 436.173 6.79545 435.659 6.79545C435.302 6.79545 434.982 6.87086 434.699 7.02166C434.418 7.17247 434.197 7.39252 434.034 7.68182C433.874 7.97112 433.794 8.32197 433.794 8.73438Z" fill="#667085"/>
</svg>
